<svg xmlns="http://www.w3.org/2000/svg" width="520" height="520" fill="none"><path fill="#2A2B2B" fill-rule="evenodd" d="m250.111 221.485.073-3.364c.004-.409-.039-.816-.029-1.226.025-1.445.065-2.892.05-4.335.002-.642-.071-1.281-.101-1.915-.058-.811-.151-1.625-.076-2.441.025-.255.287-.259.579-.077.29.181.628.553.71 1.022.319 1.66.373 3.334.294 5.032-.051 1.014.083 2.057.116 3.089.032 1.135.052 2.271.05 3.408l-.008 2.099c.003 1.059-.025 2.124.003 3.178.026.819.139 1.624.19 2.451.01.183.037.362.038.547-.042.688-.201.908-.635.992-.1.02-.2.05-.298.054-.328.016-.585-.286-.68-.748-.267-1.391-.282-2.881-.307-4.387l-.011-3.375.042-.004ZM232.788 200c-2.128.112-4.265.24-6.406.403-.78.059-1.557.167-2.34.221-2.76.194-5.534.332-8.316.352-1.233.011-2.474.036-3.703.017a31.574 31.574 0 0 1-2.376-.102 12.054 12.054 0 0 1-2.342-.52c-.477-.16-.355-.338.094-.49a7.878 7.878 0 0 1 2.091-.343c3.089.164 6.239-.026 9.428-.125 1.912-.052 3.892-.331 5.846-.525 2.151-.206 4.31-.406 6.476-.56 1.332-.096 2.669-.165 4.005-.232 2.025-.094 4.065-.102 6.083-.091 1.569-.007 3.117-.018 4.685.061.345.028.685.036 1.031.079 1.285.168 1.668.404 1.842.916.041.119.099.241.112.356.042.384-.523.597-1.428.555-2.694-.092-5.504-.2-8.366-.172-2.122.026-4.266.1-6.41.244l-.006-.044Zm-11.844 39.967c-3.73-.017-7.517-.17-11.212-1.407a8.968 8.968 0 0 1-1.97-.901l-.47-.3c-.095-.043-.201-.162-.302-.272a1.087 1.087 0 0 1-.245-.337c-.231-.432-.303-.778-.403-1.144-.504-2.489-.593-4.873-.755-7.292l-.371-7.214a164.772 164.772 0 0 0-.44-6.377c-.246-2.707-.577-5.402-.764-8.106-.064-.843.136-.769.497-.1.184.333.4.819.63 1.414.212.597.391 1.31.512 2.092.762 5.555.967 11.124 1.151 16.718.056 1.671.167 3.374.335 5.07.088.846.189 1.693.328 2.517.072.408.148.821.257 1.191.047.192.114.36.174.504.038.054.05.125.079.136.023.027.029.049.119.099 1.408.954 3.158 1.569 4.955 1.864 1.795.325 3.636.47 5.48.533 2.272.07 4.556.014 6.834-.121 3.452-.199 6.917-.548 10.327-1.005 2.653-.357 5.234-.829 7.85-1.26.578-.094 1.143-.188 1.724-.284 2.163-.339 2.914-.164 3.397.101.111.069.252.136.311.204.1.115-.074.221-.443.325-.38.116-.971.271-1.749.435-4.633.828-9.581 1.663-14.584 2.209-3.717.416-7.473.701-11.247.741l-.005-.033Z" clip-rule="evenodd"/><path fill="#F58A07" d="M227.19 286.38s9-21.43 9.33-23.86c.33-2.43 6.68-29.29 6.68-29.29s3.68 4.05 3.78 6.08c.1 2.03-2.05 13.99-2.05 13.99s10.34.45 12.31 3.52c1.97 3.07 2.32 10.12 2.32 10.12l-.8 11.59s-.18 3.58-1.86 1.52c-1.68-2.06-4.04-5.51-4.04-5.51h-1.81s.5 4.58-.13 6.82-6.52 7.71-6.52 7.71l-4.92 4.9-12.29-7.6v.01Zm-127.17-14.039s-14.55 6.69-16.39-12.07c-1.06-10.78 13.06-10.93 15.71-7.31 2.65 3.62 9.16 11.33 10.92 7.08 1.75-4.26-1.49-15.18-1.49-15.18s9.32-3.08 8.75-5.56c-.57-2.48-2.82-13.02-2.82-13.02l14.29-6.06s13.42 13.32 17.25 20.63c3.83 7.31 7.85 22.28 6.23 29.88-1.62 7.59-15.31 25.06-18.98 23.95-3.67-1.11-17.74-2.25-20.48-2.25-1.47 0-17.32-.52-14.9-4.15 2.38-3.57 1.74-6.86 3.32-12.36l-1.4-3.59-.01.01Z" opacity=".15"/><path fill="#F58A07" d="M141.06 232.42s7.48.43 9.77 2.75c2.29 2.32 1.31 6.71.47 7.96-.84 1.25-1.88 2.64-1.88 2.64l-8.36-13.34v-.01Z" opacity=".15"/><path fill="#75C" d="M340.69 100.59c-2.96-2.38-145.6-4.36-150.7-1.29-3.31 2-3.36 34.29.7 34.29 0 0 149.34 1.39 149.79.06 3.61-10.66 3.35-30.53.21-33.06Z" opacity=".15"/><path fill="#2A2B2B" d="M236.51 292.151c-.45-.28-4.71 5.76-.21 9.86 3.17 2.88-7.39-10.46-18.2-8.79-3.62.56 5.04-7.78 9.71-5.55 4.67 2.22 8.7 4.49 8.7 4.49v-.01ZM303.99 417c.15-.02.4.14.54.24.26.17.45.19.57.37 0 0-.03.21-.07.59-.03.19-.06.42-.11.69-.08.25-.26.47-.42.74-.35.52-.75 1.16-1.34 1.73-.57.58-1.25 1.16-2.02 1.65-.76.5-1.64.9-2.5 1.16-.87.26-1.74.4-2.53.43-.79.04-1.51-.03-2.08-.11-.27-.04-.52-.08-.73-.11-.21-.02-.35-.08-.44-.1-.15-.02-.26-.16-.35-.3-.08-.13.05-.52.25-.91.29-.58.62-1.01.94-1.52.5-.66.68-.92.81-.97.14-.09.18.13.39.33.44.36.5.2.7.1.09-.05.02.3.2.03.03-.05.33.02.65.08s.66.1.71.15c.02.02.03.02.04-.02.06-.57.35.14.57 0l.65-.37c.23-.14.42-.26.42-.26.1-.11.36.09.43-.1.2.08.21-.2.43-.11.07.03.08-.04.12-.06.05-.01.19.06.19-.03 0-.05 0-.08.07-.04.05.03.11.06.1.02 0-.11.1-.27.25-.19.11.06.19.08.24.04-.25-.45-.05-.37.03-.45.01-.01.1.06.16.11.45.34-.15-.35.26-.26.06.01.17.09.13-.02 0-.02.08.04.14.07-.13-.23-.1-.31-.03-.36.05-.03.03-.12.06-.17.09-.14.51.26.39-.08-.09-.26.38-.14.27-.35-.01-.03.03-.02.08 0 .17.07.23.04.23-.04 0-.07.07-.11-.03-.25.07-.07 0-.24.23-.19.07.02.1-.02.11-.05.04-.07.19-.06.07-.23-.02-.02 0-.04.04-.03.24.09.17-.04.23-.08.07-.03.19-.12.17-.2 0-.09.54-.31.62-.39.04-.03.09-.08.16-.13V417Zm157.21-26.939c-.17.05-.71-.1-1-.19-.52-.17-.89-.15-1.13-.35 0 0 .04-.28.12-.76.04-.25.13-.51.22-.85.08-.34.23-.68.39-1.06.17-.38.44-.74.68-1.15.27-.39.57-.79.91-1.19.36-.39.75-.76 1.21-1.1.43-.36.94-.67 1.45-.97.25-.16.54-.26.82-.39.28-.13.55-.25.86-.33.3-.08.6-.17.9-.25l.94-.12c.62-.1 1.25.02 1.83.08.56.16 1.14.26 1.61.48.46.22.94.41 1.3.64.36.23.69.45.98.64.3.19.53.34.67.52.16.17.28.28.37.34.13.1.23.25.21.48 0 .19-.26.51-.58.81-.47.44-.93.71-1.43 1.06-.38.21-.67.38-.88.48-.2.1-.32.13-.41.11-.09-.01-.15-.07-.22-.17-.07-.09-.15-.21-.23-.4-.42-.56-.53-.45-.81-.45-.12 0 .11-.32-.22-.1-.06.06-.35-.15-.65-.31-.3-.13-.61-.33-.65-.36-.01-.02-.03-.03-.04.02-.23.68-.3-.26-.57-.15-.16.11-.46.16-.73.31-.26.14-.48.23-.48.23-.12.13-.39-.14-.48.08-.23-.12-.24.2-.49.08-.08-.04-.09.05-.14.06-.05.01-.22-.09-.22.02 0 .06-.01.09-.08.05-.05-.04-.13-.08-.12-.04 0 .12-.11.34-.29.24-.13-.07-.24-.11-.29-.06.31.56.07.46-.03.55-.01.01-.12-.08-.19-.14-.55-.43.21.45-.3.33-.07-.01-.22-.11-.16.02.01.03-.1-.05-.18-.09.16.28.12.36.04.43-.06.04-.04.15-.08.2-.11.16-.64-.3-.48.09.12.3-.45.18-.3.43.02.03-.04.03-.09 0-.22-.08-.28-.03-.28.06s-.08.13.05.29c-.08.08.04.28-.25.24-.09-.01-.12.02-.14.06-.05.08-.24.08-.09.25.02.03 0 .05-.05.03-.3-.08-.2.07-.28.11-.07.05-.14.19-.08.29.04.06-.07.18-.17.31-.09.13-.19.26-.21.31-.02.05-.04.12-.07.2l.01.05Z"/><path fill="#F58A07" d="M366.84 216.189s-11.21 11.91-17.24 24.87c-6.03 12.96-8.99 21.8-7.48 28.85 1.5 7.05 5.86 17.08 8.99 20.45 3.13 3.37 12.88 10.57 15.74 11.48 2.86.91 14.86 4.16 23.15 1.75 5.66-1.65-7.91-13.53-6.21-19.82 1.7-6.29 1.83-40.74 1.83-40.74l6.6-19.5s-16.15-1.54-19.12-3.5c-2.98-1.96-6.24-3.84-6.24-3.84h-.02Z" opacity=".3"/><path fill="#2A2B2B" d="M348.5 264.34c-.17.36-.36.71-.57 1.05l-.3.45c-.03.05-.2.31-.07.1s-.04.05-.07.09c-.25.31-.52.6-.81.88-.13.13-.26.25-.4.37-.08.07-.17.14-.25.21-.23.19.19-.14.03-.02-.62.45-1.27.82-1.96 1.16-.18.09.32-.12.04-.02l-.3.12c-.17.06-.34.12-.52.17-.38.12-.77.2-1.16.27-.84.15-1.39 1.22-1.13 2 .29.9 1.1 1.29 2 1.13 3.53-.61 6.77-3.08 8.3-6.32.36-.77.24-1.79-.58-2.22-.72-.38-1.83-.24-2.22.58h-.03Zm-217.78-28.521c1.57 1.49 3.44 2.72 5.55 3.26 2.11.54 4.55.36 6.56-.72.71-.38.94-1.37.54-2.05-.42-.72-1.34-.92-2.05-.54-.4.22-.59.29-1.06.42-.36.1-.72.17-.95.18-.94.04-1.56 0-2.4-.23-1.52-.43-2.89-1.34-4.06-2.45-.59-.56-1.54-.58-2.12 0-.58.58-.59 1.56 0 2.12l-.01.01Zm21.74 26.7c-5.46-.15-7.33-5.47-6.71-6.42.62-.95 4.59.49 5.36-1.48l1.34 7.9h.01ZM355.39 93.92c-.33-.46-.68-.92-1.16-1.31-.17-.15-.37-.24-.55-.38-.63-.48-1.35-.91-2.12-1.25-.34-.15-.69-.3-1.04-.41-.46-.12-.9-.36-1.34-.6-.14-.08-.11-.09.03-.15.14-.05.41-.2.72-.27.54-.12 1.05-.04 1.57 0 .52.06.99.3 1.47.54.55.31 1.19.49 1.77.81.63.35 1.22.8 1.74 1.32.32.32.59.68.86 1.05.4.56.69 1.18.98 1.8.22.48.49.96.63 1.51.03.12.08.24.09.36.05.47-.13.62-.64.67-.12.01-.24.03-.35.03-.4 0-.72-.18-.84-.4-.19-.34-.37-.65-.51-.96-.13-.31-.27-.63-.43-.94-.23-.47-.52-.95-.88-1.38l.03-.03-.03-.01ZM298.74 441.4a28.83 28.83 0 0 1-3.06-4.69c-.32-.6-.65-1.2-.92-1.82-.95-2.2-1.5-4.54-1.87-6.87a41.22 41.22 0 0 1-.38-3.11c-.17-1.33.02-2.68.24-3.98.07-.41.08-.35.14 0 .05.35.22.99.36 1.74.05.33.13.66.19.98.06.33.08.65.12.98.07.65.16 1.3.28 1.94.22 1.29.5 2.57.83 3.85.4 1.53 1.1 3.03 1.8 4.47.77 1.59 1.7 3.12 2.79 4.53.66.87 1.37 1.71 2.15 2.49 1.17 1.18 2.43 2.29 3.82 3.2 1.07.71 2.23 1.23 3.4 1.71l.77.3c.95.41 1.22.61 1.25 1.15 0 .12.03.25.02.37-.04.39-.55.52-1.35.31-2.32-.65-4.58-1.93-6.57-3.52a27.284 27.284 0 0 1-4.05-3.99l.03-.03.01-.01Zm50.59-62.409c-1.32-.15-4.53 3.5-5.62 5.76-1.45 3.01 0 7.52 0 7.52l5.62-13.28Zm32.37-61.471c-.15.36-2.51 7.43-1.88 10.59.42 2.09 1.89 2.98 3.69 2.16 3.67-1.68-6.39 6.52-6.39 6.52s-.72-7.61 0-9.62c1.42-3.98 4.57-9.65 4.57-9.65h.01Z"/><path fill="#F58A07" d="M368.87 302.42s2.39 8.54 0 12.29-11.17 27.27-11.17 27.27l-5.36 14.09-22.53 2.45s14.15-32.8 15.02-32.21c.87.59-13.04-5.12-16.51-8.78-3.47-3.66-4.98-6.35-3.2-8.21 1.78-1.86 8.69-6.43 8.69-6.43l1.81 3.95-5.75 3.81s10.82 6.36 9.92 4.06c-.9-2.3-7.39-17.7-7.39-17.7s1.36-4.96 2.16-6.66c.8-1.7 5.51-9.67 5.51-9.67l1.66-6.94s1.3 10.38 5.34 13.49c4.04 3.11 8.49 9.72 11.02 11.13 2.53 1.41 10.78 4.05 10.78 4.05v.01Z" opacity=".3"/><path fill="#2A2B2B" d="M344.61 356.321c-1.33.1-2.65.21-3.98.25-.48.02-.96.08-1.45.09-1.71.03-3.41.04-5.11.03-.76-.01-1.51 0-2.26.02l-1.44.02c-.48-.04-.97-.15-1.45-.23-.3-.06-.26-.08 0-.18.25-.09.71-.36 1.25-.55 1.94-.23 3.87-.49 5.84-.43 1.18.01 2.39-.18 3.58-.28l3.94-.34c.81-.07 1.62-.15 2.43-.25 1.22-.15 2.45-.29 3.65-.52.93-.18 1.83-.47 2.73-.73.2-.06.39-.12.59-.17.75-.18 1.02-.1 1.27.33.06.1.13.19.17.29.15.34-.1.7-.64.92-1.6.67-3.36 1.01-5.14 1.29-1.32.21-2.66.35-3.99.5v-.04l.01-.02Z"/><path fill="#2A2B2B" d="M332.24 350.609s-16.75 2.95-18.29 5.82c-1.54 2.87 4.8 1.34 7.52 1.34 2.72 0 9.22-.66 9.22-.66l1.55-6.49v-.01Z"/><path fill="#F58A07" d="M341.73 256.019s-5.02-7.74-4.13-9.01c.89-1.27 12-7.98 12-7.98l-7.87 17v-.01Z" opacity=".3"/><path fill="#2A2B2B" d="M388.6 187.68c-6.72-.01-17.52 5.8-20.68 14.06-2.03 5.32-1.14 11.23 2.18 16.32 0 0 4.87 3.9 10.3 4.64 5.44.74 9.29.82 9.29.82s-5.95 16.03-6.89 25.35c-.93 9.32-.16 32.84 1.91 39.8 2.07 6.97 11.85 38.05 29.55 41.52 17.69 3.47 23.75-5.89 23.75-5.89l4.73-6.31s9.36 3.58 12.67 2.32c3.31-1.26 8.37-4.58 9.72-7.38 1.35-2.8 2.64-6.77 2.64-6.77s4.16 3.11 10.25 2.43c8.29-.92 11.54-18.41 4.58-41.75 0 0-6.29-16.81-12.96-26.37-6.67-9.56-17.57-23.14-23.01-27.09-5.44-3.95-10.94-7.52-12.97-6.59-2.03.93-11.61 4.35-11.61 4.35s-2.84-6.39-5.69-9.6c-2.85-3.21-12.54-10.88-16.53-12.22-3.99-1.34-11.23-1.66-11.23-1.66v.02ZM225.95 288.289c-.86.91-4.76 2.67-2.98 4.89 1.78 2.22-6.4 1.5-6.4 1.5s4.23-4.18 5.8-5.06c1.57-.88 3.58-1.33 3.58-1.33Zm7.16-.988c.7.4 1.4.8 2.07 1.24.25.15.51.27.75.44.82.63 1.59 1.31 2.36 1.97.34.29.7.57 1.05.84.45.35.84.78 1.16 1.29.1.16.08.14-.08.1-.15-.06-.53-.02-.84-.15-.59-.17-1.05-.5-1.52-.82-.47-.31-.93-.64-1.38-.99-.53-.44-1.21-.69-1.8-1.05-.65-.39-1.31-.78-2-1.13-.42-.22-.84-.43-1.27-.62-.66-.28-1.32-.58-2-.77-.53-.15-1.09-.19-1.63-.26-.12-.02-.24-.01-.36-.04-.22-.03-.36-.11-.42-.26-.07-.13-.1-.29-.1-.49v-.27c.02-.27.27-.5.65-.63 1.06-.06 2.14.18 3.15.57.76.28 1.5.64 2.23.99l-.02.04Zm-26.82 91.32c-1.94 1.03-3.92 2.01-5.99 2.74-.75.29-1.48.61-2.26.82-1.35.42-2.73.72-4.11.97-1.4.17-2.79.38-4.19.42-1.24.12-2.49.08-3.72.07l-2.37-.19c-.39-.04-.78-.14-1.16-.26-.38-.11-.75-.22-1.14-.33-.47-.14-.4-.13.02-.17.21-.02.51-.07.88-.14.2-.04.39-.07.58-.11.1-.02.21-.03.32-.06h.32c.78.02 1.56-.02 2.34-.03.78-.02 1.55-.14 2.32-.14 1.55-.1 3.09-.25 4.64-.48 1.86-.26 3.73-.86 5.55-1.46 1.98-.72 3.96-1.51 5.82-2.53 1.17-.59 2.28-1.29 3.39-1.99.82-.56 1.63-1.14 2.43-1.72.76-.64 1.57-1.22 2.29-1.89.56-.53 1.1-1.06 1.63-1.6l1.5-1.7c.23-.24.42-.51.63-.77.83-.93 1.24-1.1 1.64-1.13.09 0 .2-.02.27 0 .25.04.08.57-.37 1.41-1.49 2.39-3.53 4.58-5.79 6.52-1.7 1.43-3.58 2.63-5.48 3.78l-.03-.04.04.01Zm-71.18-81.391s3.95 5.27 5.29 9.33c1.09 3.27.68 6.18-1.34 6.17h5.88s-2.9-9.35-3.65-10.41c-.74-1.06-6.19-5.09-6.19-5.09h.01ZM98.1 315.07c-1.02.29-2.27.68-3.31.24-2.05-.85-3.2-4.26-3.31-4.73 0 0 0 5.01 2.61 6.7 1.35.88 2.08 0 2.08 0l1.93-2.22v.01Zm39.81-23.781c-.83.38-1.67.73-2.52 1.05-.31.12-.6.28-.91.38-.55.19-1.12.34-1.7.44-.57.11-1.15.24-1.74.32-.52.1-1.06.13-1.6.09-.69-.05-1.37-.33-1.91-.69-.17-.12-.14-.11.04-.09.17.03.5.03.85-.04.32-.07.61-.19.89-.3.28-.1.55-.21.82-.33.58-.14 1.16-.27 1.77-.42.75-.17 1.46-.55 2.2-.82.81-.31 1.61-.63 2.39-1 .48-.23.96-.46 1.43-.72.7-.4 1.41-.81 2.08-1.25.52-.36.95-.8 1.43-1.19.1-.09.2-.18.31-.26.41-.3.6-.33.88-.17.07.04.14.07.19.11.19.14.16.43-.05.77-.63 1.03-1.48 1.95-2.44 2.75-.75.53-1.58.96-2.4 1.39l-.02-.04.01.02Zm-41.43-17.228s-1.53 17.16-17.64 21.2c-12.45 3.12-19.87 1.24-26.5-5.68-6.63-6.92-9.24-15.68-8.25-19.91.99-4.23.26-7.16-1.73-8.89-1.99-1.73-12.09-7.11-13.4-10.87-1.31-3.76-.92-17.97-.92-17.97l4.46-12.15s-2.17-5.55-1.7-7.62c.47-2.07 2.31-6.1 5.02-7.25 2.71-1.15 11.46-1.73 12.01-1.8.55-.07 5.76-1.84 7.06-3.93 1.3-2.09 7.38-12.63 8.89-14.93 1.51-2.3 8.89-5.91 11.67-5.86 2.78.05 11.97.92 13.19 1.41 1.22.49 13.66 6.68 16.55 6.47 2.89-.22 11.72-2.75 15.27-4.1 3.56-1.35 14.07-1.35 15.98 1.47 1.91 2.82 5.37 7.53 6.24 10.73.87 3.2-.24 13.11-2.02 15.94s-9.01 8.84-11.67 9.91c-2.66 1.07-10.05 2.87-11.59 5.37-1.53 2.5-3.91 4.29-1.48 6.82 2.43 2.54 4.57 6.36 2.72 8.2-1.85 1.84-10.7 4.23-9.87 6.06.83 1.83 3.99 11.32 3.99 11.32s-.52 2.96-2.5 3.62c-1.98.66-9.85-4.44-9.85-4.44s-3.16-6.49-7.16-4.88c-4 1.61-8.06 3.39-8.06 6.94 0 3.54.61 8.27 2.05 9.84 3.81 4.14 9.24 4.98 9.24 4.98Z"/><path fill="#2A2B2B" d="M377.11 322.669c.29-.89.6-1.78.96-2.67.18-.45.36-.89.58-1.37.12-.25.2-.45.37-.73.15-.26.31-.54.45-.71.4-.58.75-1.21 1.21-1.75 1.66-1.88 3.6-3.6 5.92-4.6 1-.48 2.01-.92 3.04-1.26 1.33-.39 2.72-.75 4.12-.4.43.09.38.3.07.68-.15.19-.37.42-.62.69-.12.13-.25.28-.4.4-.14.11-.3.18-.46.26-.57.25-1.12.51-1.65.81-.53.28-1.06.54-1.56.85-.51.3-1.01.61-1.5.94-.25.16-.5.32-.74.5-.25.17-.53.29-.79.46-1.28.76-2.2 2.04-3.1 3.27-.26.33-.48.69-.73 1.04-.12.17-.17.29-.27.44l-.26.53c-.34.76-.66 1.58-.94 2.42-.36 1.03-.69 2.08-.97 3.14-.42 1.61-.86 3.24-1.07 4.89-.17 1.28-.06 2.56-.09 3.81 0 .28.03.55.01.82-.09 1.01-.44 1.31-1.19 1.53-.17.05-.32.12-.47.15-.45.1-1.07-.33-1.37-1.18-.7-2.47-.38-5.02.05-7.49.33-1.84.8-3.66 1.32-5.47l.08.02v-.02Zm-42.93-25.709c.18 1.37.62 2.83 1.11 4.28.17.53.44 1.03.62 1.56.66 1.88 1.38 3.78 2.14 5.67.32.85.71 1.67 1.09 2.48.55 1.02.9 2.17.81 3.44-.18.44-.01.33-.37.13-.19-.09-.4-.24-.69-.4-.16-.09-.31-.18-.45-.26-.08-.04-.14-.1-.24-.14l-.16-.19-.54-.69c-.18-.23-.28-.5-.43-.75l-.8-1.54c-.54-1.03-.95-2.14-1.33-3.27-.44-1.36-1.2-2.64-1.76-4.01-.61-1.5-1.12-3.06-1.5-4.69-.24-1-.37-2.06-.36-3.18.04-.9.29-1.68.57-2.43.28-.75.61-1.45.97-2.14.55-1.07 1.03-2.16 1.8-3.18.18-.22.32-.46.56-.68.2-.2.4-.35.61-.45.18-.1.37-.17.57-.17.35 0 .66.19.84.53.08.15.16.3.18.46.04.26-.04.53-.04.75 0 .06 0 .1.01.15l-.02.18c0 .11-.04.17-.11.28-.38.55-.88 1.38-1.32 2.17-.45.81-.89 1.65-1.23 2.49-.25.62-.46 1.25-.55 1.78l-.04.37.02.45c-.01.29.07.64.11.97l-.07.02v.01Z"/><path fill="#2A2B2B" d="M338.11 290.489c.02.67.14 1.48.3 2.27.16.8.36 1.61.57 2.42.16.59.4 1.16.57 1.75.59 2.09 1.22 4.2 1.92 6.28.3.93.65 1.84 1.01 2.74.24.57.47 1.16.66 1.75.21.59.34 1.21.34 1.88-.16.47-.14.41-.61.24-.25-.08-.51-.23-.82-.41-.32-.18-.6-.42-.77-.73-1.3-2.2-2.24-4.57-2.85-7.09-.37-1.51-1.05-2.97-1.54-4.48-.53-1.67-1-3.35-1.33-5.14-.08-.57-.16-1.13-.16-1.77 0-.59.06-1.13.13-1.7.21-1.69.74-3.33 1.42-4.88.54-1.2 1.12-2.4 1.99-3.48.18-.24.38-.47.59-.69.41-.39.75-.59 1.06-.59.15 0 .29.01.43.07.15.07.29.17.42.28.12.1.25.18.34.27.26.26.28 1.05-.08 1.59-1.16 1.56-2.09 3.2-2.76 5.09-.25.7-.43 1.43-.57 2.17-.08.37-.12.75-.16 1.12l-.04.57v.46h-.06v.01Zm-186.55-50.918c.14-.33.29-.66.31-.98.03-.16.02-.32 0-.49-.02-.21-.01-.22-.08-.38-.1-.21-.32-.41-.53-.66-.37-.44-.83-.88-1.33-1.3-.5-.4-1-.87-1.54-1.25-.47-.36-1-.64-1.51-.94-.64-.41-1.35-.7-1.89-1.35-.17-.2-.11-.24.15-.32.19-.06.39-.11.54-.16.22-.05.44-.04.66 0 1.58.33 3.06.97 4.39 1.97.75.67 1.68 1.12 2.47 1.96.22.22.42.5.62.8.2.34.35.72.4 1.04.18.66.14 1.36.04 1.99a7.06 7.06 0 0 1-.81 2.1c-.53.95-1.2 1.74-1.79 2.56-.46.63-.79 1.34-1.15 1.98-.08.14-.13.3-.21.43-.32.46-.54.47-1.23.2-.16-.06-.32-.11-.47-.18-.52-.21-.77-.71-.62-1.25.47-1.54 1.4-2.56 2.15-3.61.57-.76 1.08-1.5 1.36-2.19l.06.02.01.01Z"/><path fill="#2A2B2B" d="m150.53 271.15.37-1.46c.12-.49.17-.99.27-1.48.07-.5.18-.99.23-1.49l.12-1.5c.16-2.01.04-4.03-.16-6.09-.19-1.49-.48-2.96-.81-4.42-.57-2.58-1.27-5.14-2.3-7.6-1.02-2.46-2.28-4.84-3.72-7.12-1.27-2.03-2.79-3.92-4.32-5.75l-3-3.51c-.5-.59-.98-1.19-1.47-1.8l-.72-.91c-.23-.31-.38-.7-.59-1.04-.44-.91-.48-.7.28-.29.36.22 1.06.36 1.65.77.63.37 1.34.85 2.03 1.43 1.17 1.09 2.32 2.21 3.42 3.39 1.06 1.21 2.09 2.45 3.06 3.76 1.95 2.59 3.7 5.39 5.05 8.39 1.62 3.58 3.18 7.41 3.91 11.38.37 2.19.67 4.36.73 6.59l.04 1.67c.01.56-.06 1.11-.08 1.67-.04.56-.06 1.11-.13 1.67l-.25 1.65c-.45 2.7-1.18 5.35-2.26 7.85-1.58 3.81-3.84 7.33-6.53 10.4-2.08 2.4-4.35 4.6-6.98 6.41-.29.2-.57.41-.86.61-.29.19-.6.36-.91.53-.58.32-1.07.56-1.49.75-.43.16-.8.25-1.11.29-.63.07-1.05-.06-1.46-.35-.18-.13-.4-.25-.53-.41-.43-.5.3-1.45 1.8-2.3 2.2-1.38 4.3-2.97 6.26-4.76 1.98-1.76 3.76-3.81 5.31-6.02 2.31-3.27 4.12-6.97 5.07-10.9h.08v-.01Zm-60.87 40.881c-.07-1.2.08-2.36.28-3.48.06-.41.11-.81.21-1.21.43-1.38.96-2.69 1.66-3.89.31-.53.57-1.08.85-1.61.19-.33.34-.69.57-1.01.25-.3.53-.58.83-.84.19-.16.35-.01.48.3.12.31.29.83.22 1.26-.17.74-.5 1.38-.72 2.07-.14.33-.26.67-.39 1-.13.33-.33.64-.48.97-.2.39-.34.81-.41 1.24-.1.43-.14.87-.2 1.3-.16.94-.22 1.89-.18 2.84l.07.87c.04.29.1.57.16.86.08.44.25.84.37 1.27.19.4.36.81.61 1.17.21.27.45.52.69.75l.81.61c.11.09.25.15.36.25.4.36.38.63-.02 1.3-.09.15-.17.31-.27.45-.33.49-.83.69-1.34.5-1.53-.51-2.63-1.89-3.31-3.41-.3-.55-.43-1.16-.62-1.74-.11-.6-.26-1.2-.3-1.8h.07v-.02ZM162.1 417.02c-.51-2.92-1.01-5.849-1.61-8.759-.22-1.06-.51-2.11-.73-3.17-.77-3.75-1.45-7.53-2.26-11.28-.35-1.67-.77-3.33-1.19-4.96-.55-2.1-1.02-4.23-1.18-6.42.07-.71.09-.62.53-.14.41.49 1.14 1.39 1.6 2.56.8 2.08 1.38 4.21 1.96 6.35.58 2.14 1.11 4.3 1.55 6.49.55 2.62 1.37 5.28 2.01 7.94.69 2.93 1.34 5.869 1.94 8.829.39 1.81.69 3.65 1.05 5.471.48 2.77.97 5.55 1.45 8.3.41 2.13.94 4.2 1.39 6.31.1.46.22.91.29 1.39.27 1.75.09 2.339-.66 2.809-.17.11-.34.24-.52.31-.59.24-1.21-.399-1.6-1.639-1.07-3.68-1.74-7.601-2.47-11.551-.52-2.93-1.05-5.869-1.64-8.799l.08-.02.01-.021Zm182.81-174.021c-1.08.6-2.15 1.21-3.18 1.87-.37.24-.7.55-1.06.79-.46.31-.92.63-1.33.95-.46.4-.61.42-.66.69-.03.1 0 .57.05.97.08.66.29 1.33.53 1.97.15.42.36.81.5 1.23.11.43.25.85.28 1.34.02.3-.19.38-.61.33-.43-.04-1.1-.23-1.48-.66-.56-.71-.89-1.53-1.24-2.35-.16-.42-.31-.85-.42-1.31-.05-.23-.11-.46-.13-.72-.02-.2-.04-.7-.02-1.04.04-.34.17-.68.35-.97.66-.91 1.1-1.18 1.56-1.63.46-.42.91-.81 1.39-1.16 1.05-.77 2.14-1.45 3.22-2.12l2.01-1.22c1.01-.62 2.06-1.19 3.03-1.85.76-.51 1.43-1.14 2.15-1.7.16-.13.3-.27.47-.38.63-.41.94-.36 1.44.23.12.13.24.26.34.41.34.48.32 1.05-.06 1.46-1.11 1.22-2.47 2.17-3.9 3.04-1.06.64-2.13 1.28-3.2 1.92l-.04-.06.01-.03Zm48.71 71.622c-4.15-7.08-7.39-14.61-9.62-22.45l-1.17-4.3c-.22-.71-.35-1.44-.49-2.17l-.41-2.19c-.21-1.29-.5-2.57-.65-3.87l-.42-3.9-.21-1.95c-.05-.65-.06-1.3-.09-1.95l-.16-3.91c-.07-1.3.02-2.6.04-3.9.05-1.3.02-2.6.13-3.9.24-2.59.34-5.19.74-7.76l.44-3.43.58-3.41c.35-2.28.86-4.52 1.37-6.75 1.42-5.68 3.1-11.4 6.1-16.49.99-1.55.86-1.33.57.22-.32 1.54-.64 4.42-1.56 7.58l-.55 2.13c-.19.71-.42 1.4-.58 2.11l-1.01 4.26c-.28 1.43-.55 2.87-.87 4.29-.33 1.42-.51 2.88-.78 4.31-.93 5.77-1.58 11.61-1.66 17.5-.2 7.05.71 14.39 2.24 21.43a90.984 90.984 0 0 0 8.22 22.26c1.19 2.13 2.27 4.36 3.66 6.3 1.37 1.98 2.99 3.78 4.72 5.46 2.64 2.52 5.6 4.76 8.85 6.43 3.24 1.67 6.75 2.81 10.32 3.13 2.78.21 5.55-.09 8.04-1.05 2.5-.99 4.73-2.55 6.66-4.44.84-.85 1.61-1.73 2.35-2.69 1.39-1.76 2.22-3 2.9-3.82.69-.81 1.21-1.22 1.85-1.45.29-.1.61-.28.86-.3.8-.11.52 1.94-1.32 5.06-1.38 2.29-3.08 4.48-5.18 6.39-2.08 1.92-4.6 3.51-7.43 4.49-1.4.5-2.91.82-4.38.95-.73.05-1.47.13-2.21.14l-2.21-.07c-2.94-.24-5.8-.97-8.5-2.03-2.02-.75-3.9-1.79-5.75-2.87-1.79-1.16-3.55-2.37-5.14-3.78a41.86 41.86 0 0 1-8.34-9.6l.06-.05-.01.04ZM343.07 285.8c.45 1.83.95 3.68 1.54 5.51.2.67.51 1.31.72 1.98.73 2.37 1.44 4.76 2.25 7.12.37 1.04.76 2.08 1.19 3.1.21.68.52 1.32.64 2.03.15.71.25 1.43.33 2.16.04.46-.11.45-.5.2-.37-.26-1.12-.69-1.71-1.32-1.07-1.11-1.63-2.43-2.2-3.76-.53-1.34-.95-2.74-1.32-4.17-.43-1.71-1.24-3.34-1.81-5.04a98.12 98.12 0 0 1-1.73-5.68c-.33-1.18-.62-2.37-.88-3.58-.2-.92-.36-1.85-.42-2.85l-.04-.76v-.69l.02-1.38c0-.73-.01-1.47.07-2.27.08-.79.29-1.64.68-2.4.17-.34.34-.66.56-.96.41-.55.82-.76 1.13-.85.32-.09.63.03.97.24.15.09.31.17.43.26.38.29.41 1.09.08 1.74-.5 1.01-.76 1.7-.83 2.66-.09.95-.05 2.22-.06 3.54.04.42.03.72.09 1.15.08.43.11.84.21 1.29.17.89.4 1.8.65 2.71l-.07.02h.01Zm-10.74 24.901s-.07.04-.04.07c-.03.04-.01.08 0 .13.01.02.03.05.05.08.01.01.02.03.03.05l.16.14c.24.21.53.36.78.57.88.74 1.8 1.43 2.76 2.06.42.28.88.51 1.33.7.59.24 1.18.45 1.75.63.18.07.17.25-.02.44-.19.2-.6.43-1.02.39-.74-.07-1.46-.22-2.13-.44-.68-.2-1.31-.52-1.88-.93-.68-.49-1.5-.8-2.22-1.24l-.55-.34c-.09-.05-.15-.13-.35-.19l-.43-.29c-.29-.19-.57-.38-.79-.6l-.35-.31-.27-.32c-.04-.07-.07-.14-.1-.21-.06-.14-.12-.27-.16-.42-.02-.18.04-.38.11-.53.16-.32.42-.58.69-.84.43-.38.98-.7 1.5-.99.39-.2.78-.39 1.15-.61.57-.34 1.06-.81 1.55-1.22.11-.09.2-.2.3-.28.41-.29.52-.15 1.08.43.13.13.27.24.41.36.51.37.5 1.07.18 1.45-.89 1.1-1.96 1.63-2.98 2.17l-.28.14c-.07.04-.02 0-.04.01 0 0-.01-.01-.03-.01-.03 0-.08-.01-.11.01h-.1l.02-.06Z"/><path fill="#2A2B2B" d="M333.37 322.42c-2.17-1.15-4.3-2.41-6.29-3.99-.73-.58-1.49-1.16-2.14-1.93-.56-.67-1.08-1.43-1.44-2.32-.36-.88-.54-1.89-.44-2.86 0-.23.11-.57.19-.85.08-.29.21-.46.31-.69.23-.43.48-.77.74-1.12.53-.66 1.07-1.27 1.66-1.81 1.03-.98 2.06-1.93 3.14-2.82.34-.29.71-.55 1.09-.79.38-.24.75-.51 1.18-.68.86-.34 1.76-.64 2.76-.66.65.05.48.17.1.49-.39.33-.82 1.15-1.41 1.95-.14.16-.26.35-.4.51-.15.14-.3.27-.45.43-.3.29-.58.6-.9.87a41.55 41.55 0 0 0-3.71 3.28c-.58.55-1.13 1.16-1.46 1.65-.14.18-.12.22-.19.31-.02.16-.06.37-.04.55 0 .38.1.77.27 1.15.33.77.96 1.5 1.65 2.19 1.56 1.52 3.58 2.81 5.6 3.96 1.26.71 2.56 1.37 3.89 2.01 2.01.96 4.06 1.98 6.04 3.07 1.54.85 3.1 1.65 4.56 2.66.32.22.64.44.95.68.59.44.89.82 1.03 1.17.14.34.13.63 0 .97-.06.16-.09.32-.17.45-.25.44-.97.36-1.86-.13-2.48-1.61-5.03-3.17-7.83-4.55-2.16-1.03-4.32-2.07-6.48-3.1l.03-.06.02.01Zm.45 24.451c.78-1.4 1.55-2.81 2.31-4.23.27-.52.48-1.07.76-1.59 1-1.82 2.09-3.61 3.12-5.41.46-.8.88-1.63 1.28-2.45.59-1.02 1.07-2.1 1.99-2.94.27-.27.38-.15.46.25.04.2.09.47.12.79.05.33.04.67-.09.98l-.61 1.68c-.23.55-.49 1.07-.75 1.6a50.08 50.08 0 0 1-1.69 3.14c-.74 1.23-1.21 2.66-1.85 3.98l-2.13 4.37-1.34 2.68c-.68 1.35-1.42 2.69-2.06 4.05-.5 1.06-.86 2.17-1.31 3.25-.09.24-.17.48-.29.72-.21.43-.41.69-.66.8a.86.86 0 0 1-.39.09c-.16-.01-.34-.05-.51-.09-.16-.04-.31-.06-.43-.1-.34-.1-.81-.81-.63-1.49.56-2.01 1.5-3.91 2.45-5.84.71-1.43 1.46-2.85 2.2-4.28l.06.03-.01.01Zm23.72-9.761 2.97-7.09c.36-.86.65-1.75 1.02-2.61 1.31-3.02 2.63-6.05 3.94-9.07.59-1.33 1.07-2.7 1.47-4.06.5-1.77.81-3.5 1.58-5.27.21-.56.26-.49.49.03.16.35.33.73.49 1.09.09.23.22.49.28.76.05.27.06.54.06.83 0 1.02-.19 2-.42 2.97-.22.97-.49 1.92-.79 2.85-.3.93-.61 1.85-.99 2.73-.39.88-.8 1.75-1.22 2.61-1.02 2.07-1.74 4.35-2.61 6.53-.95 2.4-1.96 4.78-2.95 7.17l-1.82 4.41c-.9 2.23-1.84 4.46-2.65 6.71-.63 1.75-1.15 3.5-1.73 5.24-.13.38-.23.77-.4 1.14-.62 1.38-.97 1.76-1.58 1.87-.14.03-.28.07-.41.07-.41 0-.52-.71-.36-1.83.2-1.68.68-3.3 1.13-4.96.44-1.66 1.04-3.29 1.64-4.91.89-2.42 1.86-4.82 2.79-7.23l.07.02Zm-60.09 64.25c-1.4 5.39-2.55 10.84-3.14 16.34-.2 2-.27 4.01-.28 6-.05 1.76.03 3.51.2 5.23.07.87.24 1.71.36 2.56.22.82.34 1.69.64 2.47l.4 1.2.53 1.15.26.58.32.55.64 1.1c.99 1.38 2.06 2.74 3.39 3.85 2.28 2.06 5.1 3.54 8.01 4.49 1.87.64 3.82 1.04 5.78 1.26 1.96.2 3.94.38 5.94.34 1.25 0 1.17.31.15.92-.26.15-.57.33-.94.51-.37.17-.8.33-1.28.5-.95.4-2.12.57-3.38.52-2.23-.06-4.44-.46-6.59-1.06-2.15-.62-4.21-1.56-6.15-2.71a22.984 22.984 0 0 1-5.29-4.25c-.8-.81-1.46-1.76-2.14-2.68-.59-.99-1.2-1.96-1.62-3.04-1.09-2.53-1.7-5.22-2.06-7.89-.37-2.68-.42-5.37-.32-8.01.12-2.91.44-5.78.89-8.62.43-2.85.98-5.67 1.62-8.46.78-3.44 1.68-6.85 2.65-10.22 1.49-5.11 3.18-10.18 4.96-15.15 1.38-3.87 2.64-7.69 4.19-11.47.33-.83.65-1.66 1.06-2.47.76-1.51 1.33-2.48 1.86-3.09.57-.59 1.01-.86 1.5-.99.22-.06.45-.16.62-.17.28 0 .32.34.22.95-.1.61-.3 1.55-.74 2.66-1.22 3.36-2.46 6.8-3.73 10.29-1.26 3.5-2.44 7.09-3.65 10.67-1.78 5.32-3.45 10.72-4.8 16.17h-.08v-.03Zm177.75-3.401c-1.62-5.81-3.32-11.58-5.21-17.28-.73-2.06-1.49-4.12-2.27-6.16-2.63-7.24-5.69-14.33-9.41-21.07-1.68-2.96-3.6-5.82-5.62-8.52-1.29-1.75-2.73-3.39-4.08-5.09l-1.99-2.6-.98-1.32c-.32-.45-.45-1.08-.75-1.54-.67-1.25-.69-.99.38-.4.5.33 1.59.43 2.44 1.02.45.27.95.56 1.44.91.48.36.97.75 1.44 1.2.41.4.84.79 1.23 1.21l1.11 1.32c.73.89 1.44 1.79 2.14 2.7 1.38 1.83 2.72 3.7 3.93 5.66 2.45 3.9 4.48 8.04 6.31 12.24.53 1.27 1.09 2.53 1.67 3.8.54 1.28 1.09 2.57 1.64 3.86.57 1.28 1.09 2.59 1.6 3.89.51 1.31 1.06 2.6 1.5 3.92 2.1 5.77 3.86 11.63 5.59 17.49l3.06 10.84c1.53 5.47 3.01 10.98 4.69 16.35 1.31 4.17 2.81 8.19 4.37 12.21.34.89.7 1.74 1.03 2.64 1.17 3.34 1.34 4.48.82 5.5-.11.23-.19.51-.31.66-.37.51-1.49-.62-2.64-3-.92-1.74-1.64-3.58-2.38-5.44-.76-1.85-1.41-3.76-2.09-5.67-1.33-3.84-2.53-7.76-3.7-11.7-1.67-5.85-3.34-11.73-5.02-17.6l.08-.03h-.02ZM345.34 91.43c-14.27-.6-28.6-.84-42.92-1.05-5.23-.03-10.45-.06-15.67-.1-18.42-.21-36.84-.39-55.26-.42-8.17 0-16.39.05-24.5.14-10.42.1-20.88.45-31.28.14-3.22-.11-2.83-.5-.1-1.2 1.37-.35 3.32-.71 5.67-1.05 1.18-.16 2.46-.34 3.82-.46 1.36-.1 2.8-.18 4.31-.21 10.65-.24 21.29-.4 31.95-.46 10.66 0 21.35.07 32.08.25 12.83.21 26.19.06 39.32.17 14.44.12 28.88.31 43.33.7 4.45.12 8.89.28 13.35.5 2.23.12 4.45.24 6.71.47l.93.11c.41.06.82.13 1.21.23.38.11.75.23 1.02.48.08.06.09.17.19.21l.05.28.11.57c.06.39.17.74.19 1.16l.03.95.05 1.68c.16 13.49-.04 26.99-.09 40.35-.04 10.38.1 20.56.13 30.83l.03 6.75c-.05 8.45-.31 11.13-1.26 12.94-.21.41-.42.95-.62 1.19-.68.8-1.26-2.65-1.4-8.83-.43-18.35-.38-37.69-.33-57.1.05-7.2.09-14.42.14-21.64 0-1.79 0-3.61-.04-5.38l-.03-1.24v-.06l-.03-.03c-.08-.01.17.02-.43-.06-3.43-.38-7.08-.55-10.66-.7v-.11Zm-175.5 99.281-.06-24.56c-.01-2.99-.11-5.97-.1-8.96.02-10.53.09-21.06.23-31.59.05-4.67.05-9.37.01-14.01l-.03-4.47.1-4.48c.04-1.49.12-2.98.21-4.47l.14-2.23c.07-.74.26-1.49.39-2.23.46-1.85.26-1.6.66-.03.18.79.68 1.91.87 3.26.23 1.35.51 2.93.56 4.64l.21 4.56c.07 1.52.02 3.04.03 4.56 0 3.04-.02 6.08-.03 9.12-.03 6.08-.11 12.18-.29 18.31-.21 7.33.02 14.96.04 22.45l.09 24.74c.03 5.08.05 10.15.08 15.23.06 7.69.06 15.41.18 23.04.08 5.93.32 11.74.46 17.61.03 1.29.09 2.55.1 3.86.02 2.41 0 4.01-.17 5.12-.2 1.12-.45 1.76-.79 2.28-.16.24-.31.55-.46.68-.25.23-.48-.14-.71-1.02-.23-.88-.51-2.25-.58-4.01-.57-10.47-.86-21.51-.99-32.61l-.24-24.77h.08l.01-.02Zm39.35 63.67c-2.53-.1-5.06-.18-7.58-.23-.92-.02-1.84.04-2.77.02-3.26-.09-6.52-.18-9.77-.28-1.45-.03-2.9 0-4.33.05-1.84.06-3.69.07-5.54-.24-.58-.09-.5-.31-.02-.63.24-.16.58-.36.99-.56.41-.21.9-.39 1.43-.45 1.87-.31 3.75-.37 5.63-.41 1.88-.04 3.77-.04 5.67.04 2.27.09 4.63-.06 6.95-.08 2.55-.02 5.11 0 7.66.03l4.72.06c2.38.02 4.77.1 7.14.08 1.84-.02 3.65-.2 5.47-.29.4-.02.8-.07 1.2-.07 1.5-.02 1.97.27 2.26 1.06.07.18.15.37.19.55.12.61-.51 1.1-1.61 1.28-3.24.4-6.63.36-10.04.31-2.54-.06-5.09-.11-7.64-.17v-.07h-.01Zm92.96-.111-10.32-.18c-1.26-.01-2.51.06-3.77.03-4.43-.08-8.86-.21-13.29-.37-1.96-.07-3.94-.04-5.89-.03-1.25 0-2.51 0-3.76-.02-.63-.02-1.25-.04-1.88-.09-.31 0-.63-.07-.94-.13-.31-.07-.63-.1-.94-.2-.78-.33-.67-.31-.01-.72.33-.22.8-.45 1.37-.74.57-.24 1.23-.38 1.95-.44 1.28-.08 2.55-.18 3.83-.23l3.83-.06c2.56-.01 5.12 0 7.69.13 3.08.19 6.28 0 9.43 0l10.4.04 6.41.05c3.23.01 6.48.09 9.69.06 2.5-.02 4.95-.2 7.42-.29.54-.02 1.08-.07 1.63-.07 2.03 0 2.68.22 3.09 1.05.09.19.22.38.27.56.18.63-.66 1.14-2.15 1.3-4.4.45-9.03.54-13.68.52-3.46-.03-6.93-.06-10.39-.08v-.08l.01-.01Z"/><path fill="#2A2B2B" d="M334.54 87.95c2.37.18 4.75.36 7.13.49.87.05 1.74.04 2.6.11 3.06.24 6.12.48 9.18.61 1.36.05 2.73.08 4.07.08 1.73-.05 3.47 0 5.21.45.54.13.47.2.02.46-.3.17-.63.36-.94.54-.39.24-.85.46-1.35.55-3.55.6-7.11.51-10.69.16-2.14-.21-4.37-.11-6.56-.19-2.41-.09-4.82-.28-7.22-.44l-4.44-.32c-2.24-.14-4.49-.36-6.71-.47-1.73-.09-3.43-.04-5.15-.07-.38 0-.75.01-1.13-.01-1.41-.08-1.84-.28-2.1-.93-.06-.15-.14-.3-.17-.44-.1-.49.51-.85 1.54-.94 3.08-.25 6.29-.19 9.51-.08 2.39.08 4.79.28 7.19.39v.07l.01-.02Zm-42.38 68.231 7.93.09c.97.01 1.93-.06 2.9-.04 3.41.06 6.83.18 10.26.32 1.52.07 3.05.05 4.55.13 1.94.11 3.88.34 5.77.89.59.18.49.28-.04.5-.53.23-1.5.59-2.6.71-.98.13-1.96.17-2.93.22-.98.11-1.94 0-2.92-.02-1.95-.06-3.91-.14-5.88-.27-2.36-.14-4.82.05-7.25.09-2.67.05-5.34.05-8.01.04l-4.94-.04c-2.5-.04-5-.09-7.48-.13-1.93 0-3.82.09-5.74.11-.42.01-.84.02-1.26 0-1.57-.09-2.06-.37-2.33-1.07-.06-.16-.15-.32-.18-.48-.1-.53.57-.93 1.71-1.06 3.38-.25 6.9-.16 10.47-.13 2.64.04 5.3.08 7.96.07v.07h.01Zm0 52 7.93.09c.97.01 1.93-.06 2.9-.04 3.41.06 6.83.18 10.26.32 1.52.07 3.05.05 4.55.13 1.94.11 3.88.34 5.77.89.59.18.49.28-.04.5-.53.23-1.5.59-2.6.71-.98.13-1.96.17-2.93.22-.98.11-1.94 0-2.92-.02-1.95-.06-3.91-.14-5.88-.27-2.36-.14-4.82.05-7.25.09-2.67.05-5.34.05-8.01.04l-4.94-.04c-2.5-.04-5-.09-7.48-.13-1.93 0-3.82.09-5.74.11-.42.01-.84.02-1.26 0-1.57-.09-2.06-.37-2.33-1.07-.06-.16-.15-.32-.18-.48-.1-.53.57-.93 1.71-1.06 3.38-.25 6.9-.16 10.47-.13 2.64.04 5.3.08 7.96.07v.07h.01Zm-11.62-34.561c.69.13 1.39.2 2.11.28.26.03.52 0 .79.04.94.13 1.9.23 2.86.28.43.01.86.02 1.28 0 .54-.01 1.09-.04 1.64.12.17.05.15.26.01.51-.14.24-.38.55-.68.63-.53.14-1.06.29-1.59.39-.53.09-1.08.11-1.63.08-.67-.04-1.35.17-2.04.22-.76.09-1.53 0-2.3-.04l-1.42-.15c-.71-.07-1.42-.22-2.12-.27-.55-.02-1.11.03-1.67.04-.12 0-.25.02-.37 0-.45-.06-.55-.26-.49-.95.01-.16.02-.31.04-.47.08-.52.35-.91.68-1.01.99-.28 1.92-.26 2.83-.09.68.09 1.37.23 2.06.29v.06l.01.04Zm0 52c.69.13 1.39.2 2.11.28.26.03.52 0 .79.04.94.13 1.9.23 2.86.28.43.01.86.02 1.28 0 .54-.01 1.09-.04 1.64.12.17.05.15.26.01.51-.14.24-.38.55-.68.63-.53.14-1.06.29-1.59.39-.53.09-1.08.11-1.63.08-.67-.04-1.35.17-2.04.22-.76.09-1.53 0-2.3-.04l-1.42-.15c-.71-.07-1.42-.22-2.12-.27-.55-.02-1.11.03-1.67.04-.12 0-.25.02-.37 0-.45-.06-.55-.26-.49-.95.01-.16.02-.31.04-.47.08-.52.35-.91.68-1.01.99-.28 1.92-.26 2.83-.09.68.09 1.37.23 2.06.29v.06l.01.04ZM43.97 201.1c2.79.05 5.26.06 7.02-1.04 1.83-1.04 3.1-3.15 4.21-5.55 1.12-2.41 2.09-5.13 3.79-7.73 1.79-2.51 3.92-4.68 6.5-6.33 5.16-3.26 11.32-4.35 17.17-3.81.74.05 1.47.16 2.2.29.73.1 1.46.28 2.18.45.73.15 1.44.43 2.16.64.71.3 1.43.52 2.13.92.34.18.74.38 1.02.55l.88.52 1.76 1.01c1.17.66 2.36 1.26 3.55 1.77 1.75.76 3.53 1.32 5.33 1.55 1.75.24 3.53.06 5.35-.39 3.66-.88 7.31-2.72 11.52-3.73 1.84-.45 3.86-.67 5.81-.54 1.95.12 3.87.52 5.7 1.17 3.65 1.29 6.96 3.61 9.31 6.75 1.17 1.57 2.08 3.33 2.68 5.2.59 1.87.85 3.81.86 5.72 0 3.82-.87 7.56-2.46 10.97-.79 1.71-1.76 3.34-2.94 4.83-1.17 1.52-2.63 2.85-4.18 3.9-3.13 2.16-6.6 3.42-9.93 4.69-1.65.64-3.36 1.23-4.85 1.95-1.48.72-2.79 1.65-3.38 2.88-.33.75-.4.95-.21 1.69.18.69.54 1.45.92 2.22.75 1.57 1.71 3.1 2.25 5.12.41 1.6.09 3.36-.87 4.72-.96 1.35-2.28 2.12-3.49 2.78-1.23.65-2.47 1.14-3.56 1.71-.53.28-1.05.58-1.39.9-.23.19-.42.49-.43.81 0 .11.06.22.09.32l.21.49.55 1.28c.37.86.72 1.74 1.05 2.64.64 1.79 1.24 3.63 1.41 5.69.07 1.02.04 2.16-.53 3.31-.28.57-.76 1.1-1.31 1.44-.55.36-1.11.54-1.71.64-1.2.19-2.32-.06-3.28-.42-.97-.36-1.84-.85-2.65-1.37-1.79-1.15-3.36-2.49-4.9-3.8-.77-.66-1.52-1.33-2.29-1.94-.75-.61-1.55-1.23-2.25-1.57-1.42-.62-3.27-.43-4.8.38-1.54.79-2.85 2.14-3.46 3.68-.59 1.54-.58 3.47-.26 5.28.33 1.82.99 3.62 2 5.06.51.73 1.07 1.23 1.86 1.81.76.52 1.54 1 2.37 1.31.83.3 1.69.53 2.59.59.9.08 1.83-.01 2.79-.12 2.41-.36 3.6-.44 3.55-.2-.05.22-1.16.75-3.19 1.56-1.02.39-2.34.8-4 .84-1.67.1-3.58-.46-5.37-1.44-.45-.24-.87-.53-1.32-.81-.24-.19-.47-.38-.71-.57-.23-.2-.43-.42-.64-.64-.81-.89-1.46-1.9-1.97-2.99-1.01-2.18-1.6-4.64-1.49-7.36.06-1.19.27-2.47.79-3.71.52-1.22 1.29-2.28 2.19-3.17 1.8-1.75 4.16-2.96 6.85-3.07 1.35-.03 2.7.2 4.03.94 1.14.68 1.94 1.37 2.76 2.05 1.63 1.35 3.13 2.69 4.69 3.87 1.53 1.17 3.19 2.23 4.57 2.56.69.15 1.15.08 1.46-.11.11-.06.13-.09.2-.23.06-.13.13-.38.16-.7.05-.66-.05-1.52-.26-2.39-.2-.88-.5-1.78-.83-2.68-.33-.9-.71-1.81-1.12-2.72l-.62-1.39-.41-.93c-.23-.46-.28-.95-.34-1.43.07-.99.43-1.96 1.11-2.72.14-.2.34-.38.54-.56.15-.15.3-.24.44-.36.29-.22.58-.4.86-.56 1.11-.63 2.1-1.01 3.03-1.42.92-.4 1.79-.77 2.47-1.23.69-.46 1.19-.95 1.43-1.44.12-.25.22-.5.25-.79.02-.14.03-.32.03-.45-.02-.12 0-.22-.06-.4-.13-.64-.51-1.5-.94-2.37-.44-.88-.94-1.79-1.43-2.8-.44-1.04-1-2.11-1.03-3.87 0-.39.12-1.06.24-1.35.12-.33.24-.66.41-.98.31-.64.73-1.21 1.18-1.71.92-1 1.98-1.7 3.01-2.25 2.11-1.08 4.08-1.65 6.03-2.38 3.88-1.38 7.63-2.88 10.54-5.31.87-.73 1.63-1.51 2.32-2.44.7-.91 1.32-1.9 1.86-2.93 1.08-2.07 1.88-4.33 2.3-6.66.44-2.32.49-4.71.09-6.99-.42-2.25-1.35-4.4-2.78-6.21-2.81-3.67-7.38-5.96-12-6.37-2.32-.23-4.59.18-6.93.86-2.33.7-4.67 1.66-7.16 2.48-2.71.9-5.73 1.61-8.87 1.3-3.05-.31-5.88-1.37-8.47-2.65-1.3-.64-2.55-1.34-3.77-2.06-1.28-.77-2.25-1.34-3.48-1.79-2.42-.89-5.09-1.31-7.73-1.39-5.28-.15-10.68 1.23-14.77 4.49-.99.84-1.98 1.7-2.79 2.73-.91.97-1.56 2.02-2.2 3.2-1.26 2.34-2.17 5-3.59 7.58-.87 1.58-1.99 3.17-3.57 4.35l-.59.44-.64.36c-.42.25-.88.45-1.33.62-.92.34-1.86.54-2.78.65-3.67.41-7.1-.26-9.97.81-2.91 1-5.48 3.3-6.18 6.16-.17.7-.24 1.47-.18 2.19.05.72.24 1.35.58 2.09.33.73.79 1.66.95 2.68.18 1.01.12 2.01-.04 2.93-.45 2.78-1.69 5.24-2.5 7.58-.82 2.39-1.41 4.87-1.7 7.37-.29 2.5-.28 5.04.14 7.5.43 2.45 1.28 4.82 2.59 6.9.3.54.69 1.01 1.07 1.5.18.25.37.49.59.7.2.23.41.45.64.65.88.85 1.88 1.6 2.94 2.32 2.09 1.45 4.43 2.82 6.3 4.93a11.33 11.33 0 0 1 2.17 3.61c.49 1.33.72 2.71.81 4.06.16 2.69-.03 5.25.21 7.73.31 3.84 1.85 7.45 4.26 10.43 1.14 1.53 2.57 2.81 4.04 4.02 1.52 1.15 3.15 2.16 4.87 2.99 1.73.8 3.51 1.51 5.37 1.99.91.29 1.86.44 2.79.66.95.13 1.89.33 2.84.4 1.9.23 3.83.22 5.71.13 1.86-.13 3.73-.52 5.56-1.04 3.21-.95 6.23-2.37 8.95-4.29 2.52-1.79 4.25-3.67 5.41-5.4 1.18-1.72 1.8-3.29 2.23-4.61.79-2.67.94-4.34 1.26-5.73.18-.64.19-1.5.35-1.91.12-.34.3-.29.53.17.12.23.24.55.38.97.12.42.23.95.35 1.57.16 1.24.27 2.89-.06 4.85a16.75 16.75 0 0 1-2.5 6.38c-2.09 3.25-5.07 5.81-8.34 7.72-3.29 1.91-6.86 3.31-10.65 4.05-.95.19-1.91.33-2.89.42-1 .1-1.94.07-2.91.11-1.92-.05-3.85-.15-5.76-.49-3.82-.59-7.58-1.8-11.07-3.65-3.5-1.82-6.67-4.44-9.14-7.65-.63-.8-1.15-1.67-1.7-2.53l-.71-1.35c-.25-.44-.47-.9-.66-1.39-.82-1.91-1.32-3.97-1.54-5.99-.47-4.04.15-7.92-.68-10.83-.37-1.46-1.17-2.69-2.28-3.82-1.12-1.12-2.57-2.1-4.14-3.14-1.16-.78-2.39-1.6-3.58-2.61-.59-.49-1.17-1.04-1.72-1.65-.55-.59-.99-1.23-1.48-1.85-1.79-2.59-2.92-5.56-3.48-8.56-.56-3.01-.54-6.05-.19-9.01.36-2.96 1.08-5.85 2.12-8.62l.76-1.99c.25-.62.48-1.23.66-1.84.37-1.21.66-2.45.63-3.41 0-.49-.1-.87-.25-1.32-.15-.43-.5-1.03-.84-1.85-.33-.81-.61-1.8-.65-2.71-.08-.92-.01-1.76.13-2.67.31-1.78 1.13-3.42 2.18-4.79 1.08-1.36 2.42-2.42 3.86-3.24 1.45-.81 3.01-1.39 4.65-1.67 1.67-.28 3.15-.26 4.58-.25l.03.09v.01Zm89.53 95.85c-.85-.57-2.17-1.02-3.44-1.38-1.3-.36-2.67-.63-4.04-.86-1.01-.16-2.03-.23-3.05-.35-3.6-.46-7.25-.75-10.91-.81-1.62-.02-3.25.05-4.86.16-2.06.14-4.1.48-6.12.53-.62.03-.67-.35-.23-.93.22-.29.57-.62 1.01-.93.45-.3 1-.51 1.61-.62 2.16-.36 4.31-.59 6.47-.69 2.16-.07 4.32-.03 6.49.14 2.59.21 5.29.16 7.95.41 2.92.3 5.84.7 8.77 1.71.9.33 1.81.72 2.7 1.42.74.63 1.37 1.23 2.04 1.87 1.97 1.94 3.74 4.15 5.15 6.57 1.09 1.87 2.11 3.8 2.73 5.93.12.47.28.92.38 1.4.13.9.19 1.5.01 1.92-.18.43-.47.68-.9.88-.2.09-.39.21-.59.26-.33.09-.64-.04-.93-.32-.3-.28-.56-.72-.71-1.27-.93-3.31-2.28-6.4-4.32-9.28a33.05 33.05 0 0 0-3.95-4.55l-.75-.71c-.15-.15-.18-.15-.27-.23-.06-.06-.16-.13-.28-.19l.04-.07v-.01Z"/><path fill="#2A2B2B" d="M164.54 326.11c-3.15-2.5-6.28-5.03-9.57-7.07-1.21-.73-2.49-1.32-3.77-1.9a36.02 36.02 0 0 0-7.06-2.47c-2.45-.56-4.97-.87-7.52-.97-2.26-.1-4.54.06-6.78.29-1.44.15-2.87.4-4.31.62-.72.12-1.44.2-2.17.29l-1.09.14c-.36.04-.74.04-1.11.06-.93.02-.84-.11-.16-.61.67-.55 1.95-1.41 3.61-1.9 2.96-.72 6-1.22 9.09-1.43 3.09-.14 6.22.04 9.29.65 3.65.74 7.49 1.64 10.94 3.36 3.8 1.9 7.1 4.43 10.34 6.9 1.99 1.54 3.95 3.09 5.94 4.58 3.01 2.25 6.09 4.44 9.38 6.13 2.55 1.31 5.22 2.22 7.94 2.78.59.16 1.19.2 1.79.31.56.1 1.01.21 1.4.29.39.07.69.16.95.26.5.22.78.52.99.99.1.21.23.43.28.63.18.7-.84 1.14-2.7 1.11-2.72-.18-5.5-.82-8.15-1.82-2.64-1.04-5.16-2.38-7.55-3.87-3.55-2.23-6.81-4.79-10.03-7.28l.04-.06-.01-.01ZM58.38 382.499c2.5-6.23 5.09-12.43 7.94-18.52 1.03-2.23 1.95-4.5 3.08-6.68 3.81-7.76 8.07-15.31 12.81-22.54 2.05-3.24 4.33-6.35 6.48-9.49 1.48-1.94 2.94-3.92 4.5-5.81.77-.95 1.65-1.82 2.48-2.72.84-.9 1.69-1.77 2.61-2.58 1.14-1.02 1.13-.75.58.49-.51 1.27-1.58 3.44-3.25 5.64-.71 1-1.36 2.05-2.09 3.04l-2.17 2.97c-1.39 2.02-2.72 4.09-4.1 6.11-2.61 4.16-5.27 8.31-7.84 12.56-.8 1.25-1.52 2.57-2.23 3.91-.7 1.34-1.4 2.69-2.11 4.04-1.36 2.73-2.61 5.54-3.95 8.27-2.78 6.09-5.47 12.23-7.96 18.46-1.57 3.82-3.03 7.69-4.48 11.56-1.06 2.94-2.13 5.9-3.2 8.84-1.02 2.96-2.04 5.92-3 8.88-1.48 4.61-2.71 9.19-4.03 13.79-.29 1.01-.54 2.01-.85 3.03-1.13 3.77-1.76 4.89-2.87 5.42-.25.12-.52.3-.75.35-.76.15-.85-1.56-.17-4.37 2.02-8.33 4.68-16.97 7.59-25.57 2.14-6.39 4.5-12.76 6.91-19.09l.08.02-.01-.01ZM243.44 240.02c-1.09 4.08-2.12 8.21-3.18 12.34-.38 1.51-.69 3.03-1.09 4.53-1.44 5.29-2.96 10.57-4.78 15.77-.81 2.3-1.61 4.63-2.53 6.89-.6 1.44-1.18 2.92-2.03 4.28-.81 1.36-1.78 2.69-3.09 3.68-.85.59-.82.34-.46-.43.16-.4.38-.95.58-1.63.22-.66.5-1.39.83-2.18.31-.68.56-1.41.87-2.1.31-.69.59-1.4.88-2.12.56-1.43 1.07-2.89 1.57-4.36.96-2.97 1.93-5.95 2.9-8.94 1.17-3.6 1.96-7.47 2.85-11.24l2.93-12.49.94-3.86.53-2.04c.26-.94.52-1.89.85-2.73.26-.61.55-1.09.87-1.46.16-.19.32-.34.54-.47.09-.09.29-.09.4-.05l.36.15c.97.45 1.82 1.48 2.45 2.66.32.6.57 1.27.78 1.95.1.39.16.56.21.85.05.26.11.52.15.78.18 1.04.27 2.08.3 3.11.09 3.2-.13 6.31-.74 9.41-.14.68-.26 1.36-.46 2.04-.74 2.52-1.46 3.23-2.48 3.31-.24.02-.49.06-.69.03-.68-.15-.7-1.21-.29-2.87a51.9 51.9 0 0 0 1.3-7.79c.22-2.64.25-5.37-.35-7.68-.03-.1 0-.03 0-.07 0-.01-.01-.06-.03-.06-.01 0-.03.01-.06.04l-.73 2.78h-.08l-.02-.03Z"/><path fill="#2A2B2B" d="M256.87 258.881a6.12 6.12 0 0 0-.42-.68c-.11-.16-.33-.35-.56-.54-.45-.38-1-.68-1.57-.96-.44-.17-.89-.3-1.36-.43-1.62-.55-3.42-.75-5.21-.83-.8-.02-1.6.07-2.38.21-.5.09-.98.24-1.48.34-.5.08-1.01.15-1.51.25-.32.05-.38-.13-.24-.49s.49-.95 1.07-1.33c.5-.33 1.08-.44 1.63-.62.56-.16 1.12-.27 1.68-.36 1.13-.17 2.29-.23 3.43-.03 1.36.22 2.79.27 4.18.68 1.52.47 2.99 1.15 4.23 2.45.69.82 1.14 1.7 1.5 2.61.54 1.38.75 2.84.87 4.27.08 1.11.19 2.23.11 3.38-.03.25-.03.5-.08.75-.18.92-.53 1.13-1.3 1.05-.18-.02-.35-.02-.52-.06-.55-.12-.95-.62-.95-1.21-.03-1.74.11-3.35-.11-5-.16-1.2-.49-2.43-1.06-3.42l.05-.04v.01Z"/><path fill="#2A2B2B" d="M256.82 265.189c-.22-.49-.47-.97-.8-1.36-.28-.36-.66-.65-1.17-.96-.37-.22-.8-.33-1.21-.52-1.48-.64-3.17-1.06-4.88-1.19-.76-.05-1.53-.02-2.28.04l-1.46.16c-.49.04-.97.11-1.52 0-.36-.14-.32-.13-.14-.47.09-.18.23-.4.4-.67.18-.25.43-.44.71-.56 1.01-.48 2.1-.74 3.2-.89 1.11-.07 2.23.02 3.32.25 1.3.29 2.69.38 4.04.84.73.27 1.47.58 2.16 1.09.73.53 1.27 1.17 1.73 1.82.56.83.94 1.72 1.24 2.62.46 1.36.6 2.77.7 4.14.08 1.07.26 2.14.24 3.23 0 .24.02.48-.02.72-.15.88-.48 1.1-1.33 1.05-.2-.01-.39-.01-.58-.04-.64-.1-1.08-.56-1.17-1.14-.19-.87-.17-1.67-.22-2.47-.04-.8-.07-1.6-.16-2.38-.14-1.16-.37-2.3-.86-3.27l.07-.04h-.01Z"/><path fill="#2A2B2B" d="M251.53 272.421c.73 0 1.1.14 1.52.26.4.13.73.28 1.07.44l.49.25c.2.1.48.27.71.41.24.15.47.32.64.53.09.1.12.24.27.3l.18.36c.21.57.31 1.64.28 1.43v.24c.01.17.07.37.23.49.1.11.24.1.33.01.09-.08.14-.19.21-.28.06-.08.1-.18.14-.28.02-.06.04-.11.06-.18 0-.05.02-.04.03-.13l.03-.28c.06-.75.04-1.52-.07-2.27-.24-1.53-.92-2.89-2.08-3.99-.51-.49-1.11-.91-1.74-1.28-.64-.35-1.31-.66-1.98-.94-1.78-.61-3.59-1.16-5.56-1.54-.64-.39-.55-.08-.04-.43.51-.33 1.54-.88 2.83-1 .56-.02 1.15-.09 1.7 0 .56.09 1.11.2 1.66.35.55.15 1.1.31 1.63.54.52.24 1.04.5 1.53.81.99.61 1.94 1.36 2.74 2.31.82.94 1.43 2.1 1.76 3.26.4 1.4.63 2.83.57 4.28-.01.2 0 .32-.04.6-.03.26-.05.52-.1.78-.08.53-.23 1.02-.39 1.49-.35.92-.86 1.67-1.53 2.12-.32.22-.69.37-1.11.42-.42.06-.82-.07-1.2-.19-.96-.44-1.71-1.18-2.1-2.25-.42-.97-.48-2.77-.5-2.67 0-.16-.16-.21-.26-.29-.07-.05-.08-.06-.21-.13l-.37-.2c-.33-.17-.68-.31-.97-.39-.13-.04-.27-.03-.25-.07 0-.12-.06-.27-.09-.35 0-.06-.03-.12-.08-.17-.04-.04 0 0 0-.01l.51.26v.01c-.04.02-.07.39-.02.78l.13 1.27c.14 1.35.07 2.78-.21 4.13-.14.67-.32 1.34-.54 1.98-.21.62-.45 1.33-.84 1.95-.57.99-1.37 1.82-2.2 2.48-.83.67-1.68 1.21-2.41 1.76-.32.24-.6.5-.87.76-.5.47-.75.79-1.03.97-.31.16-.56.24-.95.24-.17 0-.36.03-.51.02-.27-.03-.42-.23-.46-.62-.05-.39.06-.99.47-1.58 1.23-1.82 3.1-2.82 4.24-3.83.59-.51 1.01-1.01 1.31-1.57.16-.28.26-.57.38-.92.12-.4.24-.79.32-1.18.29-1.18.37-2.32.36-3.51-.01-.61-.08-1.2-.15-1.98-.03-.39-.09-.84.03-1.58l.05-.27c.03-.11.07-.22.11-.33.04-.11.09-.21.14-.32.11-.19.25-.39.41-.56.17-.18.33-.3.49-.39.17-.1.35-.19.53-.25.24-.07.56-.13.76-.13v.07l.01-.02ZM228.84 286.8c2.47.65 4.67 1.69 6.79 2.84.78.42 1.57.81 2.31 1.29 1.28.9 2.56 1.81 3.66 2.97 1.1 1.13 2.15 2.44 2.8 4 .56 1.36.76 2.83.77 4.21 0 .89-.04 1.76-.15 2.61-.15.85-.42 1.67-.66 2.49-.17.51-.32.42-.55-.05-.21-.47-.6-1.35-.75-2.31-.03-1.69-.1-3.28-.53-4.64-.37-1.39-1.04-2.51-2.09-3.73-1.25-1.43-3.04-2.54-4.78-3.57-1.92-1.14-3.97-2.15-6.08-2.85-1.29-.44-2.65-.77-3.87-.76-.44.02-.83.08-1.27.24-.44.18-.88.4-1.32.67-.87.53-1.72 1.17-2.51 1.86-1.23 1.08-2.25 2.36-3.3 3.61-.23.28-.43.57-.67.84-.86 1.02-1.3 1.19-2.07.91-.17-.06-.36-.11-.52-.19-.52-.26-.56-1.04 0-1.93 1.66-2.61 3.83-4.98 6.59-7.02.52-.37 1.08-.73 1.69-1.05.31-.16.65-.32.99-.46.39-.13.74-.28 1.19-.34 1.74-.28 3.04 0 4.3.29v.07h.03Z"/><path fill="#2A2B2B" d="M220.43 362.779c3.39-4.44 6.47-9.15 9.2-14.03 2.75-4.88 5.08-9.99 6.92-15.26.74-1.9 1.2-3.89 1.76-5.84.3-.97.43-1.98.66-2.97.19-.99.45-1.99.6-2.96.57-3.42.55-6.92-.25-10.24-.79-3.32-2.39-6.44-4.62-9.04-2.2-2.58-5.15-4.5-8.42-5.36-3.25-.89-6.87-.71-10.05.38-2.77 1.07-5.28 3.12-7.52 5.33-2.25 2.24-4.3 4.71-6.25 7.23-2.5 3.25-4.81 6.68-7.11 10.12-1.16 1.72-2.27 3.46-3.47 5.16l-1.81 2.54c-.62.84-1.29 1.64-1.95 2.45-1.74 1.96-1.55 1.65-.76-.44.77-2.11 2.07-6.03 4.66-10.08 2.25-3.61 4.56-7.2 7.09-10.69 2.52-3.49 5.27-6.88 8.59-9.88 1.66-1.49 3.46-2.91 5.6-4.01.52-.29 1.09-.52 1.65-.76.57-.2 1.2-.43 1.76-.55.57-.14 1.14-.28 1.72-.36.58-.11 1.16-.18 1.75-.22 4.69-.45 9.55.92 13.31 3.71 1.14.82 2.16 1.78 3.12 2.8.93 1.06 1.78 2.13 2.53 3.3 1.51 2.32 2.66 4.92 3.33 7.63.69 2.71.92 5.52.77 8.28-.06 1.38-.24 2.76-.48 4.09-.28 1.31-.55 2.62-.83 3.93-1.39 5.7-3.42 11.2-5.86 16.48-2.43 5.29-5.32 10.35-8.55 15.18-3.95 5.95-8.42 11.56-13.53 16.6-.94.98-2.01 1.84-3.01 2.77-.52.44-1.08.85-1.62 1.28l-.81.63c-.28.2-.58.38-.87.58-2.31 1.59-4.9 2.69-7.54 3.5-5.3 1.59-10.85 1.9-16.24 1.45a56.19 56.19 0 0 1-12.29-2.41c-3.96-1.27-7.77-2.88-11.48-4.68-1.63-.8-3.23-1.57-4.84-2.45-5.93-3.28-7.61-4.64-8.38-6.15-.18-.34-.44-.74-.5-1-.21-.9 2.44.02 6.76 2.33 6.41 3.36 13.06 6.73 20.04 8.93 6.93 2.13 14.5 2.93 21.67 1.77 2.65-.45 5.24-1.19 7.64-2.28.62-.25 1.17-.59 1.76-.88.58-.31 1.1-.7 1.65-1.04.55-.32 1.07-.78 1.61-1.19.53-.42 1.08-.81 1.58-1.29 4.13-3.64 7.87-7.92 11.26-12.4l.08.04-.03-.03ZM385.31 188.76c-5.61-.05-11.39 1.87-15.69 5.54-1.55 1.36-2.79 3-3.78 4.75-.48.76-.77 1.59-1.12 2.4-.23.85-.53 1.69-.62 2.58-.29 1.75-.26 3.56.14 5.28.77 3.48 3.3 6.42 6.42 8.5 2.79 1.85 6.06 3.04 9.36 3.77 4.25 1.01 8.62 1.11 13.02 1.15 1.41.12 1.23.03.13.63-1.08.62-3.28 1.59-5.98 1.69-2.38.04-4.75-.16-7.11-.55-2.35-.42-4.66-1.13-6.9-2.06-2.23-.94-4.38-2.18-6.32-3.77-1.9-1.62-3.6-3.62-4.63-5.99-2.6-5.67-1.54-12.68 2.16-17.55 1.99-2.7 4.64-4.79 7.49-6.36 2.87-1.57 5.99-2.61 9.19-3.11 1.97-.25 4-.41 5.95-.25.98.02 1.96.13 2.93.26.98.09 1.94.29 2.9.47 5.83 1.14 11.34 3.65 16.15 7 3.75 2.59 7.1 5.67 9.88 9.29.58.82 1.24 1.57 1.76 2.44 2.02 3.19 2.06 4.52 1.59 5.58-.11.25-.2.54-.34.71-.24.29-.65.16-1.18-.31-.55-.46-1.18-1.26-1.86-2.33-4.05-6.36-9.74-11.99-16.76-15.5-5.15-2.65-10.99-4.12-16.78-4.18v-.09.01Z"/><path fill="#2A2B2B" d="M483.1 268.649c-3.21-7.37-7.09-14.51-11.3-21.43-1.54-2.53-3.22-4.97-4.84-7.45-2.88-4.36-5.76-8.73-8.96-12.79-3.21-4.07-6.67-7.96-10.56-11.34-1.73-1.49-3.55-2.87-5.48-4.03-.96-.58-1.96-1.1-2.96-1.52l-.75-.3-.77-.23c-.51-.17-1.04-.26-1.56-.37-1.36-.23-2.75-.28-4.12-.19-1.38.12-2.74.39-4.06.8-.65.24-1.31.46-1.92.77-.65.24-1.25.6-1.87.92-.59.36-1.19.73-1.74 1.17-.58.39-1.22.76-1.77 1.23-1.33 1.22-1.3 1.02-.67-.52.36-.72.72-2 1.72-3.12.5-.55 1.04-1.17 1.73-1.7a8.55 8.55 0 0 1 2.33-1.44c1.55-.71 3.2-1.15 4.88-1.43.84-.15 1.7-.19 2.55-.24.86.03 1.71.05 2.57.18 1.7.24 3.39.66 4.98 1.39 1.54.7 2.95 1.5 4.29 2.4 5.34 3.61 9.68 8.16 13.62 12.97 2.34 2.89 4.66 5.9 6.86 8.98 2.21 3.06 4.39 6.18 6.43 9.34 4.49 6.96 8.67 14.14 12.31 21.61 2.25 4.59 4.24 9.33 5.89 14.19 1.23 3.69 2.23 7.49 2.78 11.39.55 3.89.58 7.92-.36 11.82-.14.77-.43 1.5-.68 2.24-.22.75-.6 1.44-.94 2.15-.31.73-.78 1.36-1.21 2.02-.39.65-.97 1.33-1.59 1.89-2.51 2.25-5.69 3.19-8.82 3.53-1.39.08-2.77.16-4.18-.07-1.31-.16-2.37-.47-3.21-.83-.86-.32-1.5-.73-2.01-1.06-.48-.4-.83-.74-1.09-1.06-.25-.33-.4-.66-.51-.97-.1-.29-.25-.61-.26-.82 0-.73 1.8.15 4.9.83 1.15.27 2.33.4 3.51.48 1.19 0 2.38-.01 3.54-.23 2.31-.38 4.57-1.33 6-2.71.15-.18.31-.36.47-.53l.48-.73.49-.72c.16-.24.27-.52.4-.78.26-.53.55-1.04.71-1.62.18-.57.44-1.11.54-1.71.6-2.34.79-4.88.61-7.46-.19-3.83-1.08-7.72-2.21-11.54-1.15-3.83-2.61-7.6-4.25-11.3l.08-.05-.02-.01Z"/><path fill="#2A2B2B" d="M464.41 317.36a17.647 17.647 0 0 1-5.31 3.41c-.7.29-1.39.62-2.13.81-2.61.65-5.34.66-7.85.05-1.11-.29-2.21-.61-3.25-1.04-.67-.28-1.33-.56-1.96-.94-.6-.42-1.13-.92-1.59-1.49-.23-.43-.14-.43.34-.48.47-.03 1.29-.11 2.05 0 1.23.43 2.44.77 3.68.97.61.12 1.24.16 1.85.27.61.13 1.24.21 1.87.29 1.53.18 3.1-.31 4.56-.83 1.62-.58 3.17-1.42 4.52-2.53.84-.67 1.59-1.45 2.24-2.33.99-1.31 1.82-2.82 2.36-4.42.43-1.25.53-2.57.71-3.87.05-.28.06-.57.13-.86.06-.26.12-.48.2-.66.09-.17.22-.3.33-.41.25-.21.54-.29.94-.33.18-.02.36-.05.53-.05.54 0 .99.55 1.18 1.45.04.64.06 1.29.02 1.95-.07.65-.18 1.3-.33 1.95-.3 1.3-.76 2.62-1.36 3.89-.88 1.9-2.14 3.71-3.68 5.25l-.06-.06.01.01Zm-118.89-31.909c-1.48-2.56-2.82-5.22-3.64-8.07l-.34-1.06c-.1-.36-.17-.72-.25-1.08l-.48-2.16c-.17-1.47-.44-2.93-.45-4.39l-.08-1.6c-.03-.53 0-1.06 0-1.59 0-1.06.02-2.13.16-3.18a50.44 50.44 0 0 1 2.36-10.86c1.14-3.51 2.63-6.88 4.32-10.12 1.52-2.86 3.1-5.72 4.86-8.4 1.16-1.7 2.28-3.44 3.62-5.02.64-.81 1.35-1.57 2.03-2.34.33-.39.71-.75 1.1-1.09l1.14-1.05c.96-.85.89-.69.42.33-.48 1-1.13 3.01-2.37 4.96-1.03 1.79-2.13 3.51-3.17 5.26-1.01 1.77-2.04 3.53-3.03 5.3-1.98 3.56-3.68 7.25-5.25 11.03-1.85 4.53-2.85 9.59-3.03 14.53-.18 2.73.06 5.45.49 8.11.49 2.67 1.38 5.25 2.5 7.73 1.46 3.02 3.37 5.83 5.62 8.36 3.45 3.78 7.68 6.92 12.28 9.19 1.76.94 3.65 1.58 5.49 2.26.93.31 1.89.55 2.83.83l1.42.41c.47.13.96.22 1.44.33.85.19 1.68.34 2.53.54 1.58.36 2.64.53 3.35.83.71.29 1.1.61 1.39 1.06.13.2.31.41.38.6.23.62-1.19.91-3.65.65l-1.37-.15-1.37-.25-2.76-.54c-.93-.17-1.83-.49-2.75-.73-.91-.28-1.85-.5-2.75-.85-3.65-1.28-7.21-3.03-10.56-5.15-4.94-3.22-9.27-7.52-12.49-12.56l.06-.05v-.02Zm10.97 76.148c2.38-3.81 4.82-7.57 7.36-11.28.91-1.36 1.78-2.75 2.74-4.08 1.68-2.35 3.44-4.65 5.28-6.91l1.43-1.67c.49-.55 1.04-1.09 1.56-1.63 1.07-1 2.16-1.95 3.27-2.89 1.99-1.66 4.04-3.29 6.25-4.67a27.35 27.35 0 0 1 4.49-2.26c1.58-.58 3.27-.87 4.95-.89 1.04-.01.9.04.13.52-.38.23-.91.61-1.5 1.12-.61.46-1.31.95-2.06 1.43-1.39.72-2.74 1.52-4.04 2.38-1.33.81-2.62 1.72-3.88 2.69-1.26.97-2.49 2-3.71 3.08-.61.53-1.23 1.08-1.82 1.63-.54.56-1.12 1.03-1.66 1.66-2.64 2.85-4.92 6.34-7.21 9.68-2.52 3.69-5.01 7.41-7.36 11.22-1.46 2.34-2.9 4.69-4.27 7.08-2.11 3.6-4.12 7.28-5.93 11-.68 1.46-1.29 2.92-1.89 4.39-.54 1.48-1.1 2.96-1.62 4.44-.23.65-.43 1.3-.67 1.95-.86 2.42-1.38 3.09-2.23 3.44-.2.08-.4.2-.57.23-.57.11-.73-1.04-.46-3.05.29-1.45.71-2.87 1.11-4.33.5-1.4 1.04-2.81 1.61-4.22.6-1.38 1.22-2.77 1.87-4.15.68-1.36 1.36-2.73 2.05-4.09 2.12-4.01 4.38-7.96 6.73-11.83l.07.04-.02-.03Zm-21.24-2.329c-3.61.13-7.22.16-10.85.04-1.32-.04-2.65-.02-3.98-.13-1.07-.07-2.14-.16-3.23-.32-.27-.04-.54-.08-.82-.13l-.46-.09c-.21-.03-.42-.09-.63-.15-.41-.12-.84-.22-1.18-.42-.17-.09-.36-.17-.52-.27l-.45-.33c-.64-.55-1.03-1.51-.8-2.36.22-.82.85-1.5 1.67-2.03.39-.27.87-.5 1.28-.7.31-.14.62-.27.93-.38.62-.24 1.24-.43 1.86-.62 2.01-.61 4.03-1.1 6.03-1.54 2.57-.54 5.14-1.25 7.84-.83.83.08.73.21.1.63-.32.18-.74.71-1.28.97-.54.32-1.17.66-1.88.89-2.54.61-5.09 1.22-7.56 1.93-1.25.32-2.47.68-3.64 1.08-.29.1-.58.21-.85.32-.12.05-.32.14-.33.13h-.09c-.13.04-.31.09-.47.22-.18.14-.12.38.03.49.15.1.34.16.54.21l.37.07c.14.03.29.06.45.07.3.04.6.09.92.12 1.24.15 2.51.22 3.78.25 3.54.12 7.12.06 10.7-.07 2.2-.08 4.41-.19 6.61-.36 3.33-.26 6.68-.55 9.95-1.08 2.54-.42 4.99-1.07 7.39-1.79l.2-.06.05-.02s.06.23.03.12v.04l.01.06c.01.09.04.17.07.25.03.08.08.17.13.24 0 .04.03.07.05.1.02.03.09.07.09.07h-.02c-.03-.02-.34-.03-.7.11-.07.04-.16.08-.28.12h-.02s0-.02-.03-.05c-.14-.2-.4-.48-.6-.68-.2-.21-.38-.39-.49-.58-.22-.4-.31-.73-.36-1.16-.02-.19-.09-.39-.1-.56-.02-.29.22-.48.74-.53.51-.04 1.3.04 2.07.58.29.19.59.4.88.67.29.28.6.57.89 1.19.07.21.14.36.18.62.02.15.02.31.02.47 0 .15-.02.31-.09.51-.06.19-.15.38-.25.55-.1.17-.21.27-.34.4-.13.12-.27.23-.4.32l-.3.15c-.54.22-.52.18-.7.25l-.43.13c-1.16.35-2.34.64-3.53.9-2.38.51-4.81.87-7.25 1.16-3.62.43-7.26.68-10.9.88v-.08l-.05.01ZM184.09 95.46c.69.99.63 1.94.37 2.75-.11.3-.2.62-.44.89-.4.48-1.06.76-1.63.75-.58 0-1.07-.23-1.4-.54-.3-.27-.55-.55-.73-.89-.25-.4-.4-1.01-.07-1.46.1-.14.39.03.69.19.3.18.67.26.74.28.1.06.23.11.33.16.12.03.14.1.15.22 0 .07.05.08.04.06 0-.01-.02-.03.01-.07.08-.08.12-.36.08-.49-.02-.08-.02-.13-.06-.15 0-.04-.19-.06-.3.16-.03.08-.02.19.05.27.02.04.08.07.11.09.02 0 .07.01.05.01h-.1c-.06 0-.11 0-.13.01-.08.02-.05.01-.05.02 0 0 .03-.02.01 0-.11.08-.25.19-.41.33-.15.13-.28.27-.42.41-.44.48-1.03.72-1.44.28-.3-.31-.47-.72-.54-1.14-.05-.4-.01-.8.11-1.14.24-.7.7-1.27 1.4-1.67.51-.29 1.23-.47 1.93-.34.69.12 1.28.5 1.68.98l-.05.05.02-.02Zm164.28 2.9a.873.873 0 0 0-.16-.32c-.06-.07-.06-.05.03 0 .06.04.17.07.26.08.09.01.14 0 .18 0 .02 0-.02.02.02-.01.14-.1.15-.33.04-.5-.1-.16-.28-.23-.46-.27-.23-.03-.46-.02-.76.05-.1.02-.2-.06-.27-.25-.07-.18-.09-.56.13-.79.75-.79 2.26-1.03 3.2.09.53.63.86 1.63.65 2.45-.22.89-.87 1.51-1.68 1.84-.49.2-1.11.25-1.66.1-.87-.23-1.38-.9-1.73-1.48-.26-.47-.66-.96-.72-1.7-.01-.16-.05-.33 0-.5.15-.63.57-.7 1.41-.15.19.12.38.25.56.39.31.24.57.48.8.65.04.03 0 0 .05.03.07.05.33.07.44.05.12-.03.03-.03-.11.1-.1.08-.18.22-.19.27 0 .02 0 .01-.02-.11l-.01-.02Zm-222.4 132.03c.43-.91.95-1.76 1.57-2.55l-.25.33c.5-.64 1.04-1.23 1.64-1.77.63-.57.63-1.72 0-2.3-.67-.62-1.63-.61-2.3 0a15.19 15.19 0 0 0-3.46 4.65c-.19.4-.29.81-.16 1.25.1.38.4.79.75.97.38.2.83.3 1.25.16.38-.12.79-.37.97-.75l-.01.01Z"/><path fill="#2A2B2B" d="M355.32 236.211c.62-1.44 1.35-2.56 2.19-3.74.31-.42.56-.89.94-1.29.19-.21.4-.41.62-.61.29-.27.64-.54.98-.73.68-.41 1.53-.56 2.23-.24 1.15.65 1.47.98 2.1 1.37.62.41 1.28.73 1.95 1.01.87.36 1.69.64 2.29 1.65.22.25.15.41-.21.68-.18.15-.42.27-.79.6-.34.23-.68.34-1.01.36-.29-.01-.53-.1-.8-.15l-.39-.09-.35-.17c-.46-.23-.9-.48-1.33-.74-.43-.26-.85-.55-1.25-.85l-.6-.46c-.13-.1-.13-.12-.14-.15l-.05-.11-.02-.03c-.32-.35-.51 0-1.32.91-.77.9-1.5 1.96-2.09 3.04-.18.33-.34.67-.46.97l-.07.19-.02.05c-.07-.05-.53.02-.61 0-.06 0-.19.08-.19.06-.01 0-.03.01-.04.03v.02l.07-.12v-.16c0-.13-.04-.21-.11-.4l-.04-.1h.02c.11-.04.35-.21.54-.39.2-.18.4-.4.59-.61.38-.44.74-.91 1.06-1.41.49-.78.81-1.65 1.13-2.49.07-.19.11-.38.19-.56.26-.68.59-.76 1.27-.66.15.02.3.03.43.06.42.08.81.59.74 1.24-.34 1.84-1.24 3.48-2.38 5.04-.45.59-.89 1.12-1.61 1.76-.19.16-.41.34-.81.54-.22.09-.48.23-1.04.24-.15 0-.26 0-.43-.05-.17-.04-.34-.1-.5-.18l-.12-.06s-.13-.09-.19-.14c-.13-.1-.26-.23-.37-.37-.1-.12-.21-.32-.24-.4-.03-.07-.05-.14-.08-.22a2.56 2.56 0 0 1-.09-.45v-.44l.02-.14c.02-.2.05-.33.08-.46.06-.25.13-.45.2-.65l.07.02.04-.02Zm20.65-8.591c-1.49-3.19-4.08-5.89-7.19-7.53-.75-.4-1.8-.22-2.22.58-.4.75-.22 1.8.58 2.22.7.37 1.37.8 2.01 1.28.3.23-.28-.23.01.01.07.06.14.11.21.17l.45.39c.3.27.58.54.86.83.28.29.54.59.79.9.03.04.24.29.07.09-.17-.2.04.05.07.09.13.17.25.35.38.53.45.66.84 1.35 1.17 2.07.36.77 1.53 1.03 2.22.58.8-.51.97-1.4.58-2.22l.01.01ZM309.8 385.09c-.19.07-.4 0-.54-.05-.26-.1-.4-.01-.56-.19 0 0-.02-.08-.06-.22-.01-.04-.01-.08-.04-.13 0-.04.01-.09.02-.14 0-.1.02-.21.06-.34.06-.26.13-.58.29-.94.13-.37.42-.73.77-1.09.35-.36.8-.68 1.32-.93s1.09-.4 1.68-.5c.59-.07 1.2-.11 1.8-.05.6.05 1.2.15 1.79.3.59.13 1.15.36 1.71.58a15.203 15.203 0 0 1 4.23 2.72c.75.69 1.37 1.4 1.77 2.04.42.63.68 1.15.86 1.38.16.16.1.42.07.64-.03.2-.42.37-.9.48-.7.16-1.31.17-1.96.24-.89 0-1.25.06-1.36-.04-.1-.09.03-.3-.03-.67-.17-.73-.33-.67-.6-.79-.13-.06.19-.26-.18-.24-.07 0-.31-.37-.6-.75s-.61-.77-.63-.85c0-.03-.02-.05-.06-.03-.52.33-.26-.46-.61-.58-.23-.1-.64-.26-1-.41-.37-.15-.68-.25-.68-.25-.21-.04-.29-.39-.53-.34-.13-.24-.39-.07-.51-.33-.04-.08-.12-.04-.17-.07-.06-.03-.13-.19-.21-.15-.05.03-.08.04-.1-.03-.02-.06-.04-.12-.08-.1-.09.07-.34.08-.41-.09-.05-.12-.11-.2-.19-.21-.16.46-.28.26-.42.25-.02 0-.04-.11-.05-.18-.12-.52-.16.31-.46 0-.04-.04-.09-.17-.14-.07 0 .02-.04-.07-.07-.13-.06.23-.14.28-.24.27-.07 0-.12.06-.18.08-.16.06-.3-.43-.4-.12-.06.26-.43-.03-.42.2 0 .03-.04.01-.07-.02-.12-.11-.2-.1-.23-.03s-.1.09-.06.24c-.1.04-.07.21-.26.14-.06-.02-.09 0-.12.04-.06.05-.19.06-.11.22.01.02-.01.04-.04.03-.2-.07-.18.04-.25.09-.07.04-.16.17-.14.26.02.09-.4.51-.44.65-.06.05-.14.11-.24.19l-.02.02Zm65.17 31.011c.1-.11.44-.07.62-.06.33.03.54-.04.72.06a8.086 8.086 0 0 0 .67 1.82c.12.26.3.52.45.79.14.28.3.57.49.85s.41.55.6.84c.2.29.42.57.67.82.96 1.04 2.33 1.7 3.45 1.91.56.12 1.06.1 1.44.09.19 0 .35-.06.47-.03.13 0 .22 0 .28-.03.09-.09.19.18.3.35.09.17.17.53.22.91.07.53.04.95.02 1.49-.13.74-.23 1.3-.43 1.43-.19.08-.47.06-.97-.09-.96-.26-.96-.17-1.34-.06-.17.04-.04-.34-.38-.08-.06.05-.62-.11-1.14-.36-.52-.24-1-.57-1.04-.65-.01-.03-.04-.04-.07-.01-.51.44-.41-.44-.78-.54-.25-.07-.73-.28-1.13-.5-.4-.23-.73-.46-.73-.46-.23-.12-.18-.52-.46-.58-.04-.29-.39-.28-.38-.6 0-.09-.1-.11-.13-.17-.03-.07 0-.26-.11-.27-.06 0-.1-.02-.08-.09.02-.06.05-.14 0-.14-.14 0-.38-.19-.3-.38.06-.13.09-.25.03-.32-.55.22-.5-.04-.57-.19-.01-.02.09-.11.15-.18.48-.46-.45.05-.25-.49.03-.07.14-.19.01-.18-.03 0 .06-.08.11-.14-.29.04-.37-.06-.4-.18-.02-.08-.12-.13-.16-.21-.11-.22.47-.44.08-.54-.31-.1.04-.54-.2-.59-.03 0 0-.06.04-.09.17-.13.17-.21.12-.29-.05-.07-.03-.17-.2-.2 0-.13-.15-.24.04-.42.06-.05.05-.11.05-.16-.02-.1.1-.23-.07-.3-.02-.01-.02-.05.01-.07.21-.11.09-.19.12-.28.03-.09.02-.27-.04-.34-.08-.09.11-.72.13-.85 0-.06.02-.14.03-.25l.04.01Zm7.69-40.35c.13-.02.36.14.48.24.22.18.42.19.48.39 0 0-.09.25-.35.66-.26.4-.71.96-1.42 1.44-.73.44-1.67.79-2.75.92-.53.05-1.13.09-1.69-.02-.56-.1-1.11-.26-1.65-.45-1.07-.4-2.04-.96-2.89-1.55-.43-.29-.81-.62-1.17-.93-.36-.31-.7-.62-1.02-.93-.32-.31-.61-.62-.87-.92-.25-.31-.46-.62-.64-.89s-.32-.52-.44-.72c-.08-.22-.11-.4-.16-.5-.06-.16-.04-.36 0-.55.04-.17.29-.34.6-.46.45-.18.85-.21 1.29-.3.64-.04.95-.08 1.11 0 .18.07.25.21.35.56.29.65.45.56.72.66.12.04-.17.25.2.21.07 0 .34.32.64.67.3.35.62.71.63.79 0 .02.02.05.06.02.55-.32.24.43.56.56.2.09.58.28.9.43.32.15.59.27.59.27.18.04.2.4.42.35.08.23.34.07.41.33.02.08.1.04.14.07.04.03.08.2.17.15.04-.03.08-.04.09.03 0 .06.02.13.06.1.09-.07.31-.1.35.08.03.13.07.22.15.23.19-.51.27-.31.38-.27.02 0 .02.13.03.21.06.59.16-.35.39.06.03.05.07.19.12.09 0-.02.03.09.06.15.07-.24.15-.28.24-.25.06.02.12-.05.18-.06.16-.02.24.51.38.2.1-.23.42.12.47-.09 0-.03.04 0 .07.04.1.14.18.14.23.09.05-.06.13-.05.13-.2.11-.01.14-.18.32-.04.06.04.1.03.14.02.07-.03.21.03.21-.13 0-.02.03-.03.05 0 .16.14.18.02.26 0 .08 0 .2-.1.23-.17.03-.08.53-.29.62-.38l.15-.15-.01-.06Zm33.43-14.391c-.16.08-.62.07-.87.05-.46-.03-.74.06-1-.06l-.19-.68a4.27 4.27 0 0 1-.15-.83c-.02-.17-.03-.35.01-.52.03-.18.05-.37.12-.56.13-.38.22-.83.44-1.23.2-.42.47-.84.8-1.23.3-.42.68-.77 1.06-1.14.4-.34.82-.69 1.26-.97.45-.29.91-.57 1.4-.77.48-.24.98-.37 1.46-.54.49-.12.98-.26 1.45-.33.48-.07.93-.15 1.38-.15.44-.03.86-.05 1.24-.02.39 0 .74.04 1.04.12.3.07.57.12.78.16.21.05.37.09.48.09.17 0 .31.12.43.24.11.11.01.52-.17.98-.28.69-.6 1.22-.91 1.8-.49.75-.66 1.04-.8 1.09-.13.05-.22-.16-.52-.27-.56-.24-.61-.07-.84.08-.1.07-.04-.35-.23-.02-.03.05-.38.05-.74-.02-.36-.02-.74-.07-.8-.13-.02-.02-.04-.02-.04.03-.04.72-.39-.14-.64.03-.15.11-.44.32-.69.48-.24.18-.44.34-.44.34-.11.12-.41-.15-.46.08-.23-.11-.2.23-.46.08-.08-.04-.08.04-.13.06-.05.01-.21-.08-.2.02 0 .06 0 .09-.06.05-.05-.04-.13-.08-.12-.04.03.13-.07.31-.25.2-.13-.08-.23-.11-.27-.06.37.55.15.45.07.52-.01.01-.13-.08-.2-.14-.58-.42.24.4-.23.28-.06-.02-.22-.11-.13.02.02.02-.1-.05-.17-.08.21.26.21.35.15.4-.04.03 0 .13-.02.18-.04.14-.66-.27-.39.09.24.29-.4.14-.18.36.03.03-.03.02-.09 0-.23-.06-.28-.02-.25.06.03.07-.04.11.15.24-.06.07.1.22-.2.2-.09 0-.11.03-.12.06 0 .07-.19.1.04.23.03.02.01.04-.03.04-.31-.03-.18.08-.27.12-.08.05-.14.17-.07.24.07.07-.33.48-.37.59-.02.05-.05.11-.08.19l.02-.01Zm25.33 80.23c-.12.08-.58.17-.83.21-.45.06-.73.22-.98.14 0 0-.06-.249-.14-.709-.06-.24 0-.501 0-.821 0-.33.1-.65.19-1.03.09-.39.32-.699.51-1.089.22-.35.48-.71.76-1.06.3-.32.61-.691.97-.981.35-.32.74-.61 1.15-.88.39-.29.86-.489 1.29-.729.48-.17.92-.401 1.43-.511l.74-.179c.25-.05.51-.061.76-.081.5-.07 1-.02 1.48.03.48 0 .91.221 1.32.331.42.11.73.329 1.04.479.29.17.6.271.75.431.18.14.32.239.43.289.16.08.26.23.27.44.02.18-.28.53-.68.87-.58.51-1.13.841-1.7 1.271-1.69 1.12-1.23.809-1.45.369-.2-.42-.31-.31-.51-.17-.08.06.09-.339-.14-.039-.04.05-.21-.06-.44-.19-.2-.18-.52-.23-.55-.31-.01-.02-.03-.031-.03.009-.08.62-.3-.23-.52-.1-.07.04-.17.081-.28.121-.11.06-.24.129-.36.179-.24.1-.44.22-.44.22-.11.1-.37-.14-.45.05-.22-.12-.21.19-.45.07-.07-.03-.08.04-.13.05-.05 0-.2-.08-.2.01 0 .05-.01.08-.07.04-.05-.03-.11-.069-.11-.029.01.11-.1.28-.25.19-.11-.06-.2-.091-.26-.051.26.46.05.37-.04.44-.01.01-.1-.069-.16-.109-.46-.34.17.36-.26.25-.06-.01-.18-.091-.13.019 0 .02-.08-.04-.14-.07.13.22.1.29.04.34-.04.03-.02.12-.05.16-.07.13-.52-.22-.38.09.11.24-.34.16-.2.35.02.02-.03.02-.07.01-.18-.05-.22 0-.21.06 0 .07-.05.1.08.22-.05.07.07.2-.17.18-.07 0-.09.03-.1.06-.02.06-.18.08-.03.19.02.02 0 .03-.04.03-.26-.02-.14.071-.19.111-.04.04-.06.149 0 .209.05.03-.02.131-.05.231-.02.1-.06.199-.06.239 0 .04 0 .08.01.14l.03.01Zm-357.9-83.75c1.77 0 1.77-2.75 0-2.75s-1.77 2.75 0 2.75Z"/><path fill="#F58A07" d="M97.04 356.45c0 3.93-3.19 7.12-7.12 7.12-6.95 0-9.71-9.39-3.81-13.13 4.67-2.96 10.93.5 10.93 6.01Z" opacity=".2"/><path fill="#2A2B2B" d="M86.61 353.211c1.77 0 1.77-2.75 0-2.75s-1.77 2.75 0 2.75Zm5.4 1.279c1.77 0 1.77-2.75 0-2.75s-1.77 2.75 0 2.75Zm-5.23 1.969v.26c0 .19.03.37.12.53.06.17.15.32.28.44.12.13.27.23.44.28.16.09.34.13.53.12l.37-.05c.23-.07.44-.18.61-.35l.22-.28c.12-.21.19-.45.19-.69v-.26c0-.19-.03-.37-.12-.53-.06-.17-.15-.32-.28-.44a.979.979 0 0 0-.44-.28.964.964 0 0 0-.53-.12l-.37.05c-.23.07-.44.18-.61.35l-.22.28c-.12.21-.19.45-.19.69Zm-.17 5.752c1.77 0 1.77-2.75 0-2.75s-1.77 2.75 0 2.75Zm5.66-1.031c1.77 0 1.77-2.75 0-2.75s-1.77 2.75 0 2.75Z"/><path fill="#F58A07" d="M153.35 342.621c0 4.27-3.46 7.72-7.72 7.72-7.54 0-10.54-10.19-4.14-14.25 5.07-3.21 11.86.54 11.86 6.52v.01Z" opacity=".2"/><path fill="#2A2B2B" d="M143.63 339.939c1.77 0 1.77-2.75 0-2.75s-1.77 2.75 0 2.75Zm4.49 1.071c1.77 0 1.77-2.75 0-2.75s-1.77 2.75 0 2.75Zm-7.06 2.779c1.77 0 1.77-2.75 0-2.75s-1.77 2.75 0 2.75Zm2.48-1.369v.21c0 .19.03.37.12.53.06.17.15.32.28.44.12.13.27.23.44.28.16.09.34.13.53.12l.37-.05c.23-.07.44-.18.61-.35l.22-.28c.12-.21.19-.45.19-.69v-.21c0-.19-.03-.37-.12-.53-.06-.17-.15-.32-.28-.44a.979.979 0 0 0-.44-.28.964.964 0 0 0-.53-.12l-.37.05c-.23.07-.44.18-.61.35l-.22.28c-.12.21-.19.45-.19.69Zm.09 5.01c1.77 0 1.77-2.75 0-2.75s-1.77 2.75 0 2.75Zm4.71-.86c1.77 0 1.77-2.75 0-2.75s-1.77 2.75 0 2.75Z"/><path fill="#F58A07" d="M97.31 405.939c0 3.42-2.77 6.19-6.19 6.19-6.04 0-8.44-8.16-3.32-11.41 4.06-2.57 9.5.43 9.5 5.23l.01-.01Z" opacity=".2"/><path fill="#2A2B2B" d="M88.66 402.87c1.83 0 1.84-2.85 0-2.85s-1.84 2.85 0 2.85Zm5.07 1.201c1.83 0 1.84-2.85 0-2.85s-1.84 2.85 0 2.85Zm-7.96 3.138c1.83 0 1.84-2.85 0-2.85s-1.84 2.85 0 2.85Zm2.92-1.43v.24c0 .2.03.38.12.55.06.18.16.33.29.46.13.14.28.24.46.29.17.09.35.13.55.12l.38-.05c.24-.07.45-.19.63-.37l.22-.29c.13-.22.19-.46.19-.72v-.24c0-.2-.03-.38-.12-.55-.06-.18-.16-.33-.29-.46a.978.978 0 0 0-.46-.29c-.17-.09-.35-.13-.55-.12l-.38.05c-.24.07-.45.19-.63.37l-.22.29c-.13.22-.19.46-.19.72Zm-.03 5.532c1.83 0 1.84-2.85 0-2.85s-1.84 2.85 0 2.85Zm5.31-.961c1.83 0 1.84-2.85 0-2.85s-1.84 2.85 0 2.85Z"/><path fill="#F58A07" d="M155.01 423.45a6.6 6.6 0 0 1-6.6 6.6c-6.45 0-9.01-8.71-3.54-12.18 4.33-2.75 10.14.46 10.14 5.57v.01Z" opacity=".2"/><path fill="#2A2B2B" d="M146.62 420.051c1.77 0 1.77-2.75 0-2.75s-1.77 2.75 0 2.75Zm4.73 1.969c1.77 0 1.77-2.75 0-2.75s-1.77 2.75 0 2.75Zm-7.54 2.509c1.77 0 1.77-2.75 0-2.75s-1.77 2.75 0 2.75Zm3.27-1.368v.3c0 .19.03.37.12.53.06.17.15.32.28.44.12.13.27.23.44.28.16.09.34.13.53.12l.37-.05c.23-.07.44-.18.61-.35l.22-.28c.12-.21.19-.45.19-.69v-.3c0-.19-.03-.37-.12-.53-.06-.17-.15-.32-.28-.44a.979.979 0 0 0-.44-.28.964.964 0 0 0-.53-.12l-.37.05c-.23.07-.44.18-.61.35l-.22.28c-.12.21-.19.45-.19.69Zm-.46 6.56c1.77 0 1.77-2.75 0-2.75s-1.77 2.75 0 2.75Zm5.84-2.631c1.77 0 1.77-2.75 0-2.75s-1.77 2.75 0 2.75Z"/><path fill="#F58A07" d="M211.09 356.8a6.21 6.21 0 0 1-6.21 6.21c-6.06 0-8.47-8.19-3.33-11.45 4.07-2.58 9.54.44 9.54 5.24Z" opacity=".2"/><path fill="#2A2B2B" d="M202.69 353.52c1.45 0 1.45-2.25 0-2.25s-1.45 2.25 0 2.25Zm3.96.941c1.45 0 1.45-2.25 0-2.25s-1.45 2.25 0 2.25Zm-6.22 2.449c1.45 0 1.45-2.25 0-2.25s-1.45 2.25 0 2.25Zm2.27-1.12v.19c0 .15.03.3.1.43.05.14.12.26.23.36.1.11.22.19.36.23.13.07.28.1.43.1l.3-.04c.19-.05.36-.15.5-.29l.18-.23c.1-.18.15-.36.15-.57v-.19c0-.15-.03-.3-.1-.43a.857.857 0 0 0-.23-.36.77.77 0 0 0-.36-.23.907.907 0 0 0-.43-.1l-.3.04c-.19.05-.36.15-.5.29l-.18.23c-.1.18-.15.36-.15.57Zm-.01 4.319c1.45 0 1.45-2.25 0-2.25s-1.45 2.25 0 2.25Zm4.14-.75c1.45 0 1.45-2.25 0-2.25s-1.45 2.25 0 2.25ZM368.21 85.36c.13.24-.14.45-.63.64-.16.06-.63.07-.7 0a3.48 3.48 0 0 1-.37-.42c-.06-.08-.38-1.5-.49-2-.12-.48-.14-.95-.14-1.43 0-.96.01-1.94.09-2.9.02-.22.06-.43.15-.63.28-.7.39-1.42.48-2.16.01-.12.06-.24-.03-.38-.16-.24.3-2.21.46-2.43.39-.56.71-1.13 1.08-1.67.05-.08.04-.19.2-.21.38-.06.39-.26.49-.44.14-.24.29-.47.52-.67.14-.09.38-.12.58-.18.18-.05.54.18.57.24.09.17.32.16.49.23.06.02.13.05.18.08.15.09.49 1.8.39 1.91 0 0-.05.14-.1.34s-.12.46-.19.73c-.13.54-.26 1.11-.26 1.23 0 .13-.12.22-.21.33-.05.05-.29 1.7-.31 1.76-.13.32-.1.68-.46.96-.07.05-.07.13-.09.19-.11.58-.35 1.14-.53 1.72-.1.29-.11.6-.17.9-.01.05-.06.1-.08.16-.03.07-.07.13-.08.2-.09.72-.31 1.44-.28 2.17 0 .17-.31.96-.28 1.16 0 .11-.35.47-.29.57h.01Zm4.68 8.19c-.26.02-.36-.28-.36-.74 0-.15.16-.53.24-.57.16-.07.33-.13.48-.17.09-.01 1.38.15 1.83.14.43.01.84.08 1.25.17.82.17 1.66.31 2.48.43.18.03.36.09.53.17.58.29 1.21.41 1.85.44.11 0 .21.04.34-.06.21-.14 1.91 0 2.12.11.51.29 1.03.51 1.56.76.07.04.17 0 .22.15.12.36.3.32.47.37.23.06.47.14.69.28.11.07.21.28.31.46.09.16-.02.69-.07.74-.13.15-.07.42-.08.64 0 .08-.01.17-.02.23-.02.14-1.57.84-1.73.8-.02 0-.56-.03-1.14-.05-.57-.03-1.17-.08-1.29-.09-.13 0-.24-.11-.35-.19-.06-.02-1.76-.24-1.82-.28-.33-.13-.7-.14-.97-.5-.05-.07-.13-.08-.19-.09-.59-.15-1.14-.44-1.69-.7-.28-.13-.58-.21-.87-.32-.05-.02-.09-.07-.14-.1-.06-.04-.12-.1-.18-.12-.69-.24-1.33-.62-2.03-.82-.16-.05-.82-.58-1-.63-.1-.03-.32-.46-.42-.45l-.02-.01Zm-144.765 16.325c-.25.233-.467.4-.65.5a.587.587 0 0 1-.55.025 2.493 2.493 0 0 1-.35-.2c-.067-.05-.2-.208-.4-.475-.183-.283-.3-.458-.35-.525-.85-1.05-1.95-1.575-3.3-1.575-1.333 0-2.592.433-3.775 1.3-1.167.85-2.108 1.975-2.825 3.375-.717 1.4-1.075 2.858-1.075 4.375 0 1.867.617 3.392 1.85 4.575 1.25 1.183 2.9 1.775 4.95 1.775 2.067 0 3.875-.575 5.425-1.725.25-.183.517-.45.8-.8.3-.35.55-.6.75-.75.217-.15.417-.217.6-.2.2.017.475.075.825.175-.717 1.4-1.917 2.492-3.6 3.275-1.667.767-3.558 1.15-5.675 1.15s-3.908-.592-5.375-1.775c-1.467-1.183-2.2-2.9-2.2-5.15 0-1.4.233-2.75.7-4.05.467-1.317 1.108-2.475 1.925-3.475a9.088 9.088 0 0 1 3.1-2.425c1.25-.6 2.6-.9 4.05-.9 2.583 0 4.3 1.167 5.15 3.5Zm11.707 6.925-.125 2.875c0 1.45.167 2.425.5 2.925.2.333.475.5.825.5.1 0 .242-.025.425-.075.35-.1.642-.05.875.15-.117.583-.7.875-1.75.875-.717 0-1.192-.3-1.425-.9-.183-.45-.317-1.008-.4-1.675a22.11 22.11 0 0 0-.2-1.4c-1.083 2.067-2.133 3.325-3.15 3.775-.517.233-1.117.35-1.8.35s-1.217-.325-1.6-.975c-.367-.667-.55-1.633-.55-2.9s.208-2.592.625-3.975c.417-1.4 1.025-2.575 1.825-3.525.8-.967 1.675-1.45 2.625-1.45 1.367 0 2.275.567 2.725 1.7.383.967.575 2.208.575 3.725Zm-6.125-.8a23.71 23.71 0 0 0-.525 2.575c-.117.8-.175 1.517-.175 2.15 0 .617.125 1.15.375 1.6.267.45.608.675 1.025.675.9 0 1.767-.85 2.6-2.55.833-1.7 1.25-3.283 1.25-4.75 0-.95-.25-1.733-.75-2.35-.333-.4-.775-.6-1.325-.6-.533 0-1.025.317-1.475.95-.433.617-.767 1.383-1 2.3Zm11.906 5.55.075 1.425c0 .367-.109.625-.326.775a1.11 1.11 0 0 1-.624.2c-.2 0-.409-.033-.625-.1-.367-1.933-.65-4.342-.85-7.225a464.188 464.188 0 0 0-.325-4.9c.25-.233.508-.35.775-.35.283 0 .533.033.75.1.066.483.116 1.55.15 3.2.033 1.65.075 2.683.125 3.1.233-1.4.65-2.708 1.25-3.925.333-.683.766-1.225 1.3-1.625.55-.417 1.133-.625 1.749-.625.634 0 1.209.283 1.726.85.533.55.8 1.05.8 1.5 0 .167-.1.3-.3.4-.2.083-.425.125-.675.125a.643.643 0 0 1-.55-.275 1.621 1.621 0 0 1-.275-.6 1.336 1.336 0 0 0-.325-.625c-.167-.183-.392-.275-.675-.275-.75 0-1.392.675-1.925 2.025-.817 2.017-1.225 4.292-1.225 6.825Zm8.37-2.625c-.033.333-.05.558-.05.675 0 1 .3 1.775.9 2.325.617.55 1.342.825 2.175.825.834 0 1.509-.117 2.025-.35.534-.233.917-.483 1.15-.75.6-.75 1.15-1.125 1.65-1.125.184 0 .4.05.65.15-.166.817-.8 1.567-1.9 2.25-1.083.667-2.45 1-4.1 1-1.166 0-2.175-.367-3.025-1.1-.833-.75-1.25-1.767-1.25-3.05s.25-2.525.75-3.725a8.623 8.623 0 0 1 2.2-3.1c.967-.867 1.942-1.3 2.925-1.3 1 0 1.8.208 2.4.625.617.4.925.992.925 1.775 0 1.45-.65 2.65-1.95 3.6-1.283.933-2.65 1.4-4.1 1.4-.383 0-.841-.042-1.375-.125Zm1.9-.825c.784 0 1.484-.25 2.1-.75.617-.5 1.05-1.025 1.3-1.575.267-.55.4-1.05.4-1.5 0-.45-.175-.842-.525-1.175-.35-.35-.758-.525-1.225-.525-.833 0-1.608.575-2.325 1.725-.7 1.15-1.2 2.342-1.5 3.575.734.15 1.325.225 1.775.225Zm15.731 5.125c.05 1.35.217 3.258.5 5.725a1.534 1.534 0 0 1-1.125.475 1.65 1.65 0 0 1-.275-.025c-.016-.65-.141-2.125-.375-4.425-.216-2.3-.325-4.058-.325-5.275 0-1.233.075-2.3.225-3.2a9.7 9.7 0 0 1 .775-2.525c.75-1.617 2.134-2.425 4.15-2.425 1.25 0 2.275.683 3.075 2.05.8 1.367 1.2 2.958 1.2 4.775 0 1.433-.466 2.692-1.4 3.775-.933 1.083-2.225 1.625-3.875 1.625-1.016 0-1.866-.183-2.55-.55Zm3.35-10.325c-1.416 0-2.358.733-2.825 2.2-.4 1.25-.6 2.975-.6 5.175 0 .8.009 1.392.025 1.775 1.484.317 2.492.475 3.025.475.967 0 1.734-.383 2.3-1.15.567-.783.85-1.733.85-2.85 0-1.65-.25-3-.75-4.05-.483-1.05-1.158-1.575-2.025-1.575Zm7.793-3.85c0-1.65-.225-2.758-.675-3.325.217-.317.592-.475 1.125-.475.1 0 .208.008.325.025.417.417.625 1.625.625 3.625 0 1.083-.05 2.342-.15 3.775-.2 2.5-.3 4.333-.3 5.5 0 3.15.608 4.725 1.825 4.725l.925-.175c.15 0 .275.067.375.2-.05.6-.542.9-1.475.9-.917 0-1.625-.275-2.125-.825-.5-.567-.817-1.267-.95-2.1-.117-.85-.175-1.55-.175-2.1s.008-1.15.025-1.8c.017-.667.092-1.617.225-2.85.267-2.5.4-4.2.4-5.1Zm13.032 7.75-.125 2.875c0 1.45.167 2.425.5 2.925.2.333.475.5.825.5.1 0 .242-.025.425-.075.35-.1.642-.05.875.15-.117.583-.7.875-1.75.875-.717 0-1.192-.3-1.425-.9-.183-.45-.317-1.008-.4-1.675a22.11 22.11 0 0 0-.2-1.4c-1.083 2.067-2.133 3.325-3.15 3.775-.517.233-1.117.35-1.8.35s-1.217-.325-1.6-.975c-.367-.667-.55-1.633-.55-2.9s.208-2.592.625-3.975c.417-1.4 1.025-2.575 1.825-3.525.8-.967 1.675-1.45 2.625-1.45 1.367 0 2.275.567 2.725 1.7.383.967.575 2.208.575 3.725Zm-6.125-.8a23.71 23.71 0 0 0-.525 2.575c-.117.8-.175 1.517-.175 2.15 0 .617.125 1.15.375 1.6.267.45.608.675 1.025.675.9 0 1.767-.85 2.6-2.55.833-1.7 1.25-3.283 1.25-4.75 0-.95-.25-1.733-.75-2.35-.333-.4-.775-.6-1.325-.6-.533 0-1.025.317-1.475.95-.433.617-.767 1.383-1 2.3Zm19.731 7.3c-.3.317-.642.475-1.025.475-.717 0-1.25-.383-1.6-1.15-.35-.767-.559-1.7-.625-2.8-.05-1.1-.084-2.2-.1-3.3-.017-1.1-.109-2.033-.275-2.8-.15-.767-.442-1.15-.875-1.15-.584 0-1.084.525-1.5 1.575-.4 1.05-.684 2.217-.85 3.5-.467 3.583-.917 5.592-1.35 6.025-.3.15-.559.225-.775.225-.217 0-.4-.025-.55-.075-.35-1.533-.575-4.175-.675-7.925-.034-1.867-.067-3.075-.1-3.625.35-.233.65-.35.9-.35s.45.025.6.075c.083.717.125 2.183.125 4.4.016 2.217.033 3.492.05 3.825.083-.35.183-.917.3-1.7.133-.783.25-1.425.35-1.925.1-.517.258-1.117.475-1.8.216-.683.458-1.225.725-1.625a3.312 3.312 0 0 1 1.1-1.05c.466-.3.991-.45 1.575-.45.783 0 1.35.358 1.7 1.075.366.7.566 1.575.6 2.625.033 1.05.05 2.117.05 3.2.016 1.083.15 2.075.4 2.975.266.9.716 1.483 1.35 1.75Z"/><path fill="#2A2B2B" fill-rule="evenodd" d="m250.111 168.485.073-3.364c.004-.409-.039-.816-.029-1.226.025-1.445.065-2.892.05-4.335.002-.642-.071-1.281-.101-1.915-.058-.811-.151-1.625-.076-2.441.025-.255.287-.259.579-.077.29.181.628.553.71 1.022.319 1.66.373 3.334.294 5.032-.051 1.014.083 2.057.116 3.089.032 1.135.052 2.271.05 3.408l-.008 2.099c.003 1.059-.025 2.124.003 3.178.026.819.139 1.624.19 2.451.01.183.037.362.038.547-.042.688-.201.908-.635.992-.1.02-.2.05-.298.054-.328.016-.585-.286-.68-.748-.267-1.391-.282-2.881-.307-4.387l-.011-3.375.042-.004ZM232.788 147c-2.128.112-4.265.24-6.406.403-.78.059-1.557.167-2.34.221-2.76.194-5.534.332-8.316.352-1.233.011-2.474.036-3.703.017a31.574 31.574 0 0 1-2.376-.102 12.054 12.054 0 0 1-2.342-.52c-.477-.16-.355-.338.094-.49a7.878 7.878 0 0 1 2.091-.343c3.089.164 6.239-.026 9.428-.125 1.912-.052 3.892-.331 5.846-.525 2.151-.206 4.31-.406 6.476-.56 1.332-.096 2.669-.165 4.005-.232 2.025-.094 4.065-.102 6.083-.091 1.569-.007 3.117-.018 4.685.061.345.028.685.036 1.031.079 1.285.168 1.668.404 1.842.916.041.119.099.241.112.356.042.384-.523.597-1.428.555-2.694-.092-5.504-.2-8.366-.172-2.122.026-4.266.1-6.41.244l-.006-.044Z" clip-rule="evenodd"/><path fill="#2A2B2B" fill-rule="evenodd" d="M242.747 159.876a95.793 95.793 0 0 0-4.988 6.688c-.575.842-1.074 1.731-1.635 2.582l-1.658 2.561-.814 1.293-1.232 2.053c-.341.471-.707.73-.999.873-.068.029-.146.107-.269.058a1.155 1.155 0 0 1-.264-.122 2.699 2.699 0 0 1-.51-.385c-.354-.323-.684-.885-.993-1.417-.154-.268-.31-.535-.453-.805l-.318-.596a39.69 39.69 0 0 0-2.508-4.05 31.626 31.626 0 0 0-1.829-2.353c-.639-.73-1.3-1.451-2.018-1.924-.421-.247-.352-.667.375-.853.719-.176 2.023.151 2.958 1.046 1.665 1.568 2.916 3.342 4.058 5.154.285.453.563.908.833 1.365l.4.686c.047.078.03.058.034.072l.003.023.008.054c.014.078.038.182.084.318.017.045.065.195.096.151a.534.534 0 0 0 .166-.106c.05-.041.101-.101.154-.167l.08-.105.226-.376.936-1.592c.623-1.068 1.246-2.146 1.913-3.183a108.963 108.963 0 0 1 4.928-7.058 92.073 92.073 0 0 1 3.331-4.131c1.742-2.043 3.647-3.966 5.641-5.77 1.563-1.388 3.131-2.774 5.038-3.836a7.964 7.964 0 0 1 1.298-.634c1.723-.637 2.419-.442 2.857.208.102.151.226.297.286.453.102.264-.006.536-.251.783-.247.249-.63.445-1.122.694-2.896 1.378-5.683 3.608-8.288 6.191a67.72 67.72 0 0 0-5.5 6.194l-.054-.037Z" clip-rule="evenodd"/><path fill="#2A2B2B" fill-rule="evenodd" d="M220.944 186.967c-3.73-.017-7.517-.17-11.212-1.407a8.968 8.968 0 0 1-1.97-.901l-.47-.3c-.095-.043-.201-.162-.302-.272a1.087 1.087 0 0 1-.245-.337c-.231-.432-.303-.778-.403-1.144-.504-2.489-.593-4.873-.755-7.292l-.371-7.214a164.772 164.772 0 0 0-.44-6.377c-.246-2.707-.577-5.402-.764-8.106-.064-.843.136-.769.497-.1.184.333.4.819.63 1.414.212.597.391 1.31.512 2.092.762 5.555.967 11.124 1.151 16.718.056 1.671.167 3.374.335 5.07.088.846.189 1.693.328 2.517.072.408.148.821.257 1.191.047.192.114.36.174.504.038.054.05.125.079.136.023.027.029.049.119.099 1.408.954 3.158 1.569 4.955 1.864 1.795.325 3.636.47 5.48.533 2.272.07 4.556.014 6.834-.121 3.452-.199 6.917-.548 10.327-1.005 2.653-.357 5.234-.829 7.85-1.26.578-.094 1.143-.188 1.724-.284 2.163-.339 2.914-.164 3.397.101.111.069.252.136.311.204.1.115-.074.221-.443.325-.38.116-.971.271-1.749.435-4.633.828-9.581 1.663-14.584 2.209-3.717.416-7.473.701-11.247.741l-.005-.033Z" clip-rule="evenodd"/></svg>