<svg xmlns="http://www.w3.org/2000/svg" width="520" height="488" fill="none"><path fill="#F58A07" d="M323.819 350.21s-7.82-1.83-11.07 1.18-11.02 9.66-12.42 10.15c-1.4.49-10.47 2.33-10.47 2.33l22.22 5.79 11.74.93v-20.38Zm-49.99 18.97s-5.21-4.08-9.5-7.91-16.95-18.85-21.32-18.85c-4.37 0-21.22 1.68-25.97 5.4-4.76 3.72-7.52 4.6-5.22 5.37 2.3.76 15.95-5.08 18.9-4.23 2.94.84 5.21 3.72 3.66 4.13-1.55.41-17 4.87-20.12 9.47-3.11 4.6-7.46 7.34-4.76 8.67 2.7 1.34 14.36-6.78 14.32-6.75-.04.03-12.6 9.92-12.3 12.07.3 2.15.68 4.62 5.51 2.35s6.78-5.79 6.78-5.79-8.76 7.94-6.78 9.22c1.98 1.28 9.78-3.34 10.98-4.52 1.2-1.18 9.8-4.84 11.17-4.69 1.37.15 8.7 4.44 12.24 5.38 3.54.94 11.9 1.78 11.9 1.78l3.24 5.06 7.28-16.15-.01-.01Z" opacity=".18"/><path fill="#F58A07" d="M284.31 143.57s-29.7.93-42.02 30.82l-1.36 3.58s-1.77-9.96-6.49-7.32c-4.72 2.64-8.65 8.15-5.2 14.06s10.32 12.53 10.32 12.53-3.08 12.35-1.03 19.07c2.05 6.72 11.67 20.42 21.72 21.39 10.05.97 16.89-2.47 24.05-13.88s12.66-22.58 13.64-28.91c.98-6.33 2.13-22.53.71-28.48-2.9-12.09-14.35-22.86-14.35-22.86h.01Z" opacity=".15"/><path fill="#231123" d="M325.34 343.86s-5 4.73-4.45 5.09c.55.36 3.59 1.98 3.68 0 .09-1.98.77-5.09.77-5.09Z"/><path fill="#231123" d="M323.061 358.05c-.16 1.16-.26 2.33-.37 3.51-.04.43 0 .86-.04 1.29-.11 1.51-.19 3.04-.14 4.56.01.68.06 1.35.12 2.02.04.43.13.85.14 1.29 0 .44-.02.88-.05 1.32-.03.28-.14.26-.36.07-.21-.2-.61-.56-.86-1.04-.62-1.73-.85-3.56-.69-5.39.07-1.09-.04-2.22-.02-3.34.01-.61.06-1.22.09-1.83l.19-1.83c.09-.75.19-1.49.3-2.24.18-1.12.36-2.25.54-3.36.13-.87.19-1.73.35-2.59.03-.19.05-.38.1-.56.16-.7.4-.87.78-.93.09-.01.18-.04.26-.04.27 0 .45.34.5.88-.01.77-.02 1.56-.07 2.35-.06.78-.19 1.56-.29 2.35-.16 1.17-.33 2.34-.44 3.52h-.05l.01-.01Zm-24.562 59.72c2.09.6 4.21 1.14 6.35 1.54.78.17 1.58.23 2.36.36 2.77.46 5.57.84 8.4.99 1.25.06 2.51.12 3.76.13.8-.01 1.6-.02 2.41.05.8.03 1.61.1 2.42.17.5.05.44.17.03.37-.42.19-1.18.56-2.11.76-1.65.38-3.31.39-4.98.45-.83.03-1.67-.07-2.5-.14-.83-.06-1.67-.16-2.5-.29-1.99-.27-4.07-.41-6.1-.73-1.12-.16-2.22-.4-3.33-.6-1.1-.26-2.2-.48-3.29-.77l-2.01-.54-1.99-.6c-1-.3-1.99-.66-2.99-1-.98-.37-1.96-.73-2.94-1.09-1.5-.59-3.04-1.03-4.49-1.71-.33-.14-.64-.27-.96-.44-1.16-.64-1.44-1.01-1.53-1.44-.02-.1-.06-.21-.06-.29 0-.28.59-.26 1.54-.05 2.76.73 5.45 1.88 8.24 2.81 1.02.38 2.08.68 3.11 1.05 1.05.32 2.09.66 3.15.94v.05l.01.02Zm-64.278 7.06 1.51-.41c.5-.16.99-.31 1.5-.46 1.01-.28 1.99-.63 2.99-.96.73-.24 1.41-.59 2.13-.85 2.53-.95 5.02-2.02 7.46-3.22 1.09-.52 2.13-1.13 3.17-1.73.65-.41 1.31-.81 2.01-1.15.68-.37 1.37-.72 2.07-1.06.44-.21.44-.09.18.26s-.73 1-1.41 1.61c-1.18 1.1-2.57 1.89-3.92 2.73-1.37.81-2.77 1.6-4.25 2.22-.88.39-1.76.82-2.65 1.24-.88.44-1.78.86-2.68 1.25-1.99.85-4.02 1.59-6.09 2.24-1.29.36-2.56.74-3.86 1.04-1.96.5-3.96.82-5.94 1.17-1.54.22-3.05.58-4.61.68-.34.02-.68.08-1.02.06-1.29-.04-1.69-.2-1.94-.71-.06-.12-.13-.23-.16-.34-.1-.38.42-.7 1.31-.85 2.64-.56 5.36-.79 8.11-1.34 2.03-.42 4.08-.85 6.09-1.46l.02.05-.02-.01Zm34.281-45.4c.46-.9.86-1.82 1.27-2.75.14-.34.25-.7.38-1.04.51-1.21.96-2.45 1.43-3.7.2-.55.35-1.13.5-1.69.16-.73.42-1.45.73-2.14.1-.22.17-.17.26.05.08.22.22.63.23 1.08.02.79-.17 1.54-.29 2.31-.15.76-.31 1.52-.59 2.26-.34.88-.53 1.83-.84 2.75-.34 1-.73 1.99-1.18 2.95-.26.6-.57 1.18-.85 1.76-.45.88-.94 1.74-1.4 2.6-.34.68-.68 1.34-1.04 2-.08.14-.16.29-.25.43-.36.5-.58.59-.94.5-.08-.02-.17-.03-.25-.06-.25-.1-.3-.44-.18-.88.43-1.28.92-2.55 1.6-3.72.48-.88.94-1.78 1.37-2.7l.04.02v-.03Z"/><path fill="#231123" d="M305.488 367s16.92 1.32 18.33 3.58c1.41 2.26 1.52 3.33 1.52 3.33l-19.19-6.09-.66-.82Zm-88.989 10.8s-3.66 4.44-2.38 8.79c.44 1.5 4.75-4.04 4.75-4.04l-2.38-4.75h.01Zm-3.851-6.14s-1.43 2.4-1.12 4.89c.31 2.49 5.51-5.44 5.51-5.44l-2.13-1.93-2.27 2.48h.01Zm46.742 9.27s-7.37 14.58-4.96 15.07c5.79 1.18 12.12-8.83 12.12-8.83v-1.84l-3.24-5.06-3.93.66h.01Zm26.34-65.7c0-.06.01-.11.02-.17l-.07.5c.05-.37.15-.72.29-1.06l-.19.45c.15-.34.33-.66.56-.95l-.29.38c.12-.16.25-.3.4-.44.34-.33.55-.85.55-1.33 0-.26-.04-.5-.16-.72-.08-.23-.2-.43-.39-.6-.36-.33-.83-.57-1.33-.55-.5.02-.96.19-1.33.55-.29.28-.53.6-.77.92-.15.21-.29.44-.4.68-.17.36-.33.74-.44 1.12-.11.38-.16.82-.2 1.23 0 .26.04.5.16.72.08.23.2.43.39.6.17.18.37.31.6.39.22.12.46.17.72.16.48-.02.99-.18 1.33-.55l.29-.38c.17-.29.25-.61.26-.95Zm1.969 16.95v-.06c-.01.17-.04.33-.06.5.07-.54.22-1.07.43-1.58l-.19.45c.22-.51.49-.98.83-1.41l-.29.38c.2-.26.42-.49.66-.72.34-.32.55-.86.55-1.33 0-.47-.2-1.01-.55-1.33-.35-.32-.83-.57-1.33-.55-.5.02-.95.2-1.33.55-.64.6-1.2 1.34-1.6 2.12-.23.45-.43.92-.58 1.41-.16.51-.23 1.04-.29 1.57-.06.44.25 1.03.55 1.33.33.33.86.57 1.33.55.47-.02.99-.18 1.33-.55l.29-.38c.17-.29.25-.61.26-.95h-.01Zm-17.589-36.05c-1.64-.38-3.23-.88-4.8-1.44-.58-.18-1.16-.36-1.71-.61-1.96-.85-3.85-1.83-5.67-2.91-.82-.46-1.61-.98-2.41-1.44-.5-.33-1.02-.61-1.49-.99s-.91-.79-1.34-1.2c-.27-.26-.15-.33.21-.31.36.03 1.01.09 1.64.34 2.19.97 4.26 2.01 6.34 3.17 1.24.7 2.67 1.12 4.04 1.58.75.28 1.51.5 2.27.76.77.21 1.53.45 2.31.63.96.23 1.92.44 2.89.57 1.47.23 2.97.37 4.44.34.57-.04 1.14-.1 1.7-.16.56-.07 1.11-.2 1.66-.28l.72-.13c.91-.13 1.23-.02 1.53.43.07.1.15.2.2.31.17.35-.15.74-.83 1.04-2.02.88-4.37 1.24-6.66 1.06-1.71-.09-3.4-.35-5.06-.71v-.06l.02.01Zm54.952-89.71c-2.03-23.55 1.94-40.82 1.31-55.81-.63-14.98-11.41-31.04-22.99-33.96-11.57-2.93-21.4 7.47-21.4 7.47s-6.83-6.52-11.8-9.71c-4.96-3.18-14.58-4.65-25.91-4.1-11.33.55-22.9 12.8-28.4 18.72-5.51 5.92-15.26 23.86-17.6 35.97-2.34 12.11-13.97 38.03-20.39 47.03s-26.12 11.58-26.12 11.58 3.17 4.91 18.85 27.86c15.67 22.96 46.94 27.17 58.8 26.33 11.86-.84 16.85-3.51 16.85-3.51s13.74 10.27 33.45 1.76c9.11-3.94 12.86-14.85 12.86-14.85 5.28.45 21.52 12.74 21.52 12.74s4.51-1.89 12.47-7.23c11.84-7.94 13.85-24.1 13.85-24.1-8.43-.01-13.31-12.64-15.35-36.19Zm-32.88 6.15c-4.23 11.04-8.67 12.7-14.2 18.09-5.53 5.38-11.97 6.43-19.68 5.34-7.7-1.1-16.44-10.45-19.66-18.22-3.22-7.77.09-15.75-1.26-13.77-1.34 1.97-4.87 4.8-9.55 2.42-2.19-1.11-4.63-4.4-2.97-9.38 1.67-4.99 10.66-1.97 10.66-1.97s-5.62-8.68-6.84-11.55c-1.22-2.86-2.38-8.32 3.81-12.08 6.19-3.76 7.76 5.7 7.76 5.7s2.04-2.76 4.69-5.96c2.65-3.21 7.33-12.73 17.22-21.76 9.89-9.03 22.15-6.81 22.15-6.81s7.54 8.13 10.6 13.11c3.06 4.99 4.37 13.71 5.3 23.53.93 9.81-3.56 21.67-8.03 33.32v-.01Zm103.229 93.4c3.45-.04 6.88.03 10.32.06 1.25.01 2.5-.04 3.75-.02l13.23.22c1.96.01 3.92 0 5.86-.05 2.49-.06 4.99-.19 7.48.16.79.25.68.15.04.48-.32.18-.78.36-1.34.58-.28.1-.58.23-.91.31-.33.07-.67.13-1.03.17-5.1.42-10.2.38-15.34.19-3.07-.12-6.27.02-9.41.03l-10.36.03-3.18.04c-.53 0-1.06.02-1.57.05l-.77.04c-.18.04-.41.01-.56.09l-.18.09-.23.15c-.16.11-.31.2-.47.32l-.96.7-1.9 1.47c-1.26.99-2.51 2.01-3.75 3.03-1.92 1.58-3.73 3.23-5.66 4.79-.42.35-.84.68-1.3.99-1.68 1.18-2.39 1.33-3.03 1.12-.14-.04-.3-.05-.38-.08-.27-.08.17-.93 1.25-1.91 1.61-1.45 3.31-2.9 5.06-4.35 1.76-1.45 3.54-2.93 5.33-4.4 1.35-1.09 2.68-2.17 4.16-3.24l.61-.41c.22-.13.62-.38.93-.43.31-.06.68-.12.96-.15l.68-.04c.91-.06 1.77-.06 2.65-.1v.05l.02.02Zm1.22-166.38c3.59-.1 7.18-.11 10.76-.14l3.92-.06c4.6.01 9.21.06 13.81.12 2.04 0 4.09.02 6.12.03 1.3 0 2.61-.02 3.91 0 1.3.05 2.61.2 3.9.43.81.14.7.13 0 .27-.34.07-.84.19-1.43.36-.59.14-1.28.26-2.03.34-5.3.07-10.6.17-15.96.03-3.2-.08-6.53.07-9.81.12-3.6.06-7.2.12-10.8.22-2.21.07-4.44.11-6.6.3l-.49.07c-.17.04-.24.1-.42.22-.33.22-.67.46-1 .7l-2 1.52c-1.32 1.04-2.64 2.08-3.95 3.11-2.03 1.62-3.97 3.27-6.02 4.84-.45.35-.88.7-1.36 1.03-1.8 1.15-2.5 1.35-3.09 1.24-.13-.03-.3-.03-.39-.08-.32-.17.3-.78 1.47-1.77 3.51-2.86 7.28-5.83 11.06-8.86 1.44-1.12 2.77-2.22 4.42-3.34.16-.09.32-.18.48-.26.16-.08.32-.08.48-.13l.49-.09c.15-.02.24-.02.37-.03.46-.03.95-.09 1.4-.11l2.73-.13v.05h.03Zm-4.6-16.66s2.74 1.78 4.06 1c1.32-.78 2.23-1.69 1.67-3.81s-4.89-2.71-6.07.78c-.14.42.41 1.17.33 2.03h.01Z"/><path fill="#F58A07" d="M421.129 122.31s2.74 1.78 4.06 1c1.32-.78 2.23-1.69 1.67-3.81s-4.89-2.71-6.07.78c-.14.42.41 1.17.33 2.03h.01Z" opacity=".35"/><path fill="#231123" d="M403.99 102.56s2.74 1.78 4.06 1c1.32-.78 1.63-.84 1.07-2.95-.56-2.11-4.29-3.57-5.46-.08-.14.42.41 1.17.33 2.03Z"/><path fill="#F58A07" d="M376.839 102.27s2.74 1.78 4.06 1c1.32-.78 2.231-1.69 1.671-3.81-.56-2.12-4.891-2.71-6.071.78-.14.42.41 1.17.33 2.03h.01Z" opacity=".35"/><path fill="#231123" d="M113.36 296.88c-.14.85.14 19.37 1.55 20.2 1.41.83 22.9-1.47 22.9-1.47l-24.45-18.73Zm.598 36.52c4.04.12 8.08.19 12.13.22 1.48.01 2.95-.06 4.43-.03l7.83.18c1.32.06 2.59.08 4.01.25.1.02.16.02.29.05.13.03.27.07.4.11.24.09.39.21.57.32.28.2.57.4.83.61.53.41 1.04.82 1.55 1.23 1.8 1.45 3.62 2.92 5.41 4.36 1.16.91 2.32 1.82 3.45 2.77 1.12.97 2.3 1.83 3.21 3.05.6.72.47.69-.34.47-.4-.12-1.03-.21-1.69-.46-.65-.26-1.34-.65-2.04-1.15-2.47-1.75-4.77-3.68-7.12-5.55-1.17-.94-2.34-1.89-3.49-2.79-.29-.23-.58-.44-.85-.63-.08-.06-.13-.09-.17-.11l-.06-.04-.03-.02h-.02s-.03.03.02-.09l.05-.12c-.23.51.34-.78.27-.62l-.02.04c-.11.21-.2.42-.29.64l-.05.14-.19-.03c-.62-.09-1.4-.13-2.13-.18-3.58-.2-7.37.01-11.08.01-4.08 0-8.17-.05-12.26-.12-2.52-.07-5.04-.13-7.55-.2-3.81-.12-7.64-.34-11.43-.58-2.94-.19-5.84-.3-8.78-.68-.65-.1-1.28-.19-1.93-.34-.6-.15-1.09-.28-1.5-.42a6.57 6.57 0 0 1-.98-.46c-.51-.29-.75-.63-.89-.97-.06-.16-.16-.32-.18-.44-.03-.21.21-.28.67-.33.24-.03.5 0 .83.02.33.02.71.05 1.12.12 4.97.61 10.36 1.04 15.8 1.3 4.04.19 8.12.34 12.19.41v.06h.01Zm15.132-197.73-13.75-.16c-1.67-.03-3.35 0-5.02-.06-5.9-.22-11.8-.54-17.68-1.11-2.61-.29-5.24-.47-7.82-.85l-2.49-.33-2.48-.45c-1.66-.27-3.3-.73-4.86-1.35-.94-.52-.8-.46.14-.59.47-.07 1.12-.08 1.89-.09.76.03 1.62.15 2.56.27 6.62 1.08 13.36 1.66 20.17 2.2 4.07.35 8.34.3 12.52.4 4.6.08 9.21.13 13.83.15 2.84.02 5.68.02 8.53.08 1.08 0 2.17.08 3.27.15 1.25.13 2.27.59 3.26 1.11 1.97 1.02 3.73 2.3 5.47 3.54 2.7 1.95 5.34 3.84 8.09 5.54.61.36 1.21.7 1.83 1.06 1.14.67 1.91 1.05 2.4 1.43.49.37.73.69.9 1.03.08.15.2.31.24.41.07.18-.17.21-.71.2-.55.01-1.34-.18-2.26-.62-5.52-2.52-10.26-6.8-15.31-9.99-.94-.56-1.89-1.11-2.85-1.47-.52-.26-.85-.2-1.31-.3l-1.66-.1c-2.27-.07-4.58-.08-6.89-.08v-.05l-.01.03Zm155.641-23.71c.92-.79 1.85-1.54 2.86-2.21.37-.25.7-.55 1.09-.78 1.37-.79 2.85-1.43 4.4-1.83.69-.15 1.38-.33 2.09-.42.9-.08 1.86-.04 2.69.38.26.13.14.39-.13.67-.28.27-.7.63-1.1.73-.37.09-.72.19-1.06.31-.35.11-.69.19-1.04.3-.69.23-1.41.45-2.17.68-.92.28-1.69.96-2.49 1.54-.87.65-1.78 1.34-2.64 2.06-.53.45-1.05.91-1.54 1.4-.75.74-1.47 1.52-2.11 2.35-.49.65-.81 1.4-1.2 2.1-.1.15-.17.3-.28.45-.4.52-.65.62-1.19.46-.12-.03-.25-.06-.36-.1-.38-.15-.53-.56-.44-1.11.08-.4.16-.81.27-1.2.14-.38.31-.74.49-1.11.38-.72.8-1.43 1.31-2.07.77-.95 1.64-1.81 2.52-2.65l.05.05h-.02ZM229.21 379.13c-1.67.76-3.33 1.55-4.92 2.51-.59.33-1.12.76-1.69 1.12-2.03 1.27-4.06 2.57-6.03 4-.87.64-1.69 1.34-2.49 2.05-.5.47-1.04.91-1.58 1.33-.53.44-1.15.78-1.8 1.08-.41.18-.55-.07-.53-.61 0-.27.05-.62.13-1 .07-.4.22-.78.49-1.08.9-1.12 1.98-2.03 3.09-2.92 1.11-.89 2.27-1.74 3.5-2.5 1.46-.92 2.86-2.05 4.35-3.02 1.65-1.04 3.35-2 5.11-2.85 1.07-.54 2.19-1 3.28-1.48 1.68-.68 3.4-1.28 5.09-1.86 1.31-.49 2.58-1 3.9-1.44.29-.09.57-.19.87-.27 1.1-.27 1.5-.15 1.87.42.08.13.19.26.25.39.21.45-.15.97-.88 1.34-1.11.51-2.23 1.03-3.37 1.49-1.14.47-2.33.81-3.48 1.27-1.74.61-3.44 1.32-5.12 2.08l-.03-.06-.01.01Zm-13.491-24.28c-.67.16-1.33.38-2 .6-.24.09-.46.23-.7.32-.87.32-1.75.66-2.6 1.08-.38.18-.72.44-1.05.68-.45.29-.85.65-1.48.68-.2.01-.34-.24-.44-.62-.09-.38-.18-.97.04-1.21.19-.22.37-.46.58-.64.24-.16.48-.3.72-.44.5-.28 1.02-.51 1.58-.69.67-.21 1.24-.66 1.88-.96.71-.33 1.45-.6 2.21-.81.47-.13.94-.25 1.4-.36.71-.17 1.42-.28 2.11-.41.53-.12 1.03-.34 1.55-.48.11-.02.22-.06.34-.08.44-.04.6.07.77.45.04.09.09.17.12.26.1.29-.02.6-.31.81-.21.16-.43.32-.65.46-.22.12-.45.22-.68.32-.46.2-.92.36-1.37.51-.68.19-1.36.33-2.01.55l-.02-.05.01.03Zm23.872-145.81c.28 6.38 1.78 12.8 5.35 17.9 1.77 2.53 4.03 4.71 6.71 6.25 2.68 1.52 5.66 2.62 8.69 2.83 2.22.17 4.47-.1 6.63-.75 2.16-.66 4.23-1.67 6.18-2.9 3.46-2.17 6.48-5.08 9.14-8.29 2.67-3.21 4.96-6.77 6.95-10.48 3.97-7.44 6.74-15.55 8.25-23.88 1.33-7.38 1.55-15.06.23-22.34-.88-4.67-2.44-9.21-4.81-13.28-1.2-2.02-2.59-3.93-4.17-5.67-.79-.87-1.65-1.68-2.53-2.46-.47-.36-.89-.78-1.34-1.17-.46-.38-.95-.71-1.4-1.12-2.36-1.83-2.1-1.6.39-.75 1.2.5 3.02 1.15 4.87 2.54 1.85 1.34 3.94 3.17 5.59 5.62 2.98 4.3 4.89 9.24 5.93 14.27 1.07 5.04 1.34 10.18 1.09 15.26-.53 10.17-3.12 20.15-7.33 29.4-2.54 5.52-5.65 10.95-9.6 15.84-1.97 2.45-4.17 4.75-6.64 6.76-2.45 2.03-5.21 3.75-8.23 4.93-1.66.63-3.4 1.1-5.18 1.35-1.78.25-3.6.24-5.38.04-3.59-.43-6.95-1.81-9.93-3.73-2.98-1.95-5.49-4.57-7.38-7.54-1.9-2.97-3.18-6.27-4-9.64-.74-3.07-1.1-6.2-1.22-9.32-.08-1.56-.02-3.12.01-4.68.03-1.06.48-1.92.8-2.6.17-.35.32-.67.44-.97.12-.3.19-.58.2-.73.02-.22-.05-.39-.18-.6-.16-.27-.39-.57-.64-.9-.25-.33-.53-.68-.79-1.15-.3-.52-.47-1.14-.4-1.75l.19-1.58c.83-6.29 2.44-12.49 4.76-18.39 2.32-5.94 5.69-11.41 9.66-16.3 3.11-3.79 6.57-7.25 10.49-10.16 3.9-2.9 8.27-5.3 13.07-6.62 2.11-.57 4.23-1.02 6.45-1.12 1.03-.08 1.97-.03 2.84-.02.86.08 1.65.11 2.36.23.71.12 1.35.23 1.92.36.57.16 1.08.29 1.52.45 1.78.68 2.71 1.3 3.37 1.97.3.3.72.62.87.84.49.77-2.61-.26-8.03-.81-2.02-.17-4.06-.14-6.08.11-2.02.28-4.03.77-5.99 1.44-3.92 1.35-7.62 3.46-11.02 6.04-6.79 5.18-12.44 12.16-16.41 19.89-1.85 3.66-3.29 7.62-4.43 11.64-.57 2.01-1.06 4.05-1.46 6.11-.2 1.03-.38 2.06-.54 3.1l-.22 1.56-.18 1.46v.04c.08.15.28.43.53.74.25.32.55.69.86 1.22.39.62.67 1.46.64 2.26-.06.87-.27 1.42-.45 1.9-.19.48-.39.87-.55 1.22-.16.34-.3.64-.37.86-.04.11-.05.19-.07.25v.37l-.05 2.32c0 .77.05 1.54.07 2.31l-.08.02h.03Zm-44.5-41.09c3.28-9.9 6.87-19.87 12.1-29.14 1.91-3.37 3.97-6.68 6.38-9.75 4.32-5.37 9.4-10.06 15.2-13.8 5.81-3.67 12.46-6.25 19.38-6.79 6.12-.53 12.37.44 18.02 2.66 3.62 1.44 7.1 3.31 10.21 5.69 3.08 2.39 5.86 5.29 7.73 8.75.45 1.16.56 1.69.42 1.73-.15.05-.59-.38-1.43-.99-.89-.59-1.96-1.5-3.35-2.45-1.33-.99-2.86-2.14-4.52-3.38-5.72-4.54-12.63-7.67-19.86-8.47-7.23-.89-14.66.67-21.36 4-4.02 1.98-7.78 4.75-11.18 7.94-3.44 3.18-6.44 6.77-9.08 10.62-5.82 8.47-9.86 18.14-13.29 27.97-2.13 6.06-4.05 12.22-6.07 18.36-1.53 4.65-3.15 9.3-5.04 13.86-1.88 4.56-4.07 9.02-6.85 13.12-2.16 3.18-4.69 6.14-7.73 8.56-3.07 2.4-6.49 4.18-10.05 5.6-1.58.61-3.13 1.19-4.79 1.62-1.53.43-2.84.65-3.95.75-1.11.09-2.01.16-2.76.06-.75-.09-1.34-.22-1.82-.39-.48-.13-.85-.31-1.18-.51-.3-.18-.68-.34-.84-.48-.27-.24.23-.41 1.31-.63 1.09-.26 2.72-.72 4.82-1.16 1.55-.38 3.1-.8 4.64-1.28 1.54-.5 3.06-1.09 4.57-1.73 2.98-1.33 5.91-2.88 8.36-4.9 5.01-4.04 8.65-9.87 11.52-16.07 4.26-9.28 7.17-19.4 10.43-29.41h.08l-.02.04Z"/><path fill="#231123" d="M323.281 187.83c.32-4.42.72-8.82 1.11-13.21.37-4.38.79-8.75.88-13.04.05-3.15-.17-6.3-.48-9.42-.55-5.5-1.66-10.97-3.66-16.11-.99-2.57-2.17-5.07-3.63-7.4-1.45-2.32-3.1-4.6-5.01-6.44-3.5-3.27-8.09-5.43-12.8-6.22-3.03-.54-6.14-.48-9.13.07-.75.15-1.5.27-2.21.53-.73.22-1.46.42-2.15.75l-1.05.44c-.35.14-.67.36-1 .53-.33.19-.69.33-1.04.5-.35.16-.65.4-.99.58-1.68.95-1.71.65-.75-.89.46-.81 1.27-1.84 2.51-2.85.64-.44 1.36-.91 2.16-1.37.83-.36 1.72-.77 2.68-1.03 3.43-.98 7.04-1.09 10.51-.58 3.48.51 6.86 1.63 9.95 3.33 3.08 1.68 5.9 4.05 8.04 6.82 2.13 2.7 3.91 5.67 5.33 8.77 3.39 7.43 5.37 15.73 5.89 23.94.32 4.5.18 9.06-.15 13.5l-1.12 13.28c-.45 5.43-.84 10.87-.97 16.29-.18 8.2-.03 16.53 1.8 24.4.72 3.05 1.76 5.98 3.17 8.66 1.41 2.67 3.23 5.08 5.5 6.9.52.37 1.04.73 1.55 1.09.55.31 1.12.58 1.68.89.5.32 1.04.44 1.5.64.46.19.86.41 1.25.56.8.25 1.44.48 1.97.71 1.08.41 1.72.69 2.23 1.15.23.2.56.4.7.58.24.3-.17.51-1.17.66-.5.07-1.14.14-1.92.17-.77-.06-1.68-.16-2.7-.31-3-.64-5.87-2.22-8.26-4.33-2.39-2.12-4.28-4.78-5.64-7.61-2.78-5.67-3.97-11.84-4.62-17.92-.93-9.06-.58-18.1-.02-27.02h.09l-.03.01ZM201.34 275.55c-5.93-2.46-11.55-5.6-16.69-9.38-.93-.7-1.9-1.35-2.81-2.06-.91-.72-1.83-1.42-2.72-2.17-3.1-2.67-6.01-5.54-8.76-8.54-2.74-3.01-5.27-6.2-7.68-9.46-1.03-1.48-2.13-2.91-3.12-4.41l-1.53-2.22c-.49-.75-.97-1.51-1.45-2.26a60.759 60.759 0 0 1-3.49-5.94c-1.03-2.05-2.07-4.1-2.69-6.34-.4-1.39-.19-1.27.74-.39 1 .85 2.62 2.48 4.03 4.65.59.98 1.21 1.95 1.86 2.89.64.95 1.15 1.98 1.79 2.92l1.82 2.9 1.9 2.85c2.58 3.77 5.34 7.44 8.28 11 3.52 4.26 7.81 8.13 12.22 11.63a79.804 79.804 0 0 0 15.71 9.87c3.46 1.61 7.03 2.99 10.71 4.01 5.57 1.52 11.39 2.32 17.12 2.18 4.46-.14 8.79-.95 13-2.14l1.38-.39c.45-.15.91-.31 1.37-.46.85-.28 1.57-.48 2.2-.6.61-.16 1.1-.27 1.53-.34.85-.12 1.39-.05 1.9.17.23.1.51.17.67.29.54.39-.69 1.38-3.19 2.62-7.58 3.17-16.48 4.46-25.21 3.71-6.49-.53-12.89-2.14-18.92-4.53l.02-.07.01.01Z"/><path fill="#231123" d="M327.678 263.17c1.57-1.24 2.95-2.69 4.29-4.2.48-.56.85-1.2 1.32-1.77 1.58-2.06 2.99-4.29 4.09-6.69.26-.52.44-1.08.65-1.63.19-.55.4-1.1.53-1.67.19-.72.34-1.46.54-2.18.18-.73.42-1.45.8-2.15.23-.44.41-.36.69.09.14.23.32.55.52.94.17.39.27.83.28 1.3 0 .21.02.42-.01.62l-.11.6-.23 1.2c-.13.81-.38 1.59-.62 2.37l-.38 1.17c-.16.38-.31.76-.49 1.13-.36.74-.72 1.48-1.18 2.17-.53.83-.97 1.73-1.51 2.58l-.76 1.31c-.27.43-.56.84-.85 1.24-1.25 1.82-2.82 3.39-4.38 4.92-1.03.88-2.03 1.78-3.12 2.57-1.6 1.26-3.38 2.27-5.11 3.32-1.37.77-2.66 1.65-4.08 2.34-.31.16-.61.33-.94.43-1.24.39-1.7.3-2.18-.38-.11-.15-.23-.3-.31-.45-.27-.52.06-1.19.81-1.67l.84-.53c.28-.18.55-.38.84-.53.56-.34 1.17-.6 1.73-.95.57-.34 1.16-.64 1.73-.97.56-.35 1.14-.7 1.71-1.03 1.66-1.09 3.33-2.2 4.81-3.55l.06.06.02-.01Zm-101.489-81.98c-.3-2.35-.1-4.97 1.18-7.25.46-.8 1.01-1.65 1.67-2.22 1.16-1.06 2.58-1.96 4.29-2.25.84-.18 1.76-.09 2.61.12.83.29 1.6.71 2.19 1.26 1.13.93 1.77 2.15 2.34 3.29l.51 1.12c.13.39.23.78.33 1.17.23.78.27 1.59.34 2.38.03.5-.28.49-.75.19s-1.15-.88-1.6-1.6c-.81-1.28-1.47-2.54-2.31-3.44-.79-.92-1.44-1.62-2.48-1.72-.62-.09-1.36.13-2.04.54-.67.41-1.31 1.01-1.86 1.6-1.16 1.27-1.71 3.12-1.67 5.07.03 1.2.23 2.43.58 3.63.54 1.81 1.33 3.6 2.42 5.16.85 1.21 1.94 2.21 3.05 3.05.25.17.5.33.75.5.93.59 1.03.98 1 1.7-.01.17 0 .34-.02.5-.05.51-.78.76-1.84.42-2.9-1.31-4.97-3.82-6.49-6.53-1.12-2.04-1.93-4.27-2.31-6.66h.07l.04-.03Zm52.229 95.79-1.97.89c-.65.31-1.35.48-2.03.73-.68.21-1.35.49-2.05.65l-2.09.49c-1 .29-2.04.43-3.07.58-.46.05-.91.13-1.36.16l-1.38.04c-.92 0-1.83.1-2.74-.01l-2.72-.21c-.9-.16-1.79-.32-2.68-.49-.8-.11-1.56-.39-2.34-.58l-1.17-.3-.58-.15-.56-.21c-.97-.33-1.92-.72-2.84-1.16-.9-.49-1.72-1.15-2.54-1.73-.51-.38-.35-.47.24-.46.3 0 .71 0 1.2.03.24.01.5.03.77.06.14.01.26.04.41.05l.39.12c.92.34 1.95.39 2.84.76.9.36 1.87.49 2.81.75.47.1.93.27 1.42.33l1.44.23 1.44.29 1.46.17c.59.07 1.18.12 1.78.16.6-.03 1.2-.07 1.81-.1 1.22-.03 2.41-.29 3.61-.47.33-.05.66-.09.99-.15l.97-.24 1.94-.48c.64-.2 1.26-.44 1.9-.65.63-.23 1.28-.42 1.87-.73l2.25-1.05c.72-.41 1.42-.84 2.13-1.27.55-.3 1.06-.67 1.55-1.06l1.51-1.13c.95-.81 1.86-1.68 2.73-2.57.61-.75 1.19-1.52 1.75-2.28.51-.81.95-1.65 1.43-2.46l.31-.53c.09-.19.18-.37.27-.56.36-.69.66-1.1 1-1.34.16-.12.31-.2.48-.26.18-.04.37-.06.54-.07.16 0 .32-.05.44-.05.32-.03.65.86.29 2.08-1.13 3.55-3.63 6.77-6.57 9.36-.52.52-1.1.96-1.69 1.39l-1.76 1.31-1.88 1.13c-.62.38-1.25.76-1.92 1.05l-.03-.06Zm-82.978 86.05c-2.7 10.63-4.81 21.46-5.48 32.34-.22 3.96-.15 7.93.24 11.8.36 3.39 1.02 6.77 2.56 9.5 1.5 2.8 4.16 4.81 7.16 6.14 3.03 1.33 6.44 1.97 9.87 2.2 3.45.23 6.95.07 10.43-.32 6.18-.7 12.33-2.19 18.23-4.1 7.6-2.46 14.86-5.86 21.93-9.34 2.09-1.24 1.99-1.01.64.77-.7.86-1.75 2.09-3.16 3.42-1.44 1.25-3.31 2.47-5.43 3.53-3.8 1.82-7.73 3.31-11.7 4.64-3.98 1.32-8.04 2.43-12.16 3.28-4.13.85-8.33 1.44-12.6 1.63-4.26.19-8.61-.02-12.89-1.11-2.55-.64-5.12-1.56-7.46-3.06-2.34-1.47-4.42-3.5-5.87-5.94-.33-.62-.71-1.23-.98-1.87l-.75-1.94c-.37-1.31-.75-2.62-.96-3.93-.29-1.31-.37-2.62-.56-3.94-.07-1.31-.21-2.61-.22-3.91-.13-5.71.32-11.36 1.05-16.95.74-5.59 1.77-11.12 2.99-16.6 1.51-6.75 3.32-13.42 5.37-20.01 1.56-4.99 3.28-9.93 5.12-14.83 1.85-4.89 3.84-9.71 5.91-14.47 3.25-7.38 6.62-14.55 10.54-21.53.84-1.55 1.73-3.03 2.64-4.56.84-1.42 1.64-2.53 2.28-3.48.67-.93 1.19-1.7 1.73-2.25 1.09-1.1 1.85-1.63 2.59-1.97.34-.15.72-.39.96-.45.4-.09.31.47-.12 1.61-.42 1.15-1.25 2.81-2.48 4.84-7.24 12.03-13.75 25.37-19.17 39.23-3.98 10.3-7.49 20.87-10.16 31.62h-.09v.01Z"/><path fill="#231123" d="M354.029 408.66c1.78-2.66 2.77-5.89 3.25-9.22.48-3.34.46-6.81.19-10.27-.59-6.93-2.16-13.85-4.08-20.65-1.41-4.97-3.11-9.87-4.8-14.76-3-8.64-6.31-17.19-9.52-25.8-1.6-4.31-3.18-8.64-4.57-13.05-1.33-4.41-2.75-8.71-4.42-12.95-1.48-3.76-3.14-7.46-5.02-11.03-1.88-3.57-3.94-7.04-6.35-10.17-1.54-2.03-3.26-3.91-5.08-5.69a50.637 50.637 0 0 0-5.82-4.92c-4.11-3.02-8.65-5.41-13.35-7.45-2.93-1.28-2.45-1.48.34-1.11 1.39.2 3.34.64 5.64 1.39 2.29.77 4.88 2 7.48 3.67 2.3 1.5 4.5 3.15 6.55 4.98 2.05 1.84 3.91 3.87 5.65 6 1.74 2.12 3.27 4.43 4.69 6.75a94.61 94.61 0 0 1 3.88 7.13c2.39 4.85 4.42 9.85 6.17 14.95.88 2.53 1.66 5.17 2.43 7.67.78 2.52 1.63 5.03 2.5 7.54 4.22 12.02 9.47 24.3 13.62 36.77 2.27 6.86 4.31 13.82 5.74 20.96.69 3.57 1.23 7.19 1.47 10.85.25 3.65.19 7.37-.48 11.05-.46 2.25-1.04 4.51-2.08 6.6-.44 1.08-1.1 2.06-1.72 3.05-.29.51-.72.93-1.08 1.39-.39.45-.71.92-1.2 1.33-1.85 1.68-3.97 2.67-6.09 3.52-2.13.83-4.31 1.45-6.51 1.97-6.66 1.54-13.5 1.97-20.26 1.85-6.78-.13-13.5-.9-20.1-2.12-10.25-1.92-20.13-4.77-29.68-8.74-2.09-.89-4.15-1.74-6.22-2.74-3.84-1.84-6.26-3.26-7.9-4.36-1.59-1.19-2.4-2.04-2.95-2.88-.25-.38-.62-.82-.74-1.1-.39-.91 2.91.25 8.39 2.91 4.07 1.97 8.24 3.85 12.55 5.52 4.29 1.69 8.69 3.23 13.18 4.55 8.97 2.65 18.32 4.53 27.77 5.2 7.01.48 14.09.37 20.99-.65 3.44-.52 6.85-1.28 10.03-2.44 1.56-.6 3.1-1.29 4.35-2.15.3-.22.63-.43.86-.66.13-.12.26-.22.38-.35l.38-.46c.51-.61 1.06-1.19 1.45-1.9l.08.03.01-.01Z"/><path fill="#231123" d="M300.289 364.39c3.06.88 6.08 1.89 9.08 2.89 1.1.36 2.21.66 3.3 1.06 3.83 1.38 7.6 2.86 11.41 4.2 1.7.58 3.4 1.14 5.11 1.61 1.09.32 2.2.55 3.28.89 1.09.33 2.15.71 3.25 1.08.68.25.58.35-.06.53-.41.11-.87.23-1.34.36-.28.06-.59.16-.91.19-.31.02-.65.02-.99-.01-4.81-.52-9.27-2.14-13.65-3.9-2.62-1.06-5.45-1.84-8.18-2.74-3-1.01-6-1.99-9.02-2.9-1.87-.51-3.73-1.11-5.62-1.54-1.43-.34-2.85-.73-4.29-1-1.44-.29-2.87-.6-4.32-.76-1.12-.13-2.24-.28-3.35-.31l-3.34-.09c-.49-.03-.97.04-1.46.03-1.82-.03-2.39-.17-2.79-1.04-.09-.17-.21-.32-.26-.45-.18-.36.58-1.18 1.98-1.21 4.14-.43 8.51.07 12.77.85 1.59.3 3.17.61 4.73 1.01l2.35.57 2.33.64v.07l-.01-.03Zm-41.278 28.78c2.12-1.56 3.99-3.7 5.62-5.99.61-.83 1.11-1.74 1.68-2.62 1.98-3.09 3.69-6.41 5.01-9.88.6-1.54 1.08-3.13 1.45-4.72.21-1.02.43-2.05.64-3.07.12-.51.18-1.03.33-1.54.13-.51.28-1.03.39-1.55.16-.65.29-.57.56 0 .14.29.34.7.53 1.22.09.26.22.54.27.84.05.3.07.61.08.93-.02 1.14-.07 2.29-.32 3.39-.2 1.11-.46 2.21-.76 3.3-.58 2.18-1.48 4.26-2.49 6.27-1.22 2.4-2.33 4.98-3.77 7.34-1.59 2.59-3.49 5.02-5.77 7.14-1.41 1.29-3.01 2.44-4.86 3.22-.36.14-.72.25-1.08.38-.39.08-.74.17-1.15.23-.81.12-1.88.01-2.68-.66-.77-.67-1.09-1.54-1.23-2.31-.15-.78-.17-1.53-.15-2.26.1-2.26.48-4.39 1.13-6.49.15-.46.28-.92.47-1.37.4-.82.74-1.34 1.09-1.63.39-.27.69-.37 1.01-.39.14 0 .29-.04.4-.03.18.03.22.23.23.58 0 .36.01.88-.17 1.45-.43 1.74-.93 3.51-1.18 5.31-.13.89-.21 1.79-.22 2.63 0 .82.12 1.66.32 2.04.07.13.13.2.14.18l-.03.04c0-.01-.02.03 0 0 .05-.1 0-.02.05-.05.04.02.2 0 .38-.03.24-.06.53-.13.79-.21 1.09-.33 2.2-.96 3.24-1.76l.05.06v.01Z"/><path fill="#231123" d="M223.611 343.5c2.44-.84 4.93-1.55 7.49-2.03 2.58-.47 5.13-.68 7.85-.6 1.18.07 2.2.39 3.14.76.96.36 1.82.83 2.65 1.32 2.88 1.79 5.35 3.92 7.77 6.07 2.41 2.16 4.74 4.38 7.07 6.58 2.07 1.95 4.21 3.85 6.36 5.65 1.39 1.15 2.81 2.27 4.22 3.38l2.11 1.66 1.05.83c.18.13.33.31.49.46.15.18.35.28.47.5.34.49.45.77.36.88-.09.12-.41.1-1.01.13-.6.03-1.41 0-2.24-.29-.83-.28-1.74-.72-2.6-1.35-6.06-4.55-11.26-9.88-16.6-15.03-1.59-1.54-3.3-3.02-5.08-4.38-1.78-1.35-3.65-2.62-5.54-3.51-1.05-.47-2.08-.82-3.08-.78l-1.8.06c-.6.02-1.2.11-1.81.16-2.4.29-4.81.75-7.17 1.43-2.91.83-5.76 1.93-8.5 3.23l-1.24.6c-.28.14-.57.28-.85.44-.57.31-1.16.64-1.72 1.03-.27.2-.53.45-.67.77-.08.17.03.35.19.39.15.06.32.07.48.07.66 0 1.32-.15 1.97-.32.51-.14.99-.32 1.47-.5.74-.28 1.48-.56 2.22-.85 1.68-.63 3.38-1.26 5.17-1.74.79-.21 1.58-.41 2.42-.53.78-.12 1.46-.12 2.03-.11.58.07 1.04.2 1.4.34.37.18.64.35.84.52.2.19.34.4.43.6.09.19.21.38.23.52.03.24-.28.32-.78.34-.5 0-1.25.15-2.18.25-2.83.24-5.85 1.36-8.93 2.47l-1.17.43-1.84.64-2.33.71c-.78.23-1.67.61-2.3.63-1.48.28-2.42.08-3.06-.18-.32-.14-.57-.31-.8-.52-.22-.22-.45-.46-.65-1.01-.13-.38-.15-.65-.14-.92 0-.26.06-.54.13-.76.08-.24.19-.47.33-.72l.58-.8c.73-.61 1.28-1.2 2.39-1.83.5-.31.96-.62 1.5-.92l1.63-.87.81-.44.19-.1.11-.05.22-.11.88-.42c.58-.29 1.19-.53 1.78-.8 1.2-.51 2.4-1 3.63-1.44l.03.07v-.01Z"/><path fill="#231123" d="M215.499 370.78c-.37.26-.73.53-1.12.78l-.29.19-.39.24c-.34.22-.69.4-1.04.58-1.43.69-2.7.81-3.7.14-.52-.33-.88-.93-.98-1.45-.09-.55-.02-1.15.21-1.81.25-.65.61-1.35 1.02-1.96l.15-.23.1-.14.2-.28.4-.55c.8-1.05 1.58-2.09 2.45-3.04 1.56-1.67 3.16-3.24 5.01-4.7 1.95-1.45 4.03-2.4 6.17-3.23 1.9-.71 3.81-1.37 5.72-1.87 2.46-.64 4.83-1.44 7.42-1.43.81-.02.72.04.17.53-.27.24-.66.62-1.12 1.08-.48.41-1.08.77-1.75 1.07-4.87 1.78-9.67 2.83-13.89 5.26-1.22.62-2.35 1.68-3.47 2.75-1.1 1.08-2.16 2.24-3.17 3.39-1.06 1.18-2.37 2.94-2.45 3.19-.08.16-.16.33-.16.51 0 .19.16.34.33.37.35.06.69-.12 1.03-.3l.16-.09.3-.2.63-.44c.42-.3.84-.62 1.26-.94l2.52-1.99c.64-.49 1.36-1.04 2.12-1.43l2.15-1.17c1.45-.76 2.93-1.49 4.43-2.15 2.33-1.03 4.68-1.96 7.17-2.56.54-.14 1.08-.28 1.64-.38 1.03-.2 1.73-.21 2.23-.06.49.1.79.34 1.03.62.11.12.25.23.31.32.21.26-.57.93-1.97 1.37-4.2.95-8.34 2.38-12.35 4.51l-2.24 1.2-1.13.62-.28.15-.21.12c-.15.09-.3.2-.46.31-1.3.92-2.65 2.08-4.1 3.16l-.04-.05-.02-.01Z"/><path fill="#231123" d="m219.342 377.92-1.11.74c-.37.24-.82.49-1.23.73-.15.1-.57.29-.9.45l-1.02.48c-.67.28-1.29.37-1.92.57l-.77-.03c-.25-.01-.52 0-.72-.09-.22-.06-.41-.17-.61-.33s-.41-.41-.48-.63c-.34-.85-.14-1.83.5-3.07.24-.44.49-.89.79-1.33l.43-.65.35-.49c.41-.58.76-1.04 1.17-1.53 1.41-1.7 2.94-3.26 4.49-4.8 1.54-1.53 3.25-3.06 5.1-4.28 1.64-1.11 3.38-2.08 5.18-2.86 1.16-.49 2.36-.93 3.6-1.23.62-.14 1.26-.2 1.89-.25.63-.03 1.27-.07 1.91.12.8.34.67.25.06.71-.62.5-1.67 1.2-2.9 1.65-4.51 1.16-8.6 3.63-12.11 6.9-2.16 2.01-4.1 4.46-5.97 6.79-.54.7-.6.77-.8 1.06-.16.26-.42.56-.37.92.08.16.28.13.42.12.15-.04.32-.05.47-.12.16-.06.32-.11.48-.19l.25-.12c.09-.04.3-.18.45-.27 1.64-.98 3.3-2.27 4.84-3.6 1.18-1.01 2.33-2.07 3.48-3.15l.87-.81c.3-.27.57-.55 1.05-.86.71-.39 1.42-.78 2.15-1.12 2.27-1.08 4.59-1.92 6.92-2.61.51-.15 1.01-.32 1.52-.46 1.93-.44 2.59-.32 3.16.2.13.12.28.21.37.32.14.19.04.41-.26.72s-.8.63-1.48.9c-2.01.85-4.14 1.39-6.13 2.13-1 .36-1.97.75-2.92 1.2-.47.22-.94.46-1.4.72l-.34.19-.17.1-.09.05h-.01c.55.95-.75-1.3-.61-1.05l.05.09.19.34c.12.21.29.49.38.63 0 0-.07.07-.11.1l-.27.24c-2.37 2.27-4.91 4.74-7.79 6.81l-.04-.05h.01Z"/><path fill="#231123" d="M221.299 379.6c1.85-1 3.69-2.21 5.51-3.44l2.76-1.88c.47-.32.94-.63 1.45-.95.26-.16.51-.32.92-.5.11-.04.23-.1.34-.13l.2-.06.4-.12c1.57-.47 3.1-1.01 4.74-1.41.36-.09.74-.17 1.13-.24l.31-.05.45-.05c.31-.02.61 0 .91.07.27.14.55.26.8.44l.29.22.22.17.84.66c1.11.86 2.23 1.68 3.41 2.42 2.34 1.5 4.86 2.7 7.52 3.49 2.36.68 4.83 1 7.27.92l.95-.09.48-.05.24-.02h.14c.07 0 .14-.09.21.02.51-.21.95.21 1.26.58.28.35.43.59.62.89.35.57.66 1.15.96 1.73.59 1.17 1.11 2.35 1.59 3.56.36.95.09.92-.52.27s-1.63-1.89-2.62-3.42c-.3-.47-.62-.94-.94-1.36l-.24-.3-.13-.15v-.09.1h.02-.11l-.27.04-.53.08-1.07.16-2.16.11c-.72 0-1.44-.06-2.17-.1-.72-.06-1.42-.23-2.14-.35-2.82-.61-5.51-1.68-7.98-3.1a62.182 62.182 0 0 1-5.26-3.35l-1.21-.85c-.07-.05-.13-.11-.22-.11h-.12l-.2.03c-.88.17-1.87.47-2.82.74l-3.19.97c-.35.11-.3.09-.54.22-.2.12-.43.26-.65.4l-1.36.92c-1.83 1.27-3.67 2.58-5.58 3.81-1.15.73-2.31 1.44-3.57 2.07-.32.15-.63.31-.97.45-.34.14-.64.27-1.18.4-.48.14-.97.17-1.44.12-.47-.05-.9-.32-1.2-.66l-.2-.28c-.4-.63-.6-1.38-.53-2.15.04-.39.1-.71.19-1 .09-.29.18-.58.31-.85.48-1.08 1.12-1.99 1.81-2.84 1.38-1.7 3-3.11 4.66-4.43 2.6-2.01 5.29-3.88 8.39-5.09.68-.27 1.35-.52 2.08-.71 1.33-.38 2.29-.33 2.94-.27.66.08 1.03.25 1.32.51.13.11.3.22.37.32.23.37-.83.58-2.53 1.19-2.54.85-4.98 2.2-7.36 3.69-2.36 1.52-4.63 3.31-6.53 5.33-.86.92-1.7 1.89-2.24 2.86-.29.48-.47.97-.53 1.3-.03.04-.02.04-.02.07 0 .01.02.02.03.03h.02s-.06.03.17-.05c.64-.23 1.35-.58 2.05-.97l.04.06.01.05Zm100.481-19.39c.07-2.03.22-4.05.48-6.04.07-.73.13-1.46.25-2.19.42-2.55 1.13-5.04 1.85-7.49.31-1.09.6-2.19.95-3.26.39-1.39.95-2.73 1.59-4.03.2-.4.31-.31.4.11.08.42.22 1.19.15 2.02-.11 1.48-.34 2.91-.61 4.32-.35 1.4-.7 2.79-1.08 4.19-.24.84-.38 1.71-.5 2.59-.15.88-.22 1.76-.34 2.64-.15.96-.21 1.93-.33 2.9-.05.97-.16 1.94-.16 2.91-.05 1.2-.04 2.4.01 3.59.04.91.12 1.81.19 2.72.12.9.21 1.81.39 2.69.15.69.32 1.36.52 2.03.22.66.47 1.31.66 1.98.07.3.18.57.25.87.12.56.18.93.1 1.23-.14.31-.31.52-.54.72-.1.09-.19.19-.28.25-.16.1-.33.06-.59-.09-.25-.15-.65-.39-.81-.79-.31-.58-.65-1.17-.9-1.78-.22-.63-.42-1.27-.6-1.92-.32-1.31-.59-2.66-.75-4.03-.28-2.03-.34-4.09-.35-6.14h.07-.02Z"/><path fill="#231123" d="M301.628 358.96c1.67-.82 3.25-2.13 4.8-3.52.57-.51 1.06-1.1 1.64-1.63 2.03-1.83 4.18-3.87 7.02-4.98 1.24-.5 2.6-.75 3.94-.79.85.05 1.72.1 2.51.38.82.23 1.51.72 2.19 1.17.42.3.21.54-.33.76-.54.23-1.4.4-2.21.45-.35 0-.68-.11-1.02-.12-.33 0-.66.01-.98-.02-.63.02-1.26.04-1.87.21-1.23.28-2.44.92-3.72 1.67-1.53.93-2.81 2.44-4.21 3.8-1.56 1.5-3.19 3-5.09 4.28-1.19.77-2.47 1.37-3.77 1.85-1.98.73-4.04 1.07-6.04 1.4-1.56.24-3.09.55-4.65.72-.34.05-.68.07-1.03.07-.64 0-1.06-.06-1.36-.23-.29-.2-.46-.44-.59-.76-.06-.14-.14-.28-.17-.41-.06-.22.05-.42.28-.64.23-.21.59-.49 1.04-.56.67-.15 1.34-.35 2.01-.44.67-.09 1.35-.18 2.02-.28 1.35-.18 2.7-.36 4.02-.62 1.95-.39 3.85-.93 5.54-1.83l.04.06-.01.01Zm-22.066-63.73c-2.72.37-5.32.12-7.84-.31-.93-.13-1.83-.3-2.74-.5-3.16-.82-6.19-1.98-9.12-3.3-1.31-.57-2.6-1.2-3.86-1.85-1.64-.78-3.16-1.86-4.48-3.14-.41-.4-.22-.52.33-.48.55.05 1.49.17 2.44.51.41.17.83.33 1.26.47.43.15.8.38 1.21.54.81.36 1.62.72 2.45 1.05 1.62.73 3.25 1.48 4.91 2.18 1.99.86 4.2 1.31 6.35 1.74 2.36.47 4.76.79 7.11.67 1.43-.08 2.87-.31 4.19-.84.99-.4 1.94-.92 2.78-1.59.83-.68 1.56-1.5 2.19-2.4.97-1.41 1.63-3.02 2.37-4.62.17-.36.3-.72.48-1.07.66-1.32 1.17-1.58 1.91-1.5.17.02.35.02.51.07.52.16.61.9.28 1.91-.56 1.46-1.19 2.94-2 4.46-.81 1.5-1.81 3.05-3.17 4.4-2.04 2.03-4.86 3.27-7.55 3.65l-.02-.06.01.01Zm8.558 18.78c-.2.66-.49 1.31-.94 1.93-.44.61-1.06 1.19-1.81 1.53-.54.25-1.19.47-1.79.42-1.07-.08-1.96-.57-2.62-1.25-.67-.67-1.1-1.67-1-2.64.08-.84.37-1.6.88-2.17.59-.73 1.59-1.32 2.6-1.06.31.09.18.48.01.92-.19.43-.27.96-.39 1.13-.28.29-.34.73-.44.95-.04.26-.11.32-.06.73.05.22.27.42.51.5.24.08.48.09.67.07.4 0 .97-.42 1.28-1.16.2-.44.33-.97.35-1.5.04-.82-.05-1.67-.49-2.21-.34-.4-.88-.44-1.23-.39-.08.01-.14.07-.2.07-.19 0-.29-.25-.77-.84-.1-.13-.22-.24-.31-.34-.16-.18-.24-.38-.24-.7 0-.34.2-.6.53-.86 1.06-.63 2.36-.51 3.42.03 1.11.64 1.77 1.72 2.08 2.7.45 1.5.36 2.79.04 4.17h-.07l-.01-.03Zm1.402 17.12c-.23.54-.42.93-.69 1.49-.35.79-.89 1.54-1.61 1.95-.52.32-1.11.53-1.73.5-1.09-.07-2.1-.7-2.72-1.54-.6-.88-.76-1.69-.76-2.51 0-.72.12-1.41.38-2.06.15-.42.39-.82.69-1.17.33-.33.73-.62 1.2-.69.3-.06.39.38.45.87.04.49.18 1.01.13 1.22-.15.36-.18.79-.17 1.19 0 .4-.04.79.03 1.14-.04.37.34.48.62.48.17.01.35-.07.47-.22.07-.09.11-.1.2-.29.09-.19.18-.43.27-.65.22-.55.42-1.07.52-1.57.08-.38.13-.75.1-1.1 0-.17-.04-.34-.09-.5-.05-.12-.1-.25-.2-.37-.27-.39-.85-.48-1.12-.47-.06 0-.12.03-.16.02-.08-.02-.11-.06-.21-.19-.11-.16-.26-.34-.48-.6-.1-.12-.21-.22-.31-.33-.16-.18-.26-.38-.24-.65a.97.97 0 0 1 .53-.81c.52-.31 1.15-.44 1.74-.43.61 0 1.15.23 1.65.5.49.28.94.66 1.31 1.14.17.25.32.52.45.82.13.32.21.59.27.84.34 1.61-.08 2.96-.44 4.02l-.08-.02v-.01ZM220.23 439.94c-.27.87-.49 1.75-.73 2.64-.09.32-.08.66-.16.99-.28 1.15-.55 2.33-.7 3.52a8.47 8.47 0 0 0-.07 1.59c.02.68.11 1.35-.09 2.04-.07.21-.5.2-.94.04-.44-.16-.93-.48-.99-.88-.21-1.41-.32-2.86.04-4.29.2-.85.12-1.76.22-2.64.11-.97.3-1.93.53-2.87l.44-1.74c.22-.88.5-1.74.68-2.61.15-.68.07-1.4.24-2.06.03-.15.04-.3.09-.44.09-.27.19-.43.37-.51.2-.08.43-.08.74-.05.14.02.28.02.41.04.22.04.4.14.57.3.16.15.33.37.36.58.06.33.11.65.15.98.05.33.07.65 0 .95-.08.61-.23 1.21-.38 1.8-.23.88-.49 1.76-.71 2.65h-.07v-.03Zm110.25-12.4c.24.77.37 1.59.58 2.37.07.29.22.54.29.83.24 1.02.47 2.05.71 3.06.1.45.27.88.45 1.3.23.54.51 1.05.52 1.68 0 .2-.39.33-.84.35-.45.02-.99-.06-1.18-.35-.62-1.03-1.27-2.06-1.42-3.3-.11-.73-.53-1.37-.79-2.06-.28-.76-.54-1.53-.8-2.3-.15-.48-.29-.96-.45-1.43-.25-.71-.46-1.45-.78-2.12-.26-.52-.66-.98-.94-1.48-.06-.11-.15-.21-.2-.33-.19-.43-.07-.65.52-1 .13-.08.26-.17.4-.24.46-.24.94-.23 1.25.02.45.37.85.78 1.18 1.22.28.46.51.96.72 1.46.31.75.56 1.52.84 2.29l-.07.03h.01ZM93.02 69.33c10.5-.81 21.05-1.56 31.63-1.82 3.86-.09 7.73-.21 11.6-.12 4.96.13 9.92.42 14.87 1.06 2.47.32 4.94.72 7.39 1.25 1.23.27 2.45.57 3.66.91.61.18 1.21.34 1.81.55l.9.3 1.08.38c.69.23 1.16.84 1.42 1.52.06.17.13.35.18.51l.11.39c.06.25.12.5.17.74.2.97.32 1.91.43 2.85.21 1.88.32 3.74.43 5.6.31 6.03.46 12.08.61 18.04.14 7.66.6 15.34-.01 22.99-.36 2.39-.44 2.08-1.13.08-.74-2-1.72-5.71-1.88-10.12l-.42-20.92c-.07-3.48-.16-6.96-.33-10.42-.09-1.73-.2-3.45-.37-5.13-.09-.84-.2-1.67-.35-2.43-.23-.96-.15-.85-.32-.98l-.05-.03-.25-.09c-.19-.07-.37-.14-.57-.21l-1.15-.39c-.78-.24-1.55-.48-2.35-.69-4.43-1.19-9.16-1.79-13.92-2.13-4.77-.34-9.6-.39-14.39-.37-10.54.07-21.1.76-31.65 1.62-6.5.52-12.99 1.14-19.53 1.61-2.48.17-4.96.32-7.52.28-.6-.01-1.46-.06-1.64-.1-.17-.02-.33-.05-.5-.1-.08-.02-.16-.06-.24-.08-.07-.04-.17-.12-.17.01-.07.33-.11.66-.15 1l-.17 1.48c-.53 4.89-.9 9.8-1.16 14.69-.39 7.6-.38 15.06-.13 22.54.06 1.65.16 3.26.24 4.92.1 3.07.18 5.09.11 6.52-.09 1.43-.31 2.28-.61 2.98-.13.32-.23.73-.34.92-.18.32-.45-.13-.89-1.22-.45-1.09-.89-2.85-1.16-5.13-.46-3.38-.68-6.83-.82-10.31-.14-3.48-.17-6.99-.14-10.52.08-7.07.43-14.22 1.01-21.38l.36-4 .1-1 .06-.58.07-1c.08-.66.11-1.36.27-1.97.16-.6.47-1.02.79-1.3.07-.09.19-.09.33-.09h.04c.02.03-.16-.25-.08-.13l.02-.02.04-.03.08-.06.24-.15c.1-.05.15-.12.31-.13l.41-.07c.07 0 .13-.03.21-.02l.26.08c.35.09.72.24 1.05.28.33.06.67.14 1 .19l.49.04.9.03c1.23.02 2.52-.01 3.82-.07 5.21-.24 10.51-.72 15.8-1.16l.02.09.07.02Zm24.182 64.25c6.09.04 12.15-.06 18.31-.07h1.72c.3.02.57.01 1.09.08.24.04.47.09.71.15.22.09.43.21.64.35l.8.54.69.49 1.35.98c3.13 2.37 6.24 4.73 9.41 6.99 1.59 1.12 3.19 2.23 4.82 3.23l.95.57c.19.11.38.21.59.3.2.07.46.23.64.08.05-.2-.05-.42-.07-.64l-.32-1.7-.51-2.55c-.35-1.7-.74-3.39-1.13-5.06l-.46-1.93-.15-.63-.16-.74-.17-.73c-.04-.23-.15-.52-.11-.69l10.38.36c1.38.04 1.21.34.05.72-1.16.38-3.34.84-5.9.91l-1.75.05h-.15l.03.02c-.05-.04-.03-.01-.01-.02l.02.08.1.36.21.71.81 2.86c.53 1.91 1.03 3.84 1.49 5.78.05.24.12.48.17.73l.27 1.28.24 1.38.12.68c0 .18-.09.28-.13.42l-.29.79c-.07.23-.44.51-.71.62-.56.24-1.21.24-2 .01-.78-.22-1.62-.62-2.42-1.07-.24-.13-.32-.16-.43-.24l-.33-.2-.66-.4c-.87-.54-1.71-1.09-2.55-1.66-4.54-3.13-9.31-6.29-13.83-9.52-.89-.58-.43-.46-1.27-.52-.73-.02-1.48-.02-2.24-.01l-4.59.07-9.22.16c-3.79.05-7.58.06-11.37.06-5.74-.01-11.51-.19-17.22-.44-4.44-.24-8.81-.36-13.26-1.09-.49-.08-.98-.16-1.46-.24-.49-.11-.98-.21-1.47-.34-3.66-1.01-4.78-2.32-4.81-3.52-.01-.27-.06-.56 0-.76.11-.32.54-.34 1.11-.2.57.14 1.46.34 2.58.68 3.47.88 7.39 1.27 11.35 1.56 3.97.27 8.04.46 12.13.6 6.08.19 12.21.28 18.34.23v.09h.03Z"/><path fill="#231123" d="M91.761 96.67c.32.94 6.56.78 8.61 1.48.67.71-4.59 4.38-5.65 5.58-.79.9 3.17 7.22 2.56 9.1-2.92.3-8.28-5.16-8.63-5.15-.36.01-7.39 5.95-8.39 5-.69-1.52 1.68-5.28 2.26-8.11.43-2.11-6.49-4.52-6.49-5.85 0-.79 6.33-.34 8.48-1.48 1.39-.74 2.74-8.58 3.73-9.33.53 0 2.57 5.97 3.53 8.75l-.01.01ZM381.99 279.41c.25.73 5.13.61 6.74 1.16.52.56-3.59 3.42-4.42 4.36-.62.7 2.48 5.65 2 7.12-2.28.23-6.48-4.03-6.75-4.03-.28 0-5.78 4.65-6.57 3.91-.54-1.19 1.31-4.13 1.77-6.34.34-1.65-5.08-3.53-5.08-4.57 0-.62 4.95-.26 6.63-1.16 1.09-.58 2.15-6.71 2.92-7.3.41 0 2.01 4.67 2.76 6.85Z"/><path fill="#F58A07" d="M405.869 279.41c.25.73 5.13.61 6.74 1.16.52.56-3.59 3.42-4.42 4.36-.62.7 2.48 5.65 2 7.12-2.28.23-6.48-4.03-6.75-4.03-.28 0-5.78 4.65-6.57 3.91-.54-1.19 1.31-4.13 1.77-6.34.34-1.65-5.08-3.53-5.08-4.57 0-.62 4.95-.26 6.63-1.16 1.09-.58 2.15-6.71 2.92-7.3.41 0 2.01 4.67 2.76 6.85Z" opacity=".35"/><path fill="#231123" d="M430.021 279.41c.25.73 5.13.61 6.74 1.16.52.56-3.59 3.42-4.42 4.36-.62.7 2.48 5.65 2 7.12-2.28.23-6.48-4.03-6.75-4.03-.28 0-5.78 4.65-6.57 3.91-.54-1.19 1.31-4.13 1.77-6.34.34-1.65-5.08-3.53-5.08-4.57 0-.62 4.95-.26 6.63-1.16 1.09-.58 2.15-6.71 2.92-7.3.41 0 2.01 4.67 2.76 6.85ZM130.51 92.34l6.85-.1c.84-.01 1.67-.11 2.5-.12 2.95-.03 5.9-.06 8.86-.13 1.31-.02 2.63-.09 3.92-.18.83-.05 1.67-.16 2.51-.14.42 0 .84.01 1.26.03.42 0 .85.16 1.27.24.53.14.47.3.04.67-.21.19-.51.44-.87.74-.36.25-.8.43-1.27.53-3.37.56-6.76.78-10.22.65-2.06-.07-4.19.2-6.3.28-2.31.1-4.64.12-6.96.12l-4.29-.02-6.49-.09c-1.67-.02-3.31.12-4.97.05-.36 0-.72 0-1.09-.03-1.36-.11-1.78-.31-2.03-.85-.06-.12-.13-.25-.16-.36-.1-.39.48-.71 1.47-.81 1.47-.12 2.97-.32 4.48-.34 1.52-.04 3.05-.06 4.59-.08 2.29-.03 4.59-.04 6.89-.12v.06h.01Zm-1.101 9.85c2.02-.01 4.05-.08 6.08-.12.74-.01 1.48-.12 2.22-.13l7.88-.15c1.17-.01 2.34-.09 3.49-.17.74-.04 1.48-.15 2.23-.13.37 0 .75.01 1.12.04.37 0 .75.17 1.13.24.47.14.42.3.04.67-.19.19-.45.44-.77.73-.32.25-.7.42-1.13.52-2.99.54-6 .75-9.07.62-1.84-.06-3.73.21-5.6.3-2.06.11-4.13.14-6.2.14h-3.82c-1.93-.05-3.86-.09-5.78-.12-1.49-.02-2.95.11-4.42.05-.32 0-.64 0-.97-.03-1.21-.1-1.58-.3-1.8-.84-.05-.12-.12-.24-.14-.36-.08-.39.43-.71 1.32-.82 1.31-.13 2.65-.33 3.99-.34 1.35-.05 2.71-.04 4.07-.07 2.03-.02 4.06-.04 6.1-.11v.06l.03.02Zm-1.471 9.51c1.6-.01 3.2-.1 4.83-.16.59-.03 1.18-.14 1.77-.16l6.34-.18c.94-.01 1.88-.08 2.81-.14.6-.04 1.19-.14 1.79-.11.3 0 .6.02.9.05.3.01.61.17.91.26.38.15.34.31.04.67-.21.25-.42.5-.61.73-.25.25-.56.42-.89.51-2.39.51-4.77.68-7.23.56-1.47-.06-2.97.23-4.46.34-1.64.14-3.31.19-4.98.21-1.03.02-2.06 0-3.08-.01-1.55-.02-3.11-.12-4.64-.16-1.19-.02-2.37.09-3.55.05-.26 0-.51 0-.78-.02-.97-.08-1.26-.28-1.43-.81-.04-.12-.09-.24-.11-.36-.06-.39.36-.72 1.07-.84.53-.09 1.06-.16 1.6-.22.54-.08 1.07-.14 1.61-.14 1.08-.03 2.16-.04 3.25-.04 1.61 0 3.22 0 4.83-.07v.06l.01-.02ZM100.46 277.89c9.09-.16 18.19-.24 27.29-.16 3.32.06 6.64-.02 9.97.11 5.85.17 11.71.51 17.57 1.06l4.39.47 4.49.66c.28.03.55.08.81.17.27.05.51.19.71.38.41.38.64.91.82 1.44l.13.41.08.31.13.58c.08.39.14.76.19 1.14.21 1.5.32 2.98.42 4.45.32 5.22.44 10.43.57 15.57.12 6.61.56 13.22-.08 19.82-.37 2.06-.45 1.8-1.13.07-.73-1.72-1.7-4.92-1.85-8.73-.13-6.72-.27-13.44-.4-20.18-.09-3.34-.18-6.71-.52-9.93-.09-.78-.21-1.6-.36-2.24-.01-.14-.04-.28-.25-.29l-2.36-.38c-.82-.13-1.64-.29-2.48-.37-7.98-1.03-16.43-1.09-24.71-1.19-9.11-.1-18.24.01-27.37.23l-16.86.48-4.79.14-2.4.05h-2l-.56-.03c-.12-.04-.09.13-.13.2l-.05.27-.08.55-.1.8c-.16 1.31-.3 2.63-.43 3.95-.25 2.64-.45 5.28-.61 7.91-.37 6.54-.33 12.97-.08 19.42.08 1.42.16 2.8.24 4.23.09 2.65.15 4.38.07 5.62-.11 1.24-.34 1.97-.65 2.58-.13.28-.24.64-.35.8-.19.28-.44-.1-.86-1.04-.43-.94-.85-2.45-1.12-4.42-.44-2.92-.66-5.89-.8-8.9-.14-3-.18-6.04-.15-9.09.06-6.11.39-12.28.96-18.47.11-1.17.23-2.34.37-3.52l.21-1.68c.09-.56.15-1.19.49-1.52.17-.17.4-.23.57-.34l.14-.07.07-.04.04-.02c.05.07-.45-.57-.23-.3h.03l.34-.11 1.37-.42 5.93-.09 5.11-.12 10.26-.27v.09l-.01-.04Zm20.858 56.04c5.44.05 10.85-.02 16.35-.02h1.55c.13.01.26.02.42.03.14.01.41 0 .61.05l.63.13c.2.08.39.19.57.31l.45.3.32.22.62.43 1.21.88c2.79 2.12 5.55 4.25 8.38 6.27 1.41 1.01 2.84 2 4.29 2.9l.63.38c.17.1.34.19.53.27.18.06.41.2.58.07.05-.18-.04-.36-.06-.56-.02-.17-.08-.36-.13-.54-.05-.22-.09-.27-.18-.74l-.47-2.28c-.32-1.52-.65-3.03-.97-4.53l-.38-1.73c-.18-.85-.45-1.84-.49-2.59l5.2.19c1.38.06 2.76.12 4.14.17 1.23.04 1.08.35.04.72-1.03.37-2.99.83-5.27.91l-1.54.06.02.02c-.05-.04.06.02 0-.02h-.02v-.01l.02.08.04.16.18.64.7 2.57c.45 1.72.9 3.43 1.36 5.15l.23.98.29 1.26c.08.41.23.85.25 1.23-.02.33-.04.69-.15.86-.09.19-.17.47-.27.59-.07.13-.39.42-.64.51-.49.21-1.02.24-1.69.09-.66-.14-1.4-.5-2.11-.86l-1.02-.55-.59-.36c-.78-.48-1.53-.98-2.28-1.5-4.05-2.81-8.32-5.62-12.35-8.5l-.54-.38c-.14-.04-.13-.04-.51-.06-.64-.02-1.32-.02-2-.01l-4.1.06-8.24.13c-3.38.04-6.77.05-10.15.04-5.13-.02-10.28-.18-15.39-.4-3.97-.22-7.88-.29-11.86-.93-.88-.13-1.75-.28-2.64-.51-3.29-.91-4.31-2.13-4.28-3.27 0-.26-.02-.53.05-.72.12-.31.54-.34 1.05-.25.52.1 1.31.24 2.3.53 3.08.74 6.57 1.07 10.1 1.3 3.54.22 7.17.39 10.81.52 5.42.18 10.9.27 16.37.23v.09l.03-.01ZM452.99 103.59l-.17 8.52c-.01 1.04.06 2.07.03 3.11-.08 3.65-.12 7.31-.13 10.96 0 1.62.08 3.25.17 4.85.07 1.03.13 2.06.17 3.09.02.52.04 1.03.04 1.55.02.52-.1 1.04-.15 1.57-.1.65-.33.59-.75.07-.21-.26-.48-.62-.78-1.07-.26-.45-.44-.99-.54-1.59-.16-1.05-.31-2.11-.43-3.16-.1-1.06-.17-2.12-.24-3.18-.13-2.12-.18-4.25-.05-6.4.12-2.56-.09-5.21-.1-7.83-.02-2.87.04-5.75.09-8.62l.1-5.3c.04-2.67.12-5.36.08-8.01-.04-2.06-.19-4.08-.28-6.12-.02-.45-.06-.89-.07-1.34.02-1.68.23-2.21.9-2.57.14-.08.27-.19.38-.24.33-.16.95.52 1.14 1.75.58 3.65.72 7.49.71 11.34-.02 2.86-.03 5.73-.05 8.6h-.07v.02Zm-94.209-25.4c.35-.21.75-.36 1.19-.46.41-.12.93-.19 1.11-.22.51-.07 1.01-.12 1.49-.15.97-.08 1.93-.12 2.88-.15 1.9-.06 3.78-.08 5.66-.08 3.76 0 7.5.06 11.24.11 2.73.04 5.46 0 8.18.07 9.61.22 19.21.52 28.81.56 4.26.02 8.54-.07 12.76-.22 2.71-.12 5.42-.23 8.14-.35l4.07-.15c1.36-.04 2.71-.11 4.08.01 1.71.25 1.5.35.11 1.03-1.38.73-3.99 1.54-7.13 1.79-5.56.48-11.14.55-16.71.62-5.58.04-11.16-.04-16.76-.22-6.7-.22-13.67-.13-20.52-.25-7.52-.1-15.07-.32-22.52-.07-1.14.05-2.28.12-3.37.26-.32.05-.35.05-.52.08-.13.03-.27.06-.39.13-.07.03-.09.1-.09.17s-.02.14-.02.21l-.02.5c-.04 2.29-.04 4.61-.04 6.92.02 7.01.03 14.07.12 21.04.07 5.42.29 10.73.38 16.09l.06 3.53c-.02 2.21-.05 3.67-.24 4.69-.22 1.02-.49 1.6-.84 2.06-.15.21-.3.49-.43.61-.22.2-.41-.15-.64-.95-.24-.81-.44-2.06-.48-3.67-.35-9.54-.55-19.62-.67-29.75-.04-3.76-.08-7.53-.11-11.31l-.03-5.67v-2.85c.09-.52-.3-3.17 1.17-4.01l.06.05h.02Zm24.329 69.49 6.8-5.33.89-.67.5-.36.38-.24c.14-.07.32-.11.48-.16.17-.05.33-.08.5-.12l.25-.05.15-.02.57-.04c.37-.02.76-.06 1.12-.07l4.34-.18c2.1-.09 4.2-.25 6.29-.31 7.39-.21 14.78-.34 22.17-.45 3.28-.06 6.57-.18 9.82-.32 4.18-.09 8.37-.43 12.56.17 1.31.16 1.13.28.04.65-1.09.33-3.1 1.26-5.5 1.45l-6.38.4c-2.13.11-4.26.15-6.39.22-4.27.11-8.54.21-12.84.19-5.14-.01-10.48.36-15.73.58-2.88.13-5.78.24-8.61.5l-1.04.11c-.23.02-.2.03-.28.02h-.05l-.03-.01-.15-.28-.33-.59.44.87h-.01l-.03.03-.06.04c-.49.34-1.11.81-1.66 1.24l-3.41 2.66c-2.8 2.2-5.6 4.41-8.4 6.61l-1.82 1.43a66.7 66.7 0 0 1-2.2 1.68l-.82.56-.55.13-.55.14h-.03l-.02.01c.32-.56.09-.16.16-.28l-.03-.06-.04-.12-.07-.24c-.05-.16-.11-.32-.18-.49-.09-.15-.12-.41-.1-.72.05-.65.22-1.43.33-2.14l.63-3.54.57-3c.21-1.09.42-2.16.63-3.22.03-.18.07-.36.09-.53-.18-.07-.38-.06-.56-.08l-1.59-.03-4.28-.07c-.9 0-1.79-.02-2.7-.03-3.38-.1-4.46-.33-5.14-1.16-.16-.18-.37-.36-.45-.53-.3-.54 1.1-1.07 3.58-1.11 2.19-.06 4.41-.08 6.67-.05 1.13.02 2.27.03 3.43.14l.67.07.81.1c.53.07 1.05.17 1.46.37.2.1.36.22.5.35.07.07.13.14.2.23l.13.22c.15.31.3.73.15 1.3l-.48 2.09-.23 1.13-.45 2.28c-.23 1.25-.46 2.51-.69 3.77 0 0-.02.03 0 .04-.04.04.13-.09.26-.18l2.05-1.64 4.24-3.41.05.05h-.03Z"/><path fill="#231123" d="m397.739 116-.47.61-.31.43-.42.58-1.62 2.23-.1.14c-.03.07-.07-.06-.11-.07l-.23-.27-.46-.53-.9-1.04-1.39-1.76c-.47-.59-.99-1.14-1.46-1.73a2726.5 2726.5 0 0 1-4.97-6.28c-.73-.93-1.52-1.83-2.29-2.72-.51-.56-.98-1.16-1.43-1.76-.22-.31-.46-.6-.65-.94-.18-.34-.35-.68-.53-1.03-.21-.44-.11-.44.32-.28.29.11.6.22.89.33.18.07.39.13.58.23.18.11.35.23.52.38 1.21.98 2.24 2.12 3.27 3.26.52.57 1.02 1.15 1.52 1.74.48.6.95 1.22 1.41 1.85 1.1 1.51 2.47 2.88 3.7 4.35.62.75 1.53 1.84 1.58 1.96l.19.27.1.14c.04.07.06-.04.09-.06l.4-.51 2.16-2.98c1.15-1.58 2.34-3.14 3.43-4.73.85-1.24 1.54-2.55 2.27-3.83.16-.28.3-.57.47-.85.62-1.04 1.02-1.24 1.81-1.03.16.03.32.04.44.08.21.07.31.25.43.59.14.36.07.74-.1 1.16-1.08 2.51-2.63 4.89-4.3 7.15-1.25 1.67-2.55 3.3-3.78 4.97l-.05-.03-.01-.02Z"/><path fill="#231123" d="M383.28 102.81c-.37.49-.81.96-1.37 1.35-.56.39-1.28.69-2.02.74-.54.05-1.06 0-1.53-.16-1.68-.66-2.64-2.2-2.8-3.69-.07-.66-.06-1.34.11-1.98.21-.82.8-1.53 1.5-1.89.23-.11.29.04.28.32-.01.27 0 .71-.07 1.05-.08.29-.09.58-.08.85-.04.25 0 .51.01.76.08.51.24.99.42 1.5.26.62.91.92 1.48 1.01.59.14 1.21-.06 1.81-.67.18-.18.35-.39.5-.61.1-.13.09-.17.16-.26.04-.09.06-.2.1-.3.13-.68-.02-1.56-.43-2.23-.32-.53-.9-.78-1.26-.84-.08-.03-.16.02-.24-.01-.27 0-.43-.15-.71-.59l-.2-.3c-.2-.31-.11-.76.51-1.06a2.62 2.62 0 0 1 1.55-.11c.55.1.98.4 1.36.7.75.64 1.2 1.44 1.48 2.28.2.63.31 1.3.26 2.04-.02.36-.1.76-.24 1.16-.09.2-.19.42-.29.6l-.25.38-.05-.03.01-.01Zm14.79 21.75c-.51.51-1.18.94-1.9 1.18-.36.12-.74.19-1.1.21-.18.02-.36.01-.54.01-.19-.01-.4-.05-.59-.08-.57-.09-1.12-.29-1.55-.61-.76-.58-1.26-1.33-1.57-2.13-.3-.8-.43-1.68-.21-2.52.19-.73.52-1.45 1.06-1.95.69-.64 1.59-.93 2.43-.93.26 0 .25.15.1.41-.14.27-.43.61-.69.91-.12.13-.26.22-.35.35-.09.13-.16.26-.26.36-.06.12-.13.22-.2.32-.05.11-.08.23-.13.33-.13.45-.13.95-.07 1.55.11.73.76 1.31 1.32 1.57.55.29 1.49.29 2.15-.17.21-.14.42-.31.61-.51.09-.1.18-.21.27-.33.09-.13.16-.24.19-.32.29-.57.21-1.61-.2-2.35-.31-.6-.91-.98-1.32-1.05-.09-.04-.18-.02-.26-.03-.29-.03-.46-.17-.75-.6l-.21-.29c-.1-.17-.13-.34-.04-.53.09-.18.27-.43.63-.54.51-.2 1.12-.16 1.68-.02.55.16 1.01.5 1.38.86.73.74 1.16 1.62 1.4 2.57.16.71.22 1.48 0 2.35-.08.4-.4.97-.55 1.19-.2.29-.42.57-.67.84l-.04-.04-.02-.01Zm7.571-19.72c-.66-.17-1.37-.47-1.97-1a3.88 3.88 0 0 1-1.18-1.96c-.13-.51-.24-1.05-.15-1.56.3-1.81 1.56-3.2 3.1-3.72.67-.23 1.44-.34 2.13-.21.87.16 1.73.71 2.07 1.55.09.27-.08.29-.35.24-.28-.05-.7-.05-1.03-.1-.29-.06-.59-.06-.87-.03-.27 0-.52.03-.73.09-.47.16-.92.43-1.4.76-.58.43-.76 1.23-.71 1.85.02.74.29 1.36 1.02 1.69.43.21 1.03.33 1.56.32.52.04 1.3-.61 1.68-1.35.32-.59.33-1.3.29-1.8-.02-.1-.05-.2-.06-.29-.07-.28.08-.36.34-.82.06-.1.11-.22.17-.32.1-.17.24-.28.46-.27.23 0 .53.13.78.43.68.94.7 2.01.47 2.89-.22.89-.64 1.7-1.3 2.43-.48.53-1.11 1.06-2.07 1.31-.24.05-.51.08-.76.09-.16 0-.32 0-.49-.02-.33-.02-.66-.07-1.01-.14v-.06h.01Zm20.24 19.54c-.62.28-1.37.48-2.17.43-.8-.04-1.59-.37-2.14-.81-.42-.32-.83-.67-1.09-1.14-.88-1.61-.75-3.48.13-4.84.38-.6.92-1.16 1.55-1.48.79-.41 1.8-.52 2.59-.06.24.15.12.27-.13.41-.25.13-.58.39-.87.56-.27.13-.5.32-.7.51-.22.16-.4.35-.51.52-.27.41-.46.9-.63 1.46-.18.7.17 1.43.58 1.89.47.57 1.07.89 1.85.7.47-.1 1.01-.38 1.43-.71.44-.29.65-1.28.49-2.1-.12-.66-.54-1.23-.89-1.6-.08-.07-.17-.13-.23-.19-.23-.18-.16-.33-.25-.86-.01-.12-.05-.24-.07-.35-.03-.19.01-.36.19-.5s.5-.23.88-.14c1.11.32 1.8 1.15 2.16 1.98.38.84.55 1.73.48 2.71-.05.71-.22 1.51-.82 2.31-.16.19-.35.38-.54.55-.13.1-.26.19-.4.28-.27.18-.56.36-.88.51l-.03-.05.02.01Z"/><path fill="#231123" d="m426.26 117.21-1.27 2.2-.31.53-.15.26s-.05.1-.08.12l-.09-.13-.73-1.02-.72-1-.71-1.11-.69-1.08-.36-.59c-.35-.58-.76-1.11-1.11-1.69-1.23-2.03-2.37-4.12-3.59-6.16-.54-.91-1.15-1.77-1.69-2.66-.36-.57-.73-1.12-1.08-1.7-.33-.59-.59-1.22-.86-1.85-.16-.4.02-.45.44-.31.41.15 1.14.44 1.74.97.47.51.9 1.04 1.35 1.57.44.53.89 1.05 1.25 1.64.76 1.14 1.48 2.32 2.14 3.53.8 1.45 1.84 2.82 2.76 4.24l.75 1.18.19.29c.06.1.14.21.13.23l.09.27c.06.19.16.36.27.55l.08.14.04.07s.03.04.04.01l.15-.23.45-.7.36-.59.44-.74c.88-1.5 1.8-2.98 2.62-4.48.64-1.17 1.12-2.4 1.66-3.6.11-.27.24-.52.39-.77.26-.47.5-.74.76-.89.25-.15.48-.19.77-.17.13 0 .26 0 .38.02.37.07.49.64.39 1.5-.16.59-.27 1.22-.52 1.78-.23.57-.48 1.14-.74 1.7-.53 1.12-1.12 2.23-1.74 3.31l-1.42 2.39c-.51.85-.81 1.33-1.75 3l-.05-.05.02.02Zm21.489 160.62c-.11 2.33-.2 4.66-.28 6.99-.03.85.02 1.7 0 2.55-.13 3-.19 5.99-.26 8.99-.02 1.33.02 2.67.1 3.98.05.85.08 1.69.11 2.54.01.42.01.85 0 1.28 0 .42-.13.86-.2 1.29-.12.54-.34.48-.75.06-.2-.21-.47-.51-.75-.88a3.24 3.24 0 0 1-.5-1.3c-.14-.86-.26-1.73-.36-2.6-.08-.87-.14-1.74-.19-2.61-.1-1.74-.12-3.49.03-5.26.16-2.11-.03-4.29 0-6.44.02-2.36.1-4.72.2-7.08l.17-4.35c.07-2.2.2-4.4.2-6.58 0-1.69-.13-3.36-.19-5.03-.01-.37-.05-.73-.05-1.1.04-1.38.27-1.81.94-2.09.14-.06.27-.15.38-.19.33-.13.94.45 1.11 1.46.52 3 .61 6.16.54 9.32l-.18 7.05h-.07Zm-83.669-19.26c6.57-.29 13.01-.19 19.49-.16 2.36.02 4.72-.05 7.07-.02 8.31.12 16.61.31 24.91.31 3.68 0 7.38-.1 11.03-.24 2.34-.1 4.69-.23 7.04-.3l3.52-.09c1.17-.02 2.35-.06 3.53.09 1.48.29 1.29.38.09 1.03-1.2.7-3.46 1.46-6.17 1.66-4.8.41-9.62.47-14.43.55-4.82.05-9.64.01-14.48-.13-5.79-.17-11.82 0-17.73-.04-6.5-.03-13.02-.11-19.49.02-1.99.05-3.98.11-5.94.27-.49.04-.97.09-1.45.15l-.7.1-.24.05-.18.04c-.24.05-.53.17-.49.47l-.02.39-.02.7c-.13 6.03-.16 12.15-.18 18.17.05 4.69.09 9.28.14 13.92 0 1.02.03 2.02 0 3.05-.05 1.91-.11 3.17-.31 4.05-.23.88-.51 1.37-.86 1.76-.16.18-.3.42-.44.52-.22.17-.4-.14-.63-.84-.23-.7-.42-1.79-.43-3.18-.2-8.25-.23-16.95-.23-25.7.01-3.26.03-6.52.04-9.79l.05-2.48c0-.13.02-.58.07-.96s.12-.77.22-1.11c.05-.17.11-.34.18-.51.13-.13.25-.27.37-.4.25-.26.6-.42.95-.58.37-.13.74-.25 1.14-.33l.43-.08.34-.05c.45-.07.88-.12 1.31-.17.85-.09 1.69-.15 2.52-.2v.07l-.02-.01Zm16.252 56.92 5.26-3.99 2.64-1.99c.44-.34.89-.66 1.35-.98l.7-.49.37-.25s.15-.1.26-.16l.32-.18c.21-.07.42-.12.63-.18.2-.05.47-.1.56-.1l.79-.06c.53-.04 1.01-.06 1.52-.09 1.99-.11 3.96-.25 5.93-.3 6.94-.15 13.88-.19 20.81-.2 3.08-.01 6.17-.09 9.22-.17 3.92-.02 7.86-.29 11.78.39 1.22.18 1.06.3.03.65-1.03.31-2.92 1.2-5.18 1.36l-5.99.3c-2 .08-4 .09-6 .13-4 .05-8.01.08-12.04.01-4.82-.07-9.83.23-14.74.43l-3.27.15-1.61.11-.78.08-.19.02h-.08l-.15.04-.1.06-.22.16-.47.34-.95.72-1.93 1.44-3.86 2.92a4594.5 4594.5 0 0 1-8.37 6.32l-1.87 1.39c-.3.19-.65.45-.91.58l-.61.12-.31.06-.15.03h-.04l-.02.01c.08-.13-.17.29.17-.29v-.01a.145.145 0 0 1-.02-.07c-.05-.17-.1-.35-.16-.53-.05-.19-.16-.34-.22-.58-.02-.28 0-.64.07-1.05.15-.81.32-1.64.49-2.44.25-1.2.49-2.4.73-3.6.24-1.1.48-2.21.71-3.31.15-.67.29-1.33.44-1.98.02-.19.14-.41.07-.56-.2-.06-.42-.06-.61-.08l-1.8-.06c-1.51-.04-3.02-.09-4.53-.13-.85-.03-1.68-.02-2.54-.06-3.17-.15-4.17-.39-4.8-1.24-.14-.18-.34-.36-.42-.53-.27-.54 1.06-1.06 3.39-1.06 2.22-.03 4.47-.02 6.76.05 1.15.02 2.3.1 3.48.23l.61.07.83.11c.55.07 1.11.15 1.52.36.4.19.71.51.86.84.16.31.29.75.14 1.32l-.46 1.86-.22.95-.41 1.88c-.26 1.26-.52 2.53-.78 3.8l-.1.5-.05.25-.01.01c-.01.02-.02.05 0 .05-.62.51 2.58-1.95 4.51-3.45l.05.05-.03.02Zm-240.2.66c-.03.09-.09.17-.16.24l-.09.12s-.04.04-.07.08c-.06-.01.49.16.26.09v.02l-.03.03-.32.48-.34.47-1.3.24-4.47.19-2.63.07-4.77.08c-1.57.02-3.15.12-4.72.13-2.78 0-5.55-.02-8.35-.1l-1.06-.04-.64-.03c-.28-.01-.53-.09-.79-.13-.26-.04-.52-.1-.75-.2-.21-.12-.37-.35-.5-.56-.26-.44-.36-1-.46-1.53-.22-1.52-.3-2.87-.31-4.29-.03-2.48-.04-4.96 0-7.41.06-3.14.06-6.32.79-9.42.26-.96.35-.81.56.03.23.85.66 2.38.72 4.17.05 3.17.18 6.34.36 9.49l.3 4.7c.03.75.09 1.6.16 2.2 0 .07-.01.16 0 .25.02.1.13.09.21.13.03 0 .05.02.1.02l.35.03c.23.02.47.03.71.04.48.02.96.04 1.45.04.97.01 1.95 0 2.93-.03l5.91-.18 10.9-.32h.28l1-.03c.07.01.02-.05 0-.07l-.07-.08-.16-.15-.34-.29-.73-.61-.39-.32-.62-.49c-3.18-2.5-6.38-5.02-9.53-7.5-2.47-1.92-4.98-3.7-7.41-5.67-.53-.44-1.08-.85-1.6-1.31-.97-.86-1.54-1.53-1.83-2.09-.3-.55-.31-1.02-.17-1.51.06-.22.1-.46.19-.63.3-.53 1.4-.18 2.8.93 4.29 3.39 8.77 6.93 13.28 10.5 1.69 1.34 3.39 2.68 5.09 4.02l3.57 2.82c.79.65 1.68 1.31 2.22 1.93.54.62.59 1.11.55 1.47l-.09-.02h.01Zm98.279-111.66c-.75 1.24-1.85 2.3-3.12 2.97-1.27.69-2.68 1.01-4.05 1.03-1 .02-2.01-.03-2.97-.34-1.67-.49-3.25-1.6-4.28-2.96a9.613 9.613 0 0 1-1.98-4.62c-.2-1.49-.07-3.09.62-4.5.38-.93 1.11-1.7 1.9-2.27l.62-.39c.22-.11.46-.17.68-.24.45-.17.92-.22 1.39-.24.58-.02.55.27.27.83-.17.33-.35.67-.52 1-.09.19-.19.38-.29.56-.05.1-.12.15-.15.27-.06.07-.11.15-.18.21-.25.21-.41.47-.58.71-.09.11-.13.26-.2.38-.09.11-.17.22-.22.35-.29.48-.42 1.04-.49 1.64-.12 1.2.15 2.59.79 3.89l.33.57.41.52c.29.32.6.59.97.82.73.46 1.59.75 2.46.91 1.91.37 4.02-.1 5.39-1.5.85-.82 1.42-2.04 1.64-3.25.29-1.82-.34-3.82-1.85-5.01-1.13-.97-2.62-1.29-4.03-1.36h-.94c-.59 0-.98-.06-1.28-.16a1.6 1.6 0 0 1-.4-.28c-.12-.13-.23-.28-.33-.42-.09-.13-.2-.24-.27-.34-.1-.17-.04-.35.17-.68.2-.34.59-.64 1.15-.8.41-.11.84-.23 1.28-.3.44-.05.89-.06 1.35-.06.45.04.92.08 1.38.16.46.12.92.24 1.36.43 1.78.72 3.41 2.09 4.41 3.9.74 1.34 1.07 2.92.97 4.44-.08 1.54-.61 2.91-1.34 4.17l-.06-.03-.01-.01Zm19.03-30.13c-.34 3.81-1.18 7.98.24 11.67.82 2.13 2.43 3.67 4.75 3.97 2.77.36 4.97-1.33 6.49-3.48 1.84-2.6 2.85-5.77 3.85-8.76.56-1.68-2.1-2.41-2.65-.73-.78 2.34-1.57 4.72-2.79 6.87-.55.96-1.16 1.86-2.01 2.58-.61.52-1.4.83-2.14.83-.38 0-.67-.05-1.14-.2-.25-.08-.09-.03-.03 0-.1-.04-.19-.09-.28-.14-.09-.05-.18-.1-.26-.16-.32-.2.17.17-.11-.08a5.66 5.66 0 0 1-.43-.42c-.03-.04-.16-.2-.01 0-.06-.08-.12-.17-.17-.25-.1-.16-.2-.32-.28-.49-.05-.09-.09-.19-.14-.29-.04-.09-.04-.08.01.03-.02-.06-.05-.12-.07-.19-.59-1.8-.66-3.43-.57-5.42.08-1.79.34-3.55.5-5.33.07-.74-.68-1.38-1.38-1.38-.8 0-1.31.63-1.38 1.38v-.01Zm22.948-7.08c-1.41 2.62-2.4 5.52-3.05 8.49-.23 1.09-.34 2.19-.48 3.29-.48 3.86-.46 7.87.74 11.57.54 1.63 1.36 3.17 2.38 4.51.31.45.71.81 1.07 1.23.4.36.79.74 1.2 1.1.41.35.82.73 1.27 1.04.23.16.43.35.66.52l.69.49c.57.42.45.51-.22.51-.33 0-.83.01-1.41-.07-.56-.11-1.24-.27-1.85-.65-2.22-1.29-3.97-3.35-5.14-5.62-1.15-2.3-1.71-4.79-1.91-7.26-.23-2.95-.31-6.01.13-8.96.48-3.24 1.37-6.41 2.68-9.42.81-1.84 1.75-3.65 3-5.29.9-1.24 2.17-2.43 3.59-3.15 1.42-.74 2.93-1.2 4.45-1.48 2.37-.4 4.81-.53 7.24.24.53.15 1.05.38 1.57.63 1.85 1.18 2 2.13 1.74 2.8-.06.16-.11.34-.19.46-.15.2-.43.2-.77.09-.17-.05-.36-.14-.56-.25-.23-.08-.46-.19-.7-.33a11.74 11.74 0 0 0-5.07-1.11c-1.82-.02-3.74.23-5.42.91-.31.12-.63.24-.91.41-.3.14-.58.3-.83.48-.28.16-.51.36-.73.56-.23.17-.46.45-.7.69-.92 1.03-1.73 2.28-2.42 3.6l-.06-.03h.01Z"/><path fill="#231123" d="M286.621 180.59c-.23 1.55-.84 3.28-1.4 4.51-.41.9-.88 1.78-1.43 2.6-.31.46-.4.59-.74.97-.15.17-.31.34-.47.5-.06.06-.13.12-.19.18-.04.03-.43.36-.22.2-.29.23-.62.43-.96.58.25-.11-.24.08-.35.11-.11.03-.23.06-.35.07.25-.04 0 0-.11 0-.09 0-.64-.05-.37 0-.21-.04-.42-.09-.63-.16-.03 0-.24-.1-.06-.02-.1-.04-.19-.1-.29-.15-.06-.03-.13-.08-.18-.12.25.18-.02-.02-.07-.07-.49-.53-.84-1.19-1.1-2.01-.3-.95-.51-2.05-.61-2.93a30.51 30.51 0 0 1-.08-5.49c.02-.27.04-.55.07-.82 0-.09.02-.17.03-.26.02-.17.02-.17 0 0l.03-.23c.11-.73-.18-1.48-.96-1.69-.65-.18-1.58.22-1.69.96-.35 2.37-.42 4.8-.19 7.19.23 2.39.65 5 2.23 6.87 1.48 1.76 4.03 2.08 6.05 1.13 2.02-.95 3.47-3.03 4.48-4.96 1.01-1.93 1.89-4.08 2.2-6.24.11-.73-.18-1.48-.96-1.69-.65-.18-1.58.22-1.69.96l.01.01Zm-23.131 29.86c1.59 3.98 5.81 6.36 10.05 5.63.71-.12 1.17-1.03.96-1.69-.25-.77-.93-1.09-1.69-.96-.05 0-.42.04-.09.02-.08 0-.15.02-.23.02-.21.02-.42.02-.64.02-.19 0-.39-.01-.58-.03-.14-.01-.23-.03-.04 0l-.34-.06c-.38-.07-.75-.18-1.12-.31-.09-.03-.18-.07-.27-.1-.15-.06.19.09-.05-.02-.19-.09-.38-.19-.57-.29-.17-.09-.34-.2-.5-.3-.08-.05-.16-.11-.24-.16 0 0-.28-.21-.14-.1.14.11-.11-.09-.13-.11-.09-.08-.18-.15-.26-.23a7.927 7.927 0 0 1-.79-.85c.17.22 0 0-.03-.05-.06-.08-.11-.16-.16-.24-.12-.18-.22-.36-.32-.55-.04-.09-.09-.17-.13-.26-.13-.26.07.2-.05-.1-.27-.67-.93-1.21-1.69-.96-.64.21-1.25.98-.96 1.69l.01-.01Zm10.561-50.64c-4.43-5.16-11.62-6.67-18.11-5.78-.87.12-1.35 1.23-1.13 2 .26.94 1.13 1.25 2 1.13 5.38-.73 11.32.72 14.95 4.95.57.67 1.71.59 2.3 0 .66-.66.57-1.63 0-2.3h-.01Z"/></svg>