<svg xmlns="http://www.w3.org/2000/svg" width="496" height="496" fill="none"><path fill="#F58A07" d="M242.525 141.35s7.564 11.056 5.427 29.913c-1.707 14.995-13.001 27.852-18.046 29.798-5.046 1.946-25.916 1.297-25.916 1.297s-13.593-7.544-16.216-10.711c-2.623-3.157-7.154-16.864-7.154-16.864s-11.713-6.229-13.144-12.152c-1.44-5.924 8.528-12.305 8.528-12.305l13.468 8.26 5.256-16.234s14.403-8.88 17.903-6.686c3.501 2.184 9.339 8.117 9.339 8.117l5.608-11.046 14.947 8.604v.009Z" opacity=".1"/><path fill="#231123" d="M234.703 160.818c-.524 2.728-.419 5.628.973 8.099 1.317 2.327 3.682 3.853 6.296 4.321.82.143 1.669-.22 1.907-1.078.21-.754-.257-1.755-1.077-1.908a10.301 10.301 0 0 1-1.689-.458c-.105-.038-.086-.028.067.029-.057-.029-.124-.057-.181-.086-.115-.057-.239-.115-.353-.172a6.506 6.506 0 0 1-.658-.391c-.038-.028-.363-.257-.201-.133.163.124-.19-.163-.229-.191a6.702 6.702 0 0 1-.524-.515c-.086-.086-.162-.181-.239-.277-.209-.248.134.22-.057-.076-.133-.21-.276-.41-.391-.62-.114-.21-.229-.439-.334-.668.162.334-.009-.048-.028-.095a5.185 5.185 0 0 1-.124-.363 9.795 9.795 0 0 1-.201-.753c-.028-.134-.057-.258-.076-.391-.019-.124-.057-.401-.019-.115a10.839 10.839 0 0 1-.067-1.669c.01-.315.038-.63.067-.944a.623.623 0 0 1 0 .038c.009-.076.019-.153.038-.229.029-.172.057-.353.095-.525.163-.82-.228-1.669-1.077-1.907-.763-.21-1.746.257-1.908 1.077h-.01Zm-4.693 28.454c.487 3.319 3.215 6.19 6.448 6.982.783.191 1.717-.248 1.908-1.078.191-.83-.238-1.698-1.078-1.908-.334-.085-.639-.209-.963-.314.429.133.172.076.057.019l-.229-.115c-.152-.076-.295-.162-.439-.248a6.449 6.449 0 0 1-.419-.276c-.067-.048-.134-.105-.201-.153.382.277.124.095.048.029a7.512 7.512 0 0 1-.734-.706c-.115-.124-.21-.277-.325-.391l.143.181-.104-.134a7.437 7.437 0 0 1-.649-1.087c-.038-.076-.067-.162-.105-.229l.086.219c-.019-.047-.038-.104-.067-.152a6.219 6.219 0 0 1-.381-1.469c-.048-.353-.42-.754-.716-.925-.334-.191-.82-.277-1.192-.153-.372.124-.735.353-.925.715-.21.392-.22.754-.153 1.193h-.01ZM19.554 414.122c-.677.048-1.23-.515-1.717-.859-.153-.114-.114-.352.076-.438.382-.153.763-.382 1.154-.554.058 0 .334-.171.735-.19.4-.048.925-.115 1.478-.182 1.116-.171 2.356-.238 2.995-.295 1.221-.105 2.442-.115 3.663-.105l7.46.028c.552 0 1.106.039 1.659.115 1.889.248 3.787.296 5.685.277.315 0 .639.019.944-.077.506-.162 5.657-.038 6.324.067 1.65.248 3.31.439 4.96.668.239.028.496 0 .706.143.486.315 1.002.295 1.517.343.715.076 1.43.172 2.146.324.362.105.706.248 1.03.506.296.2.067.506-.048.553-.334.096-.105.315-.095.477 0 .057 0 .124-.02.172-.047.133-1.02.191-2.107.334-1.068.114-2.204.267-2.413.248-.03 0-.42 0-.992-.01h-2.137c-1.583.019-3.234.038-3.567.057-.353.019-.706-.057-1.06-.105-.161-.028-4.921.115-5.112.105-.982-.047-1.974.048-2.947-.229-.191-.057-.391-.047-.592-.038-1.697.019-3.386-.114-5.074-.21-.868-.047-1.727-.028-2.595-.047-.152 0-.314-.048-.467-.067-.2-.029-.391-.067-.591-.067-2.051-.009-4.102-.191-6.153-.124-.238 0-.915-.076-1.612-.162-.686-.086-1.392-.229-1.66-.219-.304-.01-1.296-.487-1.564-.43l-.01-.009Zm152.768 4.569c.591.028 1.078.267 1.516.353.144.028.115.095-.047.133-.325.086-.649.2-.983.324-.105.039-.954.296-1.907.659-.964.286-2.042.448-2.576.601-1.049.295-2.117.324-3.176.391l-6.467.391a8.15 8.15 0 0 1-1.44-.029c-1.651-.172-3.291-.143-4.932-.038-.276.019-.553 0-.811.124-.438.172-4.836.343-5.389.324a89.354 89.354 0 0 0-4.244-.19c-.201 0-.411.057-.611-.048-.458-.229-.887-.124-1.316-.086-.601.057-1.202.105-1.822.114-.305 0-.62-.076-.935-.133-.286-.048-.219-.429-.133-.487.248-.171-.01-.295-.067-.429-.019-.048-.048-.114-.038-.152 0-.048.839-.449 1.745-.83.906-.372 1.879-.716 2.07-.754.019 0 .363-.076.878-.181.515-.095 1.192-.219 1.888-.353 1.393-.238 2.852-.381 3.148-.429.305-.048.629 0 .944.028.153 0 4.312-.419 4.474-.41.858 0 1.717-.133 2.566.105.171.048.343.029.515.019 1.469-.095 2.938-.038 4.416.029.754.029 1.507-.019 2.251-.019.134 0 .267.038.41.048.172.019.344.057.515.047.887-.028 1.784 0 2.671 0 .887.019 1.784-.028 2.671 0 .2 0 .801.105 1.402.191.601.086 1.211.153 1.45.229.267.067 1.144.467 1.373.448l-.009.01Zm47.396-7.183c.43-.047.811.096 1.155.181.105.029.114.144 0 .201-.229.105-.458.229-.697.353-.066.038-.686.267-1.383.62-.171.076-.353.19-.524.257-.182.057-.353.115-.525.162-.334.105-.63.201-.83.268-.772.276-1.564.448-2.356.543-1.612.22-3.224.449-4.845.63a5.994 5.994 0 0 1-1.088.019c-1.249-.076-2.489-.029-3.739.038-.21.01-.42 0-.62.105-.324.21-3.748.143-4.197.019-.563-.134-1.116-.258-1.65-.382a22.663 22.663 0 0 1-1.66-.419c-.152-.057-.333-.057-.457-.21-.287-.343-.63-.372-.973-.515-.468-.191-.926-.325-1.364-.639-.22-.143-.382-.382-.554-.573-.152-.171.115-.41.191-.419.239-.019.153-.229.2-.353.02-.048.039-.105.067-.134.01-.019.191-.019.439-.019.258 0 .525.048.887 0 .687-.047 1.355-.143 1.507-.152h.611c.343.038.82.066 1.316.066a24.2 24.2 0 0 0 2.222-.019c.22-.019.439.058.659.105.104.029 3.109-.2 3.233-.219.62.019 1.25-.105 1.879.124.124.048.248.028.382.019 1.078-.038 2.165.029 3.252.067.554.009 1.107-.048 1.66-.058.095 0 .2.029.305.039.124.009.258.038.382.028 1.316-.057 2.594-.114 3.949-.172.305 0 1.774.105 2.136.191.201.038.878.286 1.05.239l-.02.009Z"/><path fill="#F58A07" d="M265.932 293.498c-.734 1.86 1.765 7.326 4.579 6.267 2.814-1.059 13.964-6.267 13.964-6.267s5.456-7.068 6.706-7.554c1.249-.486 3.996-10.588 3.996-10.588v-12.037l-1.841-1.813-3.166 5.294s-1.984-1.774-2.366-1.793c-.382-.019-2.366 3.539-2.366 3.539l-7.773 5.389-3.234 6.83-.172 4.54-8.327 8.184v.009Zm-36.274-20.956s-.983-4.435 3.328-5.322c4.312-.887 9.663-2.966 11.122-4.75 1.46-1.784 10.159-13.707 10.159-13.707s6.095-4.378 11.303-3.033c5.208 1.345 8.699 5.132 9.252 7.344.553 2.213-3.205 11.513-5.017 12.925-1.812 1.412-5.389 3.51-5.389 3.51s-1.841 1.584-2.681 1.231c-.839-.353-3.271-1.593-2.441-2.681.829-1.087 1.755-2.756.486-3.176-1.269-.42-3.73 2.203-4.292 3.672-.563 1.469-4.312 6.83-4.312 6.83l-11.694 1.183-10.349 5.475.534-9.501h-.009Z" opacity=".1"/><path fill="#231123" d="M251.92 184.121s.592-1.879 0-3.958c-.591-2.08-3.682-6.325-5.055-3.272-2.051 4.569-2.575 10.807-2.575 10.807l7.63-3.568v-.009Z" opacity=".1"/><path fill="#231123" d="M346.055 224.354c1.593.649 3.205 1.259 4.827 1.86 1.612.611 3.243 1.193 4.884 1.727 1.201.381 2.422.677 3.624 1.011.868.238 1.736.458 2.595.639.429.086.849.152 1.249.2.181.01.401.038.534.029.134 0 .182 0 .258-.038.048-.029.095-.039.162-.105.076-.058.162-.134.238-.229.163-.172.306-.401.439-.639.267-.496.487-1.069.677-1.66.372-1.192.62-2.48.83-3.768.315-1.946.477-3.939.668-5.914l.181-1.907c.077-.639.191-1.278.305-1.908.21-1.278.62-2.537 1.164-3.729.363-.744.468-.573.534.143.058.429.115.925.182 1.449.104.592.152 1.269.095 1.975-.095 2.537-.391 5.093-.639 7.697-.143 1.307-.305 2.614-.553 3.949-.258 1.326-.563 2.671-1.154 4.035-.21.448-.42.897-.744 1.345-.325.448-.668.897-1.374 1.307-.229.076-.458.162-.687.229-.238.028-.458.057-.629.057-.353 0-.697 0-1.002-.038a22.356 22.356 0 0 1-1.841-.229 45.242 45.242 0 0 1-3.51-.735 95.184 95.184 0 0 1-10.168-3.224 117.929 117.929 0 0 1-6.076-2.48c-1.517-.667-3.024-1.392-4.502-2.232-.735-.419-1.469-.858-2.175-1.44-.353-.286-.715-.61-1.04-1.097a7.431 7.431 0 0 1-.581-1.297c-.849-2.671-.926-5.227-.859-7.774.029-.563.048-1.106.105-1.66.248-2.06.563-2.68 1.021-3.1.105-.095.209-.228.314-.286.325-.2.62.678.84 2.204.152 1.135.238 2.26.381 3.386a60.85 60.85 0 0 0 .353 3.31c.105 1.068.258 2.136.544 2.976.076.2.133.419.229.553l.057.114.029.058v.019h.009c.305-.182-.419.248-.334.2h.01l.019-.019.181-.095s.153-.086.143-.077v.01c.01.009-.009 0 .029.038.191.2.591.505 1.011.782 1.288.83 2.842 1.593 4.388 2.308a78.203 78.203 0 0 0 4.778 2.003l-.019.067Z" opacity=".3"/><path fill="#231123" d="M333.369 197.627c.124-.782.258-1.573.42-2.356.057-.286.067-.581.143-.868.248-1.011.668-1.993 1.135-2.937.2-.42.401-.84.649-1.231.305-.496.591-1.049 1.182-1.326.172-.095.239 0 .306.239.038.219.219.677.105.954-.21.486-.325 1.02-.515 1.497-.21.467-.42.954-.649 1.459-.267.601-.353 1.288-.477 1.956a33.312 33.312 0 0 0-.382 2.251c-.066.467-.124.944-.171 1.412-.067.715-.191 1.449-.21 2.165-.019.563.067 1.116.029 1.669 0 .124 0 .239-.01.363-.057.457-.172.591-.506.677-.076.019-.152.047-.228.057-.248.029-.458-.162-.563-.506-.153-.505-.325-1.02-.391-1.535a16.913 16.913 0 0 1-.067-1.565c-.019-.782.067-1.564.153-2.356h.047v-.019Zm-.839 23.198a16.035 16.035 0 0 1-.563-1.946c-.057-.238-.133-.467-.172-.706-.143-.849-.095-1.717-.057-2.556.01-.372.048-.744.067-1.107.038-.467.114-.934.238-1.383.039-.143.067-.114.105.01.029.124.096.362.105.62.038.935.21 1.841.315 2.747.057.544.277 1.087.41 1.622.162.591.363 1.173.601 1.736.143.352.305.696.496 1.02.267.506.563 1.011.935 1.45.296.334.658.591 1.011.839.076.058.162.105.238.163.277.219.267.391.096.724-.038.077-.077.163-.124.229-.153.239-.429.325-.725.21-.83-.372-1.488-1.068-2.022-1.831a8.853 8.853 0 0 1-.983-1.822l.029-.019Z"/><path fill="#231123" d="M331.166 221.283a8.222 8.222 0 0 1-.134-.935c-.019-.105-.047-.219-.038-.334.038-.4.134-.782.229-1.144.038-.163.057-.325.067-.477.019-.201.009-.42.191-.592.095-.095.953.305.982.477.019.324.038.62-.076.944-.077.201.047.392.086.582.038.22.047.439.105.658.028.134.066.277.124.401.076.2.143.41.286.572.114.124.295.172.448.239.029.019.076.019.105.038.105.067.067.172-.172.506l-.162.228c-.181.248-.401.411-.563.392-.486-.039-.849-.334-1.106-.678-.21-.248-.334-.553-.429-.868l.038-.019.019.01Z"/><path fill="#231123" d="M332.12 211.449c.086-1.784.219-3.568.381-5.352.057-.648.067-1.297.143-1.945.286-2.28.611-4.55 1.04-6.801.21-.992.334-2.003.553-2.995.277-1.269.639-2.519.983-3.768.114-.391.124-.334.133.019.01.343.048.992.048 1.736 0 1.335.086 2.661-.086 3.958l-.2 1.956c-.115.648-.22 1.288-.334 1.946-.277 1.554-.334 3.195-.458 4.798a138.69 138.69 0 0 0-.362 5.303 123.117 123.117 0 0 0-.105 3.272c0 1.65-.048 3.329.095 4.941.115 1.249.439 2.441.925 3.481.105.229.248.429.344.658.4.821.505 1.097.314 1.555-.038.105-.066.219-.124.305-.152.296-.705.191-1.325-.448-.954-.935-1.393-2.251-1.679-3.491-.277-1.259-.344-2.528-.372-3.739-.057-1.803-.01-3.615.038-5.418h.048v.029Z"/><path fill="#231123" d="M471.791 225.441c.458-3.929.678-7.878.649-11.789-.01-1.431-.172-2.843-.258-4.245-.114-1.23-.238-2.461-.524-3.624-.277-1.145-.677-2.318-1.297-3.11-.687-.792-1.755-1.583-2.747-2.318a61.2 61.2 0 0 0-3.167-2.089c-1.917-1.182-3.921-2.27-5.914-3.281-1.288-.648-2.604-1.24-3.901-1.86l-1.927-.963-.973-.468c-.315-.171-.62-.381-.935-.553-.772-.496-.677-.439.134-.448.839-.096 2.356-.01 3.977.515a16.41 16.41 0 0 1 2.099.83c.687.305 1.364.62 2.041.944a87.954 87.954 0 0 1 3.997 2.051 67.832 67.832 0 0 1 3.863 2.346c1.268.83 2.508 1.698 3.71 2.728.363.286.716.658 1.078 1.011.181.22.372.439.544.659l.391.677c.257.448.419.915.62 1.383.143.467.334.935.439 1.402.496 1.879.744 3.768.848 5.628.153 4.101-.162 8.136-.562 12.152-.239 2.47-.534 4.931-.859 7.392-.486 3.72-1.116 7.43-1.698 11.103-.438 2.861-.868 5.666-1.297 8.489-.105.62-.2 1.23-.305 1.86-.191 1.164-.477 1.898-.677 2.413-.21.515-.439.782-.706.983-.115.095-.239.219-.334.267-.296.162-.448-.84-.305-2.566.601-5.065 1.564-10.33 2.356-15.653.601-3.949 1.173-7.907 1.583-11.885h.048l.009.019Z" opacity=".3"/><path fill="#231123" d="M474.71 209.064a24.556 24.556 0 0 0-.467-3.653c-.086-.439-.248-.859-.353-1.288-.42-1.517-1.002-3.014-1.86-4.349-.353-.611-.801-1.164-1.269-1.689-.305-.334-.648-.62-.963-.944-.315-.324-.63-.668-.973-.983-.21-.209-.143-.238.124-.209.267.028.801.076 1.335.305 1.755 1.001 3.177 2.613 3.911 4.493.467 1.106 1.011 2.222 1.355 3.395.391 1.278.581 2.614.696 3.921.076.81.105 1.621.124 2.422a46.576 46.576 0 0 1-.076 3.634c-.048.935 0 1.851-.105 2.767-.019.2-.029.4-.058.6-.114.754-.219.983-.438 1.126-.048.029-.096.076-.143.095-.153.058-.268-.257-.344-.81-.086-.83-.276-1.679-.305-2.528-.038-.849-.076-1.698-.124-2.547 0-1.259 0-2.518-.105-3.758h.038Z"/><path fill="#231123" d="M471.162 199.201c.935.84 1.955 1.65 2.785 2.776.296.41.572.839.763 1.307.649 1.64.754 3.281.906 4.902.048.725.134 1.45.124 2.166 0 .925-.038 1.85-.181 2.756-.048.286-.114.239-.191 0a7.06 7.06 0 0 1-.276-1.211c-.267-1.841-.401-3.634-.639-5.466-.143-1.097-.477-2.174-.992-3.09-.554-1.002-1.488-1.784-2.471-2.566a69.554 69.554 0 0 0-1.831-1.431c-.935-.706-1.879-1.411-2.852-2.041-.754-.505-1.536-.916-2.318-1.364-.172-.095-.343-.181-.515-.286-.62-.401-.744-.639-.706-.992 0-.086 0-.172.029-.239.066-.238.429-.267.973-.095.782.277 1.526.668 2.27 1.068a15.67 15.67 0 0 1 2.155 1.383c1.021.764 2.013 1.584 2.995 2.404l-.019.029-.009-.01Zm-70.556 40.329a13.583 13.583 0 0 1-.935-3.348c-.067-.41-.143-.82-.172-1.24a22.12 22.12 0 0 1 .191-4.35c.115-.629.181-1.268.324-1.879.191-.791.458-1.564.64-2.346.124-.487 0 .133.038 1.078.047.839.171 1.669.076 2.47-.019.811-.114 1.603-.219 2.404-.105.963 0 1.965.114 2.938.124 1.068.353 2.117.735 3.119.228.62.515 1.221.858 1.783.515.859 1.135 1.66 1.889 2.299.581.506 1.287.792 1.945 1.126.144.076.296.133.449.19.553.258.725.353.801.649.019.067.048.134.048.191.019.2-.277.286-.802.248-1.564-.124-3.033-1.107-4.082-2.308-.811-.888-1.44-1.927-1.927-3.005h.029v-.019Z"/><path fill="#231123" d="M401.741 240.808c-.773-1.211-1.231-2.575-1.431-3.93-.076-.496-.172-.982-.2-1.469-.086-1.736.095-3.424.305-5.084.105-.734.191-1.469.267-2.194.057-.934.277-1.86.487-2.785.076-.286.133-.238.219.01.076.257.248.725.305 1.278.134.973.038 1.927.01 2.89-.029.954-.162 1.889-.267 2.833-.134 1.125-.038 2.299.105 3.415.171 1.221.457 2.432 1.011 3.51a7.4 7.4 0 0 0 1.297 1.831 10.006 10.006 0 0 0 2.814 2.032c.82.401 1.688.649 2.566.906.19.057.391.095.581.162.687.325.868.525.916.887.01.086.029.172.029.248-.01.248-.372.353-.964.325-.438 0-.858-.115-1.268-.229-.42-.115-.84-.258-1.259-.42-.84-.324-1.67-.725-2.471-1.23-1.183-.754-2.279-1.746-3.081-2.976l.029-.02v.01Z"/><path fill="#F58A07" d="M381.853 119.326c-.419 1.87.677 14.632-1.764 15.033-2.442.4 9.509 6.448 10.54 4.588 1.03-1.86 2.842-15.605 2.146-15.605-.697 0-4.645-1.593-4.645-1.593l-6.267-2.423h-.01Z" opacity=".5"/><path fill="#231123" d="M392.737 133.815c-.401.735-.849 1.421-1.469 2.032-.22.219-.43.439-.678.629a6.561 6.561 0 0 1-2.928 1.164 6.834 6.834 0 0 1-1.402.057c-.582-.067-1.24-.248-1.583-.791-.115-.153-.058-.182.143-.22.133-.038.267-.067.381-.095.153-.057.305-.105.429-.067.229.029.468.038.687.038.22.019.449.029.687.01a6.975 6.975 0 0 0 1.421-.258c.582-.162 1.088-.582 1.536-1.001.496-.449.897-1.011 1.23-1.641.201-.382.382-.782.525-1.211.21-.639.401-1.298.467-1.984.067-.525-.038-1.069 0-1.593 0-.115 0-.229.01-.353.067-.429.229-.563.582-.63.076-.019.162-.038.238-.038.258-.019.468.181.601.515.096.248.134.506.181.763.048.258.086.525.048.782a9.44 9.44 0 0 1-.248 1.584 11.357 11.357 0 0 1-.839 2.327h-.038l.019-.019Z"/><path fill="#231123" d="M391.497 137.611c-.258.134-.544.21-.802.277-.095.029-.171.095-.267.105-.353.057-.696.057-1.02.057-.143 0-.277.029-.41.067-.172.038-.353.133-.535-.019-.105-.086.039-1.269.134-1.326.219-.095.42-.143.696-.067.172.048.286-.105.42-.171.153-.067.305-.144.458-.229.095-.048.2-.096.286-.163.133-.095.286-.19.353-.343.048-.124 0-.286-.029-.429 0-.029-.028-.067-.028-.096 0-.095.133-.066.61.086l.324.105c.372.124.649.286.706.439.172.458 0 .849-.238 1.154-.181.229-.41.41-.639.582l-.029-.038.01.009Z"/><path fill="#231123" d="M433.933 179.695c2.318-9.825 4.035-19.869 5.056-29.941.362-3.672.524-7.364.601-11.027.038-3.214-.01-6.467-.611-9.462-.162-.725-.353-1.478-.629-2.031-.22-.554-.678-1.078-1.136-1.593-1.011-1.002-2.308-1.851-3.672-2.595-2.756-1.488-5.818-2.594-8.899-3.605-3.091-1.002-6.238-1.851-9.405-2.671-5.628-1.44-11.36-2.623-17.007-4.016-1.803-.429-3.672-.992-5.389-1.421-1.775-.429-3.587-.801-5.418-1.221-1.832-.429-3.663-.935-5.475-1.612a18.348 18.348 0 0 1-2.642-1.23c-.43-.248-.849-.487-1.25-.773-.391-.296-.858-.496-1.135-.954-.42-.467-.63-.887-.782-1.125-.143-.248-.191-.372-.143-.401.105-.067.572.305 1.573.553 1.956.611 5.266 1.126 9.329 2.022l5.523 1.269c.944.219 1.898.477 2.861.753.897.268 1.775.516 2.681.764 3.605.963 7.297 1.812 10.988 2.708 7.383 1.813 14.871 3.577 22.139 6.611 2.165.934 4.34 1.984 6.4 3.433 1.021.744 2.022 1.622 2.852 2.776.21.286.401.582.563.925.181.334.324.668.42.973.228.63.391 1.25.524 1.86.525 2.461.697 4.874.773 7.278a93.264 93.264 0 0 1-.096 7.144c-.572 10.378-2.079 20.623-4.111 30.762a176.17 176.17 0 0 1-2.155 9.319c-.83 3.091-1.698 6.162-2.976 9.176a18.412 18.412 0 0 1-.945 1.898c-.381.62-.753 1.288-1.631 1.87-.343.143-.715.324-1.03.372-.305.047-.629.105-.935.114-.582 0-1.163 0-1.698-.076-1.096-.115-2.136-.343-3.166-.582-2.061-.496-4.045-1.116-6.029-1.755-3.958-1.278-7.831-2.699-11.694-4.073-6.972-2.48-13.811-4.893-20.765-6.973-1.536-.448-3.043-.848-4.588-1.259-2.871-.744-4.741-1.23-6.047-1.593-.649-.219-1.164-.381-1.593-.553a9.421 9.421 0 0 1-1.078-.534c-.277-.162-.668-.324-.84-.477-.286-.248.172-.448 1.326-.639 1.135-.124 2.957-.191 5.189.181 3.32.515 6.563 1.393 9.825 2.309 3.252.934 6.496 1.984 9.729 3.081 6.496 2.146 12.906 4.731 19.392 6.953 2.27.782 4.55 1.517 6.82 2.099 1.135.305 2.26.524 3.338.705.515.048 1.069.124 1.498.105.467.029.782-.124.744-.066-.086.104.315-.325.563-.792.276-.477.534-1.04.782-1.612a41.354 41.354 0 0 0 1.316-3.653c.801-2.519 1.469-5.113 2.089-7.727h.076v.029Z" opacity=".3"/><path fill="#231123" d="M442.308 141.179a79.38 79.38 0 0 0 .105-6.744c-.019-.82-.124-1.641-.153-2.451-.143-2.862-.505-5.666-2.27-7.85-.763-.973-1.745-1.775-2.728-2.547-1.307-.954-2.699-1.851-4.082-2.776-.43-.286-.363-.267.066-.143.43.124 1.26.267 2.185.582.82.286 1.602.658 2.394 1.059.782.41 1.574.858 2.232 1.497 1.354 1.202 2.518 2.795 3.081 4.579.648 2.117.935 4.311 1.059 6.4.143 2.308.171 4.626.105 6.944a92.242 92.242 0 0 1-.21 4.264c-.172 2.146-.439 4.292-.706 6.409-.21 1.651-.353 3.272-.658 4.884-.067.353-.124.706-.21 1.059-.334 1.316-.563 1.698-.925 1.917-.086.048-.172.115-.248.143-.248.077-.334-.505-.277-1.488.067-1.469.181-2.947.305-4.445.162-1.488.315-3.004.449-4.511.19-2.251.324-4.512.438-6.773h.048v-.009Z"/><path fill="#231123" d="M442.995 129.866c.019-.582.019-1.164-.029-1.745-.009-.21-.086-.42-.105-.63-.067-.753-.086-1.536-.257-2.289a6.837 6.837 0 0 0-.296-.973c-.153-.401-.334-.801-.429-1.231-.029-.133.095-.181.276-.143.182.039.439.163.592.372.505.783.944 1.612 1.144 2.528.124.544.372 1.078.477 1.641.124.62.201 1.24.258 1.869.038.382.048.773.067 1.154.038.582.009 1.174.028 1.746 0 .448.134.897.124 1.345 0 .095.019.2 0 .296-.038.372-.171.476-.582.505-.095 0-.19.019-.276.019-.305 0-.563-.172-.658-.429-.124-.391-.296-.773-.325-1.154-.047-.382-.066-.763-.095-1.154 0-.573.048-1.155.038-1.736h.038l.01.009Z"/><path fill="#231123" d="M47.225 401.264c2.804.181 5.494.687 7.898.477.877-.076 1.66-.353 2.365-.658 1.212-.506 2.251-1.593 3.081-2.986.85-1.383 1.526-2.985 2.27-4.616.668-1.441 1.307-2.957 2.3-4.379.333-.448.667-.896 1.087-1.306.371-.439.877-.782 1.402-1.059.534-.258 1.097-.525 1.736-.534.314 0 .639.067.944.171.305.105.591.201.849.353.324.182.42.325.391.391-.029.077-.22.096-.496.248-.277.144-.64.401-.887.907-.134.229-.239.467-.353.648a2.7 2.7 0 0 1-.41.401c-.277.191-.506.486-.773.696-.257.267-.534.506-.772.83-.496.62-.964 1.345-1.393 2.175-.878 1.64-1.65 3.548-2.766 5.437-.668 1.125-1.364 2.327-2.347 3.424-.963 1.097-2.337 2.051-3.748 2.432-3.11.887-6.01.439-8.709.258l-2.528-.162a54.642 54.642 0 0 0-2.508-.124c-2.518-.077-5.065-.067-7.46.438-1.85.392-3.576 1.174-4.778 2.232-.267.239-.458.506-.715.716-.43.429-.716.715-.983.916a2.266 2.266 0 0 1-.963.333c-.172.019-.353.077-.515.086-.267.01-.458-.162-.582-.553-.115-.382-.153-1.011.133-1.717.191-.534.468-1.04.792-1.517.324-.476.754-.858 1.183-1.22.868-.706 1.822-1.231 2.795-1.641 1.945-.82 3.968-1.145 5.932-1.307 2.92-.238 5.81-.057 8.556.134v.076h-.028Z" opacity=".25"/><path fill="#231123" d="M72.368 392.078c-.047 1.126-.2 2.223-.362 3.282-.057.391-.076.772-.143 1.154a76.843 76.843 0 0 0-.697 3.968 9.825 9.825 0 0 0-.076 1.755c.029.744 0 1.497 0 2.27 0 .238-.076.229-.238.057-.143-.171-.468-.496-.649-.935-.362-.772-.448-1.602-.486-2.422-.038-.821 0-1.631.19-2.423.2-.944.23-1.927.334-2.881.124-1.039.248-2.07.277-3.09.019-.63.01-1.259-.048-1.879-.067-.468-.095-.945-.229-1.326a3.623 3.623 0 0 0-.62-1.145 2.992 2.992 0 0 0-1.583-1.001c-.124-.019-.239-.038-.353-.038-.105-.01-.181-.039-.258-.058-.066-.038-.114-.124-.162-.19-.095-.124-.162-.325-.238-.563l-.105-.296c-.048-.152-.01-.296.114-.496s.363-.362.687-.448c.954-.067 1.88.362 2.585.925a5.821 5.821 0 0 1 1.583 2.137c.286.591.42 1.402.458 1.917.067.582.076 1.164.067 1.726h-.048Z"/><path fill="#231123" d="M70.947 387.691a1.365 1.365 0 0 0-.086-.391c-.019-.048-.057-.077-.076-.124a1.93 1.93 0 0 0-.258-.477c-.047-.067-.114-.105-.18-.143-.087-.048-.192-.067-.249-.172-.038-.067.258-.506.41-.467.248.085.468.238.61.477.077.133.22.219.316.343.105.134.19.286.267.439.047.095.086.19.124.286.057.152.076.305.133.448.038.115.124.22.181.334.01.029.038.048.038.076.03.105-.038.143-.276.182l-.162.019c-.191.019-.344 0-.41-.048-.182-.143-.239-.277-.306-.429a1.368 1.368 0 0 1-.085-.353h.019-.01Zm86.562-91.207c-.515-.429-48.027-2.203-48.027-2.203l-22.74-1.546s-7.153 10.874-7.993 17.589c-.839 6.725.086 22.387 2.89 26.985 2.805 4.597 16.312 16.845 16.312 16.845s19.42 10.244 23.083 11.722c3.662 1.479 10.358 3.768 8.918 4.512-1.44.744-12.81.429-13.907.286-1.097-.143-30.876-3.558-30.876-3.558s-6.372-1.116-7.736 2.728c-1.364 3.844-5.046 22.654-5.427 28.034-.382 5.37.267 17.856.267 17.856l14.06 2.823s30.427 1.441 37.972 2.757c7.545 1.326 34.529-3.129 34.529-3.129s20.327-6.934 23.77-10.301c3.444-3.377 8.49-10.292 8.757-11.914.267-1.612.457-16.139 0-18.218-.458-2.08-6.229-17.723-6.229-17.723l-8.833-15.691-7.726-11.741-5.494-9.358s-.181 0 2.242.811c2.422.811 9.681 10.95 15.261 19.029s13.917 26.183 16.177 34.711c2.671 10.053 3.482 21.805-3.433 30.284-2.929 3.587-2.709 4.045 2.871 4.579 5.58.534 14.927-3.577 18.867-6.734 3.939-3.157 8.67-12.601 9.033-14.766.353-2.165-1.336-17.97-1.336-17.97s-6.715-18.018-7.592-18.161c-.878-.144-14.919-20.356-16.55-22.568-1.631-2.213-12.953-16.473-13.64-17.38-.686-.906-6.772-10.73-6.772-10.73l-15.958-4.34-4.759-3.539.019.019Z"/><path fill="#231123" d="M221.645 226.882c-.791-.973-1.555-1.955-2.241-3.005-.258-.381-.544-.734-.763-1.135-.754-1.431-1.46-2.88-1.908-4.416-.229-.668-.448-1.326-.677-1.984a8.434 8.434 0 0 1-.468-2.633c0-.276.182-.286.477-.124.286.162.735.477.992.906.496.744.821 1.517 1.193 2.28.171.382.362.763.543 1.145.181.381.325.782.477 1.183.334.982 1.04 1.802 1.631 2.661.668.935 1.317 1.898 2.08 2.795.448.562.934 1.096 1.43 1.631.763.782 1.536 1.593 2.404 2.27.668.534 1.44.925 2.165 1.364.162.095.334.171.487.276.563.42.62.706.315 1.326-.067.143-.124.296-.21.42-.267.448-.763.61-1.278.429-1.517-.553-2.824-1.574-4.073-2.671-.926-.81-1.794-1.736-2.643-2.651l.048-.048.019-.019Z" opacity=".25"/><path fill="#231123" d="M237.193 278.351c.448 1.565.048 19.278-4.741 18.953-2.07-.143-4.12-2.06-3.777-7.173.343-5.103 3.281-8.641 3.281-8.641l5.227-3.139h.01Zm-8.728-9.462c-.019.172-.028.344-.047.506 0 .057.019.114.009.171-.029.21-.114.411-.162.601a.74.74 0 0 0-.01.248c0 .105.039.21-.057.315-.057.057-.725-.048-.782-.143-.076-.172-.124-.324-.048-.505.038-.115-.038-.21-.057-.306-.019-.114-.029-.229-.048-.353a.904.904 0 0 0-.047-.219c-.029-.105-.048-.219-.134-.305-.067-.067-.191-.086-.296-.115-.019 0-.057 0-.066-.019-.058-.038.019-.114.343-.353l.219-.162c.248-.181.477-.305.592-.296.343.02.496.201.553.43.048.162.057.334.076.505h-.038Z"/><path fill="#231123" d="M227.235 275.194c0-1.059-.067-2.108-.344-3.052-.105-.344-.276-.649-.429-.954-.515-1.078-1.497-1.822-2.833-2.137-.591-.114-1.24-.076-1.879-.066-.811 0-1.688.143-2.499-.277-.248-.114-.21-.114.019-.191.115-.038.277-.114.458-.21.095-.047.191-.114.296-.152a1.7 1.7 0 0 1 .324-.057c.801-.086 1.622-.239 2.499-.306.868-.028 1.917-.105 2.843.353 1.077.563 2.06 1.469 2.594 2.518.591 1.164.83 2.375.963 3.558.086.725.105 1.45.105 2.175 0 1.087-.076 2.165-.076 3.224 0 .82.095 1.631.114 2.432 0 .172.029.344.029.525 0 .649-.133.839-.61 1.001-.105.039-.22.086-.325.105-.362.086-.686-.19-.83-.696a14.49 14.49 0 0 1-.419-2.27c-.067-.754-.038-1.507-.038-2.251a61.988 61.988 0 0 0-.019-3.262h.057v-.01Z"/><path fill="#231123" d="M138.746 214.301a196.339 196.339 0 0 0-15.461 13.544 196.9 196.9 0 0 0-5.208 5.409c-6.105 6.371-11.809 13.153-17.112 20.231-1.202 1.554-2.337 3.166-3.444 4.788l-1.669 2.432c-.534.821-1.059 1.65-1.583 2.471-2.767 4.187-5.104 8.632-8.099 12.695-1.02 1.221-.982 1.002-.696-.353.21-1.402.859-3.863 2.27-6.409a119.667 119.667 0 0 1 3.94-6.677l2.07-3.282 2.165-3.224c1.43-2.165 2.995-4.225 4.531-6.324 1.583-2.06 3.252-4.063 4.921-6.056 4.054-4.732 8.213-9.711 12.62-14.318 4.864-5.046 10.034-9.796 15.414-14.288 1.66-1.374 3.319-2.757 5.046-4.045l2.566-1.974c.858-.658 1.745-1.269 2.613-1.898 2.623-1.946 5.37-3.72 8.089-5.533 2.728-1.755 5.465-3.519 8.251-5.188 4.34-2.576 8.708-5.037 13.611-6.582.544-.162 1.068-.343 1.612-.496.553-.134 1.097-.258 1.66-.391 1.039-.21 1.936-.286 2.67-.363.754-.009 1.355.02 1.851.077.992.133 1.555.467 1.974.868.191.191.439.372.534.553.163.305-.181.563-.896.763-.363.105-.811.172-1.355.267-.543.124-1.163.22-1.86.305-2.069.344-4.13.897-6.171 1.603-2.041.734-4.063 1.621-6.066 2.594-4.007 1.994-7.917 4.388-11.828 6.925-5.819 3.768-11.523 7.612-16.912 11.952l-.057-.048.009-.028Zm17.179 75.42a60.965 60.965 0 0 0 3.091 3.491c1.068 1.078 2.136 1.975 3.434 2.719 2.575 1.516 5.551 2.585 8.546 3.462 2.203.63 4.464 1.078 6.725 1.526 7.983 1.574 16.177 2.328 24.37 2.48 3.635.067 7.297-.086 10.903-.305 4.636-.296 9.214-.992 13.888-1.145 1.488.115 1.288.058.143.678-1.126.725-3.291 1.678-5.981 2.165-9.529 1.517-19.229 1.536-28.873.61-5.761-.572-11.78-1.135-17.608-2.413-3.195-.715-6.371-1.602-9.462-2.823-1.535-.63-3.052-1.355-4.511-2.242l-1.069-.706-1.03-.801c-.61-.582-1.259-1.144-1.822-1.755-2.795-2.957-5.236-6.124-7.64-9.319-3.606-4.865-6.963-9.93-10.111-15.052-2.451-3.977-4.855-7.888-6.848-12.123-.458-.916-.84-1.87-1.24-2.833-.392-.887-.582-1.688-.773-2.346-.162-.668-.315-1.193-.334-1.66 0-.954.134-1.507.401-1.965.124-.21.238-.467.372-.582.229-.2.515.067.849.677.333.62.677 1.555 1.173 2.805 2.9 7.363 7.459 14.717 12.133 21.909 3.529 5.313 7.23 10.607 11.312 15.481l-.047.048.009.019Z" opacity=".25"/><path fill="#231123" d="M188.499 261.564c-1.517-.496-3.52-.649-5.589-1.107-.754-.181-1.555-.343-2.29-.734-1.316-.668-2.365-1.689-3.147-2.785-.802-1.107-1.336-2.328-1.784-3.539-.401-1.078-.706-2.165-1.002-3.234-.391-1.364-.734-2.737-1.173-4.082-.133-.42-.076-.391.172-.086.238.305.696.868 1.078 1.621.658 1.326 1.211 2.69 1.812 3.968.534 1.317 1.126 2.528 1.85 3.663.849 1.383 2.204 2.375 3.692 2.766 1.66.506 3.624.439 5.685.763 1.259.21 2.613.62 3.758 1.469.944.735 1.421 1.679 1.841 2.547.41.878.734 1.736 1.116 2.537.582 1.25 1.392 2.328 2.308 2.919.191.162.42.21.611.324.753.325.973.506 1.077 1.307.02.181.077.363.086.534a.702.702 0 0 1-.372.697c-.276.143-.725.305-1.249.143-1.631-.334-3.033-1.603-3.825-2.871-.83-1.278-1.336-2.595-1.832-3.739-.362-.84-.744-1.622-1.096-2.042-.096-.085-.153-.152-.268-.248-.152-.085-.267-.2-.438-.276a4.543 4.543 0 0 0-1.03-.429l.019-.067-.01-.019Zm-53.387 4.998-2.489-4.54c-.305-.554-.649-1.078-.945-1.641-1.03-1.975-2.041-3.959-2.937-6-.42-.896-.84-1.793-1.259-2.68-.544-1.135-.954-2.337-1.298-3.548-.105-.382.019-.372.286-.124.268.248.725.715 1.097 1.325.706 1.069 1.269 2.204 1.86 3.32.582 1.125 1.193 2.232 1.727 3.395.639 1.393 1.536 2.719 2.327 4.073l2.661 4.455 1.66 2.737c.859 1.374 1.641 2.795 2.509 4.15.667 1.058 1.411 2.031 2.117 3.061.162.22.306.449.449.687.505.887.543 1.24.238 1.66-.067.095-.133.21-.21.286-.267.258-.744.057-1.23-.515-1.479-1.669-2.671-3.634-3.93-5.589-.935-1.45-1.774-2.976-2.652-4.474l.038-.029-.019-.009Zm32.364-73.933s8.795-2.804 13.144-1.85c5.351 1.173 14.642 10.568 23.532 13.468 10.053 3.281 17.808 0 17.808 0s-17.656-2.566-21.328-4.435c-3.882-1.975-14.308-9.987-14.308-9.987l-3.29-5.551-7.498 3.204-8.069 5.151h.009Zm80.152-12.514a35.863 35.863 0 0 0-.42 1.612c-.047.191-.057.4-.095.591-.153.687-.343 1.364-.382 2.051-.019.305.019.601.077.887.124.334.248.668.515.887.067.086.019.191-.134.239-.143.038-.486.038-.667-.21-.678-.84-.697-1.803-.63-2.652.057-.515.029-1.049.095-1.555.067-.563.163-1.116.258-1.669.057-.343.114-.677.172-1.011.076-.515.171-1.021.19-1.536.029-.4-.057-.782-.114-1.173 0-.086-.038-.162-.048-.248-.038-.305.134-.41.506-.486l.257-.058a.641.641 0 0 1 .678.344c.267.763.276 1.554.143 2.318-.096.562-.239 1.125-.353 1.669h-.048Zm-75.058-8.842c-1.956 3.567-18.362 7.297-23.417-4.445-5.923-13.764 6.705-17.217 6.705-17.217s-8.231-6.61-6.705-13.917c1.526-7.306 7.306-14.651 10.025-15.681 2.718-1.03 14.012-1.087 14.012-1.087l6.124 3.844s-1.031-11.494 3.519-16.416c4.55-4.922 10.14-9.53 15.805-9.462 5.666.067 16.435 3.519 16.435 3.519l6.897 8.089s8.842-5.79 16.72-5.99c7.879-.2 17.713 3.796 20.604 8.27 2.89 4.464 6.076 12.943 4.855 15.776-1.221 2.833-4.083 14.966-12.047 16.101-7.965 1.135-17.923-3.481-17.923-3.481l-5.313-2.967s-1.574 8.585-5.008 10.187c-3.434 1.593-7.449 1.526-8.785.525-1.335-1.002-11.074-7.736-11.074-7.736s-6.61 6.887-7.24 8.661c-.629 1.774-2.317 12.162-4.54 12.276-2.222.115-5.246.954-5.246.954s-7.822-8.26-10.664-7.488c-2.843.773-5.952 2.061-6.629 5.027-.678 2.967-.496 5.055-.239 5.866.258.811 3.129 6.801 3.129 6.801v-.009ZM41.912 402.695c-2.356.066-4.712.219-6.849.753-1.068.267-2.079.639-2.909 1.164a4.288 4.288 0 0 0-1.736 2.06c-.143.286-.19.63-.257.954-.029.162.028.153 0 .239 0 .057.066.085.057.133.057.2.534.62 1.154.954 1.097.62 2.537 1.059 3.977 1.412 1.45.343 2.948.62 4.465.839 3.033.439 6.123.696 9.223.897 2.747.2 5.523.257 8.27.267 3.52 0 7.078-.153 10.607.868 1.097.381.944.238 0 .543-.945.372-2.661 1.24-4.693 1.498-.897.067-1.803.181-2.709.191l-2.709.038c-1.812.009-3.624 0-5.446-.038-3.644-.048-7.297-.41-10.96-.973-2.194-.353-4.435-.658-6.715-1.154a25.347 25.347 0 0 1-3.444-.983l-.867-.362-.868-.468c-.296-.181-.582-.4-.869-.61-.276-.267-.562-.525-.81-.859-.592-.744-.82-1.879-.649-2.833l.305-1.077c.143-.344.305-.687.468-1.031.725-1.344 1.907-2.317 3.09-3.023 2.433-1.383 5.017-1.746 7.507-2.041 3.08-.306 6.124-.268 9.128-.296 2.27-.019 4.55 0 6.715-.296 1.06-.143 2.147-.4 2.795-.887.172-.105.286-.305.439-.439l.43-.629c.276-.468.543-.935.8-1.441 1.612-3.08 3.062-6.448 5.924-9.071.324-.276.63-.572.973-.82.353-.238.715-.477 1.097-.706.734-.362 1.373-.62 1.926-.772a7.933 7.933 0 0 1 1.402-.172c.763.038 1.212.305 1.546.687.152.181.343.353.42.534.133.305-.096.61-.554.887a4.874 4.874 0 0 1-.849.372 7.509 7.509 0 0 1-1.106.477c-2.394 1.097-4.245 3.186-5.81 5.78-.79 1.288-1.506 2.671-2.298 4.14-.21.372-.391.734-.63 1.135l-.343.591-.439.63c-.114.191-.372.467-.591.696-.21.248-.487.458-.773.649-.295.219-.553.324-.82.458-.276.143-.524.219-.782.305-1.498.486-2.814.601-4.12.706a63.666 63.666 0 0 1-3.797.114c-2.48.019-4.912-.028-7.297.067v-.076l-.019.019Zm180.325-22.635c-.897-6.829-3.577-13.497-6.811-19.811-1.183-2.318-2.547-4.531-3.882-6.773-4.702-7.907-10.111-15.452-15.71-22.844-2.489-3.282-5.093-6.506-7.64-9.72-1.641-2.06-3.3-4.111-4.893-6.219-.401-.534-.802-1.049-1.183-1.593l-1.049-1.698a54.04 54.04 0 0 1-1.908-3.51c-.696-1.517-.515-1.364.601-.439 1.04.973 3.386 2.413 5.303 4.712 3.329 4.197 6.649 8.385 9.977 12.591 3.301 4.254 6.544 8.585 9.625 13.077 3.691 5.361 7.678 10.855 11.055 16.645 3.682 6.362 6.906 13.096 8.766 20.336 1.106 4.454 1.621 9.119 1.125 13.745-.868 6.982-4.054 13.678-9.071 18.581-3.863 3.806-8.775 6.572-14.222 7.535-1.202.172-2.375.41-3.605.391-4.56-.076-5.914-.916-6.582-2.041-.152-.248-.372-.496-.448-.696-.115-.344.286-.544 1.097-.725.41-.105.896-.124 1.459-.105.563.057 1.231-.038 1.956 0 2.165.057 4.321-.201 6.438-.63 1.04-.286 2.108-.505 3.11-.935 1.039-.324 2.003-.848 2.985-1.316 1.889-1.078 3.758-2.28 5.323-3.863l.61-.563.553-.62 1.116-1.249.992-1.355c.162-.229.334-.448.496-.677l.43-.725a28.718 28.718 0 0 0 3.691-9.348c.658-3.29.668-6.734.181-10.158l.076-.019.039.019Zm54.293-116.531c.362.505.724 1.001 1.106 1.488.143.171.334.295.467.476.477.649.973 1.288 1.422 1.975.209.296.457.544.705.792.153.162.334.295.468.486.124.2.219.42.296.658.047.153-.115.286-.392.391-.267.105-.696.239-.972.182-.458-.153-.802-.42-1.174-.668-.353-.258-.706-.534-.963-.916-.296-.477-.82-.725-1.231-1.097-.448-.41-.887-.839-1.325-1.278l-.811-.801c-.42-.391-.792-.84-1.259-1.192-.363-.268-.84-.401-1.269-.601-.095-.038-.21-.067-.296-.124-.276-.248-.2-.487.344-1.145l.362-.429c.41-.458.926-.773 1.259-.744.964.076 1.527.601 2.108 1.144.43.401.783.907 1.183 1.364l-.048.058.02-.019Zm-24.457-21.691a70.057 70.057 0 0 0-2.156-2.623c-.267-.315-.591-.563-.868-.877-.944-1.107-1.86-2.271-2.861-3.32a16.616 16.616 0 0 0-1.422-1.297c-.6-.544-1.306-1.021-1.726-1.66-.114-.191-.095-.362.229-.486.372-.115.963-.239 1.402.019.792.4 1.517.868 2.175 1.402a15.438 15.438 0 0 1 1.888 1.726c.697.764 1.603 1.336 2.356 2.051.84.782 1.651 1.603 2.461 2.423l1.479 1.526c.753.763 1.459 1.584 2.241 2.318.601.582 1.336 1.002 2.003 1.545.153.115.315.21.458.344.487.534.41.887-.171 1.507-.134.143-.258.295-.401.429-.486.439-1.087.563-1.564.372-1.326-.649-2.337-1.688-3.386-2.776-.754-.82-1.45-1.717-2.204-2.566l.048-.057h.019Z"/><path fill="#231123" d="M249.221 252.264c1.288-1.717 2.575-3.425 4.197-5.056.439-.41.858-.82 1.44-1.211.22-.191.706-.41 1.078-.572.362-.134.582-.172.878-.258a29.058 29.058 0 0 1 3.29-.601c1.593-.2 3.186-.391 4.817-.334 1.441.048 2.89.191 4.388.63.734.238 1.583.582 2.232 1.125.658.506 1.183 1.078 1.65 1.67.935 1.173 1.593 2.48 2.146 3.805.525 1.345.935 2.728 1.059 4.226.029.668.057 1.345-.105 2.051-.048.353-.2.706-.343 1.058-.153.315-.306.573-.468.849a18.482 18.482 0 0 1-1.078 1.593c-.562.706-1.144 1.402-1.764 1.898l-.83.678-.229.171-.114.086h-.067l-.267.029-.239-1.65c-.086-.563-.152-1.126-.276-1.622-.029-.133-.048-.257-.096-.381l-.066-.229-.134-.43-.305-.877c-.21-.591-.372-1.221-.544-1.841l-.229-.944c-.009-.334-.048-.658-.067-.992-.028-.992-.085-.84.42-.153.582.677 1.679 1.784 2.461 3.396.124.276.248.572.362.868l.172.458c.048.114.019.076.029.076v.019l.057-.086.114-.181c.315-.477.601-.983.859-1.488.162-.296.133-.382.219-.553.01-.21.086-.382.067-.63.029-.925-.21-2.041-.582-3.109a17.123 17.123 0 0 0-1.45-3.119c-.438-.725-.915-1.431-1.488-1.994-.591-.591-1.097-.878-1.898-1.097-1.593-.429-3.491-.439-5.313-.372-2.012.095-4.073.353-5.971.868-.105.029-.257.067-.324.095a1.074 1.074 0 0 1-.181.096l-.096.038-.124.095-.257.191c-.172.105-.353.286-.525.439a5.261 5.261 0 0 0-.524.505c-.706.697-1.374 1.498-2.032 2.29-1.612 1.984-3.138 4.092-4.636 6.219l-1.717 2.432c-.295.41-.591.811-.935 1.24l-.982 1.135c-.668.754-1.383 1.507-2.232 2.175a10.213 10.213 0 0 1-2.823 1.507c-1.546.544-3.024.83-4.474 1.23-1.459.372-2.938.754-4.445 1.059-.668.134-1.316.277-2.003.372-2.537.353-3.405.057-3.939-.648-.124-.163-.277-.325-.353-.487-.22-.524.772-1.001 2.489-1.288 2.566-.429 5.17-1.058 7.889-1.697.677-.163 1.364-.315 2.041-.477a19.523 19.523 0 0 0 1.85-.515c1.174-.391 2.013-.916 2.881-1.803.649-.649 1.297-1.44 1.955-2.251.515-.668 1.145-1.603 1.727-2.461a219.45 219.45 0 0 1 3.643-5.284l.058.038.057-.019Zm-1.04-67.638c.534-.257 1.021-.677 1.383-1.135 0-.028.019-.028.029-.047.029-.029.019-.077.029-.115 0-.047-.01-.191.009-.295.038-.935 0-2.185-.219-3.339-.105-.515-.267-1.021-.391-1.545-.163-.658-.468-1.288-.287-2.108.048-.248.22-.229.516-.124.2.076.4.143.562.21.229.076.43.19.534.362.382.582.811 1.164 1.097 1.812a9.4 9.4 0 0 1 .535 2.108c.104.897.476 1.746.457 2.91a3.385 3.385 0 0 1-.343 1.364c-.401.734-.916 1.316-1.507 1.841-.534.448-1.126.791-1.717 1.087-.916.439-1.879.62-2.804.83-.716.162-1.422.429-2.175.563-.162.028-.324.095-.496.076-.62-.019-.792-.277-.82-1.068 0-.182-.019-.363-.019-.544.028-.601.305-1.078.667-1.269 1.088-.572 2.08-.648 3.024-.925.687-.2 1.345-.381 1.898-.715l.048.057-.01.009Zm-62.095-84.787c1.478-1.145 3.167-1.984 4.884-2.709.877-.286 1.783-.62 2.651-.82.878-.181 1.736-.439 2.623-.544.649-.095 1.278-.238 1.927-.324.649-.076 1.297-.153 1.946-.191 2.308-.057 4.617.105 6.877.553 2.251.496 4.445 1.25 6.496 2.318 1.812.954 3.491 2.175 5.008 3.548.448.477.934.926 1.364 1.431.391.534.772 1.069 1.144 1.612.172.277.315.582.468.868l.295.954c.21.62.134 1.364.267 1.975.191.763.048.686-.438.19-.239-.248-.697-.553-1.26-.868a89.522 89.522 0 0 1-.868-.496c-.152-.086-.276-.181-.457-.257-.096-.124-.201-.239-.296-.363-.324-.458-.754-.839-1.107-1.259a3.893 3.893 0 0 0-.6-.582l-.582-.591a16.978 16.978 0 0 0-2.585-2.07c-1.87-1.202-3.911-2.26-6.162-2.985-2.699-.888-5.752-.859-8.671-.582-1.612.143-3.214.458-4.797.84-.754.238-1.517.447-2.251.753-.716.334-1.469.62-2.137 1.058-.868.458-1.65 1.069-2.451 1.66-.735.658-1.508 1.297-2.137 2.07-1.994 2.242-3.615 4.941-4.331 7.879-.6 2.27-.534 4.607-.162 6.82.048.496.201.963.325 1.44.105.448.171.83.219 1.145.076.314.114.572.105.801-.048.467-.219.801-.515 1.135-.134.153-.248.334-.391.448-.229.191-.525.143-.868-.133a3.944 3.944 0 0 1-1.107-1.507c-.858-2.194-1.278-4.665-1.182-7.154.066-2.509.744-4.998 1.745-7.316.715-1.746 1.765-3.329 2.881-4.846 1.221-1.44 2.527-2.823 4.054-3.94l.057.068.019-.029Z"/><path fill="#231123" d="M148.294 128.96c.268-.83.725-1.602 1.107-2.385a24.4 24.4 0 0 1 1.459-2.193 19.197 19.197 0 0 1 3.72-3.587c1.002-.744 2.032-1.469 3.158-1.993 3.977-1.841 8.422-2.452 12.638-1.708 1.87.324 3.73.83 5.456 1.641 1.087.563 2.194 1.173 3.043 2.098.41.468.772.992 1.039 1.565.287.543.516 1.125.668 1.716.22.706.162.611-.334.21-.229-.21-.696-.41-1.192-.62-.248-.105-.553-.19-.839-.286-.143-.048-.277-.105-.458-.114-.124-.077-.277-.115-.401-.182-1.822-.906-3.51-1.821-5.504-2.346-1.974-.506-4.063-.725-6.209-.754-2.595 0-5.199.983-7.469 2.271-2.499 1.411-4.721 3.462-6.066 6.028-.887 1.555-1.421 3.319-1.708 5.122-.41 2.728-.286 5.628.659 8.232.715 2.022 1.945 3.777 3.433 5.131.344.277.668.563 1.021.821.63.496.992.915 1.269 1.202.248.333.343.667.362 1.068.01.181.057.381.038.544-.019.276-.238.419-.648.457-.401.02-1.069.02-1.765-.314-.496-.258-1.078-.458-1.536-.811a36.227 36.227 0 0 1-1.354-1.107c-.401-.419-.792-.858-1.192-1.297-.363-.458-.678-.954-1.021-1.44-1.24-2.003-2.022-4.283-2.413-6.601-.334-1.726-.315-3.491-.21-5.236.219-1.736.505-3.491 1.164-5.142l.076.02.009-.01Zm77.443 34.854-7.373-2.881c-.897-.343-1.831-.611-2.728-.963l-9.472-3.797a78.108 78.108 0 0 0-4.225-1.602c-.897-.334-1.832-.611-2.709-.992-.878-.401-1.736-.849-2.537-1.441-.506-.362-.353-.524.257-.705.305-.086.735-.201 1.231-.306a4.674 4.674 0 0 1 1.583.029c.238.057.486.095.725.153l.696.219 1.393.448 2.776.935c1.85.62 3.653 1.412 5.456 2.223 2.155.982 4.521 1.65 6.791 2.47l7.488 2.757 4.607 1.707c2.327.849 4.654 1.755 6.982 2.547 1.812.62 3.653 1.049 5.475 1.593.401.114.811.2 1.202.343 1.478.506 1.869.887 1.869 1.793 0 .21.029.42 0 .62-.095.658-.887.935-2.012.706-3.339-.677-6.677-1.831-10.044-3.014-2.49-.887-4.97-1.86-7.469-2.766l.019-.076h.019Zm-90.835 50.849c-5.808 4.836-11.455 9.911-16.654 15.452-1.946 1.975-3.662 4.15-5.551 6.172a218.004 218.004 0 0 0-17.894 23.216c-2.404 3.615-4.712 7.335-6.82 11.094-1.393 2.394-2.662 4.864-4.044 7.277l-1.03 1.813-.993 1.831c-.658 1.221-1.411 2.394-2.136 3.587-.973 1.449-1.03 1.173-.763-.334.286-1.498.791-4.273 2.174-7.192 1.24-2.576 2.394-5.208 3.863-7.669 1.403-2.499 2.786-5.008 4.321-7.431l2.261-3.662a207.84 207.84 0 0 1 2.413-3.577c1.612-2.385 3.358-4.674 5.113-6.973a178.064 178.064 0 0 1 3.195-4.13c1.088-1.374 2.127-2.804 3.243-4.178 2.242-2.737 4.436-5.542 6.83-8.146 2.537-2.938 5.284-5.685 7.984-8.47l4.196-4.035c1.393-1.354 2.881-2.594 4.321-3.901 1.755-1.621 3.625-3.109 5.475-4.626.926-.754 1.841-1.526 2.776-2.251l2.852-2.156c2.843-2.241 5.885-4.216 8.842-6.286 1.526-.973 3.053-1.936 4.569-2.909 1.507-.973 3.053-1.946 4.645-2.804 4.913-2.7 9.806-5.151 14.833-7.402 1.106-.496 2.184-1.002 3.319-1.469 4.207-1.717 5.666-1.974 6.887-1.45.277.124.62.22.811.372.639.525-.897 1.65-3.873 3.024a794.845 794.845 0 0 0-13.487 6.352c-2.261 1.107-4.531 2.242-6.725 3.444-1.106.62-2.165 1.211-3.233 1.898l-3.224 2.07c-6.372 4.13-12.61 8.565-18.419 13.506l-.057-.057h-.02Zm132.709 51.117c-.133.152.658-.344 1.107-.735a7.223 7.223 0 0 0 1.297-1.411c.276-.372.4-.792.553-1.164l.114-.343c.02-.105.039-.229.067-.315v-.239c-.038-.171-.067-.343-.114-.524a17.866 17.866 0 0 0-.305-1.107 26.307 26.307 0 0 0-.792-2.203 23.625 23.625 0 0 0-1.126-2.251 26.19 26.19 0 0 0-.849-1.336c-.257-.457-.457-.982-.772-1.411-.172-.286-.086-.353.267-.306.172.029.448.067.725.163.286.085.648.2.944.4.897.84 1.593 1.803 2.232 2.785a17.84 17.84 0 0 1 1.374 3.224c.124.411.267.811.41 1.221l.219.649.124.429c.029.172.048.344.067.515a5.195 5.195 0 0 1-.487 2.061c-.791 1.631-1.993 2.833-3.367 3.796a8.006 8.006 0 0 1-.839.505c-.315.134-.62.334-.935.411a3.843 3.843 0 0 1-1.755.219l-.296-.086c-.038-.124-.124-.152-.152-.238a1.314 1.314 0 0 1-.2-.496c-.096-.391-.058-.935-.02-1.45.105-1.164.124-1.708.115-2.413 0-.267-.019-.525-.057-.763a3.033 3.033 0 0 0-.172-.687 6.382 6.382 0 0 0-.591-1.288c-.105-.172-.229-.324-.344-.477-.41-.572-.439-.792-.095-1.392.076-.134.143-.287.229-.411.267-.438.896-.505 1.497.067.887.84 1.441 1.975 1.717 3.138.067.267.134.668.143.954.019.305.029.582.029.859v.81l-.048.678c0-.029-.086.114.019.095v.067h.067Zm12.972 5.809c.296-.764.62-1.527.983-2.29l.152-.314c.067-.163.163-.315.248-.468.182-.296.344-.61.525-.877.181-.277.353-.563.563-.754.191-.229.391-.41.591-.582.573-.448 1.173-.839 1.946-.572.591.219.83.677 1.068 1.326.229.648.287 1.545.287 2.394v.629l-.048.458-.067.782-.153 1.546c-.095.906-.152 1.822-.219 2.718-.038.582-.067 1.154-.162 1.727-.057.286-.067.572-.181.858-.124.277-.248.544-.372.83-.182.343-.22.277-.391-.048-.086-.162-.22-.391-.382-.677-.076-.143-.191-.286-.248-.448a2.593 2.593 0 0 1-.076-.477c-.086-1.173.028-2.318.057-3.472.057-1.154.124-2.309.21-3.444v-.124l.019-.038.019-.076.029-.172c0-.124 0-.248-.01-.362a1.302 1.302 0 0 0-.086-.334c-.038-.124-.191-.162-.286-.105-.21.095-.362.305-.534.553-.086.067-.525 1.002-.792 1.66a36.735 36.735 0 0 0-.992 2.699c-.439 1.393-.849 2.805-1.097 4.235-.181 1.116-.21 2.223-.229 3.31v.706c.019.868-.257 1.107-.772 1.345-.124.057-.239.124-.363.162-.381.143-.82-.238-1.049-1.001-.401-2.213-.133-4.417.353-6.572.362-1.603.839-3.177 1.383-4.741l.057.019.019-.009Z"/><path fill="#231123" d="M285.181 268.536c.095-.372.2-.734.305-1.106l.2-.649c.105-.315.191-.62.306-.925.429-1.25 1.001-2.289 1.612-2.804.438-.43.877-.821 1.469-.878l.353-.038.2.029c.057.114.114.085.152.133.077.057.134.115.191.181.115.124.22.239.334.391.219.287.391.849.477 1.565.076.715.095 1.497.114 2.222 0 .353.01.754 0 1.04l-.019.677c-.038.849-.019 1.698-.028 2.537v.811c-.029.267-.077.544-.124.811-.143.534-.382 1.068-.582 1.583-.153.315-.134.267-.219-.028a5.67 5.67 0 0 0-.258-.611c-.124-.248-.305-.534-.439-.839-.152-.534-.248-1.059-.248-1.593l-.067-1.593c-.019-.534-.047-1.059-.047-1.593 0-.191.019-.114.028-.162l.039-.086a1.13 1.13 0 0 0 .076-.248 2.2 2.2 0 0 0 .048-.601c0-.095-.02-.181-.039-.267-.019-.057-.028-.219-.133-.153-.096 0-.172.067-.239.105-.162.124-.286.306-.4.535a4.873 4.873 0 0 0-.172.381l-.095.239-.153.515a33.13 33.13 0 0 0-.629 2.594c-.258 1.326-.506 2.68-.62 4.025-.086 1.05 0 2.089.028 3.129 0 .229.038.458.038.687-.019.849-.171 1.106-.849 1.268-.152.038-.295.086-.429.105-.458.067-.925-.305-1.02-.963-.334-1.927-.229-3.94.009-5.952.181-1.498.458-2.986.801-4.493h.058l-.029.019Z"/><path fill="#231123" d="M290.379 285.467c1.555-2.661 2.48-6 3.129-9.29.229-1.212.343-2.452.506-3.673.248-1.888.467-3.786.534-5.675.019-.477.019-.944.019-1.412v-.486l-.019-.296c-.01-.2-.038-.42-.086-.629-.048-.191-.134-.506-.382-.477-.248.028-.438.219-.582.429a2.69 2.69 0 0 0-.324.61l-.067.172-.076.219c-.067.229-.153.449-.21.678-.276.915-.505 1.86-.687 2.804-.41 2.451-.858 4.912-1.592 7.373-.401.754-.306.658-.601-.038-.163-.353-.306-.849-.468-1.45-.076-.296-.162-.629-.219-.973-.038-.171-.048-.353-.096-.534v-.553c0-2.041.334-4.044.821-6.076.124-.506.248-1.021.429-1.526l.305-.83c.172-.477.382-.878.582-1.307.429-.82.935-1.478 1.479-1.889.543-.419 1.106-.6 1.802-.629.201.019.41.067.611.114.191.086.343.172.477.287.267.238.496.524.686.896.382.744.573 1.812.659 2.862.085.791.066 1.087.076 1.516l.019 1.231c0 .82 0 1.64-.029 2.451-.038 1.641-.143 3.281-.372 4.893-.505 3.539-1.268 7.068-2.67 10.464-.439 1.04-.954 2.07-1.612 3.043a9.86 9.86 0 0 1-1.107 1.373c-.391.401-.753.83-1.173 1.202-2.442 2.375-5.361 4.149-8.27 5.695-2.27 1.202-4.502 2.356-6.791 3.405-.506.229-.983.477-1.507.677-1.918.754-2.595.773-3.291.191-.162-.134-.344-.258-.468-.401-.4-.496.21-1.268 1.536-1.993 3.94-2.146 8.241-3.777 12-6.143 1.392-.868 2.728-1.822 3.948-2.881a24.178 24.178 0 0 0 1.736-1.697c.306-.306.477-.525.706-.83.21-.286.41-.601.601-.935l.067.029-.029.009Zm-71.013-67.809a86.245 86.245 0 0 0-1.012-2.108 17.654 17.654 0 0 0-.515-.973 5.403 5.403 0 0 0-.229-.372l-.028-.047s-.019 0 .057-.067c.105-.096.21-.2.305-.305.105-.124.172-.191.239-.277.067-.095.114-.181.143-.229.067-.172.028-.172.048-.162l.028.133s.048.086.324.144c.105.019.296.057.468.057h.324c0 .038.019.181.048.315.067.286.172.62.305.953.286.744.677 1.479 1.03 2.242a55.193 55.193 0 0 0 4.417 7.84c.753 1.107 1.554 2.185 2.422 3.177 1.135 1.259 2.137 2.642 3.377 3.815.381.363.257.449-.248.353a7.2 7.2 0 0 1-2.299-.916 33.884 33.884 0 0 1-1.144-.791l-.563-.41-.487-.477a30.858 30.858 0 0 1-1.841-2.013c-1.173-1.393-2.127-2.938-3.023-4.521-1.05-1.898-2.328-3.758-3.31-5.79a16.892 16.892 0 0 1-.801-1.946 9.576 9.576 0 0 1-.306-1.106 3.152 3.152 0 0 1-.066-.735c0-.152.019-.343.095-.582.086-.257.315-.639.744-.82l-.219.134c.143-.105.314-.182.486-.22a1.26 1.26 0 0 1 .458 0c.162.029.181.057.286.096.076.038.162.085.191.105.181.124.267.219.343.305.143.171.239.305.325.438.171.268.314.516.448.773.267.496.505.992.734 1.479l1.851 4.025c.944 2.012 1.879 4.044 2.966 5.952.849 1.478 1.841 2.833 2.881 4.082.229.277.477.525.706.782.877.964 1.058 1.212.963 1.87-.019.143-.019.305-.048.439-.066.467-.915.477-1.831-.248-1.335-1.059-2.366-2.356-3.3-3.692-.935-1.345-1.755-2.766-2.538-4.206-1.154-2.127-2.184-4.321-3.243-6.458l.058-.028-.019-.01Zm-24.028 18.829a57.93 57.93 0 0 1 .143-2.823c.038-.477.086-.954.181-1.469.048-.258.096-.515.191-.83.048-.153.096-.343.267-.63.067-.104.115-.181.229-.295a1.367 1.367 0 0 1 .658-.382c.363-.086.649-.028.926.096.2.105.286.181.419.305l-1.593-.143c.153-.105.344-.181.525-.229.258-.057.649 0 .83.105.095.047.191.105.276.171.086.067.163.153.182.182.066.086.124.171.181.257.114.239.153.391.181.525.057.257.067.429.086.629.029.372.029.706.029 1.04 0 .944.019 1.851-.029 2.757-.2 3.195-.429 6.352-.582 9.51a47.352 47.352 0 0 0 0 4.196c.048.888.086 1.775.134 2.662.066.887.114 1.755.19 2.632.067.544 0 .515-.324.115a11.396 11.396 0 0 1-.629-.887 5.057 5.057 0 0 1-.515-1.393c-.439-1.86-.535-3.72-.592-5.58-.048-1.86-.038-3.71.115-5.561.162-2.213.114-4.521.133-6.763 0-.591 0-1.173-.009-1.745a7.34 7.34 0 0 0-.048-.82 2.077 2.077 0 0 0-.048-.315c0-.01-.028-.01.019-.038.172-.039.382-.153.506-.21a.575.575 0 0 0 .152-.115c.029-.009.048-.038.058-.076v.019c0 .038.028.076.047.095l-.41.105c.096-.057.153-.2.162-.209 0-.048 0 0 .067.076.019.009.086.076.143.124.067.048.105.057.21.114.086.048.2.105.258.134a2.19 2.19 0 0 0-.086.305 7.52 7.52 0 0 0-.124.868c-.067.611-.115 1.25-.153 1.879a79.942 79.942 0 0 0-.095 4.55c.028 2.308.086 4.626.305 6.906.172 1.774.506 3.491.858 5.189l.258 1.106c.305 1.374.305 1.784-.143 2.251-.095.105-.191.239-.296.325-.343.305-.954-.191-1.326-1.259-1.077-3.148-1.449-6.515-1.707-9.892-.181-2.508-.238-5.036-.229-7.573h.057l-.038.009ZM93.22 421.381c-6.124-.754-12.2-1.593-18.314-2.929l-1.164-.276-.592-.153c-.114-.038-.171-.038-.343-.086a10.026 10.026 0 0 1-.515-.152c-.687-.22-1.24-.62-1.612-1.183-.172-.305-.353-.572-.458-.935l-.143-.515a2.991 2.991 0 0 1-.086-.343c-.343-1.755-.41-3.32-.477-4.903-.095-3.157.105-6.248.325-9.338a181.827 181.827 0 0 1 2.327-18.41c.572-3.052 1.192-6.104 2.146-9.166a26.06 26.06 0 0 1 .84-2.318c.324-.782.705-1.574 1.345-2.432.19-.22.381-.448.581-.649l.659-.496.333-.238.334-.172.677-.324c.449-.191.878-.305 1.326-.458.43-.115.859-.191 1.288-.286 2.47-.42 4.798-.391 7.096-.296 2.3.115 4.56.324 6.801.591 4.484.535 8.909 1.231 13.307 1.908 3.252.506 6.505.992 9.719 1.412.802.095 1.612.2 2.414.267.4.038.801.086 1.201.105l.515.038c.058 0 .115 0 .172.019.468.019.954.038 1.45-.029.238-.028.477-.076.706-.162.048-.019.143-.028.124-.095-.029-.048-.076-.076-.124-.114a2.908 2.908 0 0 0-.296-.163c-.4-.19-.839-.372-1.278-.562l-3.243-1.355c-1.44-.61-2.881-1.221-4.311-1.86-5.724-2.547-11.342-5.389-16.683-8.747-5.323-3.357-10.416-7.258-14.508-12.218-2.032-2.48-3.787-5.237-5.008-8.251a24.365 24.365 0 0 1-1.374-4.645l-.495-2.318-.392-2.337c-.286-1.507-.381-3.043-.562-4.56-.067-1.535-.22-3.061-.181-4.607-.039-1.535.085-3.081.18-4.616l.277-2.299c.086-.763.267-1.526.391-2.289 1.212-6.048 3.74-11.971 8.28-16.492.305-.201.6-.468.934-.592.334-.124.64-.238.916-.276.573-.134 1.088-.162 1.612-.22a35.318 35.318 0 0 1 2.995-.019c4.54.191 8.966.735 13.402 1.25l13.268 1.593c4.416.553 8.832.982 13.249 1.459 2.203.239 4.407.458 6.619.62 2.204.181 4.417.372 6.63.439 5.513.114 4.817.219.124.83-2.347.248-5.714.677-9.787.782-2.031.057-4.254.133-6.6.057a133.138 133.138 0 0 1-7.383-.524c-5.962-.554-11.885-1.345-17.78-2.061-2.947-.353-5.895-.696-8.804-.935-1.45-.114-2.91-.209-4.302-.219-.696 0-1.373.019-1.974.086-.162 0-.296.038-.41.057-.115.029-.277.038-.344.067a.482.482 0 0 1-.114.038l-.658.696a7.666 7.666 0 0 0-.687.783c-.439.543-.887 1.068-1.269 1.669l-.6.868-.535.915c-.372.601-.686 1.24-.992 1.88-1.23 2.565-2.089 5.331-2.642 8.183-1.097 5.704-.973 11.685-.028 17.551.19 1.469.543 2.929.839 4.388a22.582 22.582 0 0 0 1.269 4.063c1.096 2.623 2.66 5.084 4.53 7.345 3.749 4.521 8.537 8.26 13.621 11.513 5.036 3.214 10.512 5.914 16.139 8.365 1.412.611 2.824 1.211 4.254 1.793 1.794.716 3.587 1.441 5.38 2.156 1.221.477 2.461.983 3.424 1.498.973.515 1.412 1.001 1.755 1.411.172.21.287.401.401.611.057.114.115.219.134.391.009.248-.115.353-.201.467l-.286.344c-.095.114-.257.2-.391.295l-.41.286-.525.22c-.658.238-1.45.381-2.194.563-.419.066-.896.095-1.344.143-.458.047-.897.105-1.422.095-1.011 0-2.012.057-3.062 0a57.287 57.287 0 0 1-1.964-.105 115.683 115.683 0 0 1-7.574-.782c-4.96-.734-9.91-1.469-14.851-2.194-3.034-.42-6.057-.801-9.062-.973a43.574 43.574 0 0 0-4.445-.067c-1.45.048-2.89.239-4.073.649-.305.095-.524.248-.801.353l-.296.219c-.105.067-.21.134-.267.229-.286.267-.63.935-.916 1.526-.572 1.279-1.02 2.709-1.411 4.15-.801 2.89-1.393 5.894-1.917 8.89-1.002 6.018-1.727 12.123-2.108 18.218-.172 3.043-.306 6.105-.172 9.081.028.744.114 1.468.22 2.136.009.086.028.162.047.239l.029.114c.01.076.047.162.085.239.048.181.267.19.41.257l.125.038c.076.038.171.057.248.077l.534.143 1.097.257a84.33 84.33 0 0 0 2.232.458c7.392 1.402 14.918 2.337 22.444 3.052 7.526.697 15.08 1.126 22.634 1.202 11.428.086 22.94-.467 34.12-2.699 5.58-1.116 11.074-2.68 16.177-5.056 5.084-2.356 9.824-5.599 13.058-10.015a22.807 22.807 0 0 0 3.014-5.542c.715-1.965 1.145-4.073 1.44-6.171a39.34 39.34 0 0 0-.677-12.677c-.877-4.178-2.241-8.251-3.939-12.2-1.689-3.948-3.644-7.802-5.79-11.57-1.889-3.319-3.892-6.486-5.981-9.738-3.882-6.019-6.562-9.949-8.26-12.839-1.688-2.9-2.47-4.693-2.89-6.277-.191-.715-.496-1.631-.525-2.088-.038-.783.83 0 2.49 2.012 1.659 2.022 4.178 5.256 7.211 9.605 4.502 6.439 8.966 13.106 12.858 20.279 3.844 7.173 7.23 14.89 8.756 23.35.162 1.059.362 2.118.448 3.196l.162 1.612.067 1.631c.077 1.087 0 2.184-.019 3.281-.095 1.097-.172 2.194-.343 3.281-.191 1.088-.353 2.185-.658 3.253-.143.534-.258 1.078-.43 1.612l-.553 1.612a27.254 27.254 0 0 1-3.233 5.981c-1.307 1.86-2.881 3.491-4.55 4.959a35.023 35.023 0 0 1-5.361 3.873 46.05 46.05 0 0 1-5.809 2.957c-1.974.868-3.996 1.593-6.038 2.242-6.057 1.926-12.247 3.157-18.466 3.949-6.219.791-12.467 1.182-18.705 1.316-12.476.229-24.924-.506-37.276-1.927l-.02-.076.067-.019Zm353.037-283.426a316.738 316.738 0 0 1-1.774 17.245c-.754 5.723-1.593 11.446-2.7 17.122-.772 4.149-1.583 8.298-2.623 12.39-.467 2.051-1.125 4.064-1.688 6.095-.267 1.021-.639 2.013-.963 3.015l-1.088 3.204c-.181.516-.505.973-.973 1.26a3.663 3.663 0 0 1-1.545.505c-.296.057-.505.038-.706.057h-.582a13.241 13.241 0 0 1-1.097-.095c-1.421-.172-2.747-.467-4.063-.782-2.623-.649-5.179-1.421-7.717-2.223-5.074-1.621-10.082-3.367-15.089-5.122-6.191-2.156-12.419-4.311-18.591-6.333-3.958-1.317-7.964-2.509-11.932-3.835l-5.952-1.936-2.967-.983c-.992-.333-1.955-.744-2.947-1.087-2.442-.925-2.118-.811.105-.601 2.232.162 6.39.429 11.064 1.707 16.549 4.484 32.488 10.731 48.742 16.035 2.203.696 4.435 1.354 6.677 1.86 1.116.248 2.251.457 3.329.553.267.019.524.038.772.038.134 0 .239 0 .353-.01.086 0 .105 0 .162-.009.191-.019.382-.124.43-.324.41-1.288.82-2.576 1.23-3.873.448-1.354.773-2.757 1.164-4.13l.562-2.07.496-2.089c.325-1.393.659-2.795.983-4.178 1.221-5.618 2.232-11.284 3.109-16.978a345.643 345.643 0 0 0 2.08-17.169c.324-3.53.629-7.068.83-10.617.105-1.764.2-3.539.238-5.303.029-.887.038-1.755.029-2.614v-.162l-.01-.086v-.162c.048-.105-.057-.238-.114-.372a4.14 4.14 0 0 0-.658-.801c-.84-.792-1.965-1.45-3.119-2.041-1.155-.592-2.376-1.107-3.616-1.584-2.48-.963-5.026-1.783-7.602-2.566-5.141-1.545-10.349-2.88-15.538-4.187-8.069-2.022-16.053-3.777-24.018-6.066-1.755-.506-3.472-1.002-5.227-1.593-3.233-1.135-5.322-2.051-6.715-2.862-1.354-.887-2.051-1.564-2.547-2.203-.219-.296-.534-.639-.639-.859-.162-.372.401-.295 1.593.01.601.162 1.355.362 2.261.601.916.219 1.917.62 3.081.992 13.764 4.559 28.949 7.659 44.048 11.808 2.805.773 5.619 1.593 8.423 2.519 2.804.934 5.599 1.936 8.394 3.386 1.383.772 2.814 1.535 4.149 3.147.324.43.658.887.849 1.555.076.353.133.725.172 1.097.009.105.009.162.009.2v.43c.01.782 0 1.535-.019 2.27-.067 2.957-.248 5.866-.448 8.785h-.077l.01.019Z"/><path fill="#231123" d="M367.927 130.696c-.458 3.348-1.049 6.667-1.66 9.977-.219 1.212-.391 2.423-.629 3.625a201.933 201.933 0 0 1-1.412 6.324l-1.574 6.276c-.467 1.851-.868 3.73-1.268 5.58-.277 1.183-.439 2.394-.802 3.568-.362 1.163-.972 2.279-1.344 3.443-.268.715-.306.601-.344-.067-.028-.334-.038-.801-.143-1.392-.048-.306-.095-.62-.143-.945-.029-.171-.029-.334-.086-.515.01-.172-.009-.353 0-.524 0-.315-.019-.64 0-.954l.172-.916.343-1.822.725-3.644a195.668 195.668 0 0 1 1.65-7.268c.725-2.9 1.212-5.961 1.736-8.966a248.817 248.817 0 0 0 1.631-9.91c.277-2.042.544-4.083.735-6.134.315-3.1.544-6.228.582-9.328a89.804 89.804 0 0 0-.105-3.577l-.258-3.549c-.047-.524-.095-1.03-.133-1.554-.143-1.946.076-2.576.791-3.043.163-.105.325-.239.477-.305.515-.22 1.097.543 1.355 1.993.744 4.293.973 8.89.687 13.469-.077 1.707-.229 3.405-.372 5.103-.191 1.697-.344 3.395-.573 5.084h-.076l.038-.029Zm26.441.992c-.191 1.612-.458 3.214-.945 4.846-.114.41-.248.82-.429 1.24-.086.2-.133.419-.353.734l-.534.868c-.172.286-.448.439-.668.668l-.171.152-.048.039-.019.019h-.01v.019c-.085-.201-.028-.058-.047-.096l-.105.038c-.134.039-.267.086-.41.115-.287.076-.63-.019-.954-.105l-.496-.143-.429-.143c-1.097-.382-2.185-.697-3.253-1.097l-9.672-3.777c-.458-.191-.782-.449-.83-.868-.029-.41.124-.926.305-1.402l.458-1.374c.134-.41.248-.83.353-1.24.21-.839.372-1.679.487-2.528.324-2.194.162-4.378.295-6.638.105-.716.057-.62.372-.067.162.276.353.686.592 1.182.105.248.248.525.333.821.077.295.134.62.163.954.19 1.907.162 3.844-.096 5.77a22.148 22.148 0 0 1-.572 2.852l-.162.525c-.019.048-.029.048-.048.076-.019.029-.038.058-.048.086.01.019.029.038.058.048.019.029.047.038.076.067l.649.248 1.287.515c2.566 1.049 5.351 1.86 8.022 2.747l2.099.687c.133.047.267.095.419.133.124-.048.21-.191.286-.305.039-.076.077-.105.115-.229l.181-.477c.134-.315.21-.687.324-1.021.182-.705.334-1.44.458-2.184.296-1.831.439-3.72.429-5.589 0-.725-.019-1.45-.085-2.147a8.28 8.28 0 0 0-.134-1.02c-.048-.258-.076-.42-.181-.62-.038-.105-.153-.115-.239-.162l-.314-.134-.983-.391c-.668-.238-1.335-.467-1.993-.706-2.118-.753-4.255-1.335-6.391-2.012-.468-.153-.944-.277-1.412-.449-1.726-.658-2.117-1.326-2.165-2.146-.01-.181-.057-.362-.048-.505.019-.239.239-.363.649-.477.41-.124.973-.143 1.631-.019 1.936.419 3.844 1.077 5.809 1.726a71.6 71.6 0 0 1 2.928 1.059c.973.4 1.917.849 2.928 1.24.115.057.573.2.878.41.324.2.63.42.916.649.343.562.543 1.23.744 1.841.066.438.152.839.171 1.211.077.763.105 1.488.105 2.222a39.99 39.99 0 0 1-.21 4.302h-.066v-.038Zm27.156 8.642c-1.345-.468-2.69-.935-4.054-1.374-.496-.162-1.011-.248-1.507-.41l-5.208-1.831c-.763-.277-1.555-.496-2.328-.716-1.001-.276-2.022-.457-2.918-1.116-.267-.238-.172-.41.181-.677.372-.324.982-.648 1.583-.582 1.059.105 2.08.344 3.11.573a17.87 17.87 0 0 1 3.014.953c1.183.477 2.499.659 3.758.983l4.14 1.125 2.547.725c1.287.363 2.575.783 3.872 1.078 1.002.258 2.051.267 3.052.506.22.047.449.067.668.133.811.239.992.554.973 1.25 0 .162 0 .324-.019.477-.076.515-.534.849-1.183.896-1.917.143-3.739-.314-5.58-.782a139.038 139.038 0 0 1-4.111-1.135l.019-.076h-.009Zm-11.78 22.368-6.62-2.366c-.811-.277-1.631-.496-2.442-.782-2.842-.992-5.685-1.994-8.527-2.986a77.71 77.71 0 0 0-3.825-1.173c-.82-.238-1.641-.448-2.452-.706a32.029 32.029 0 0 1-2.403-.896c-.496-.21-.363-.411.143-.563a5.854 5.854 0 0 1 2.384-.134c1.717.306 3.396.763 5.094 1.193 1.679.457 3.367.925 5.008 1.545 1.974.725 4.101 1.221 6.152 1.841l6.753 2.117 4.149 1.326c2.099.658 4.188 1.355 6.296 1.927 1.631.439 3.281.715 4.931 1.03.363.076.725.115 1.088.2 1.335.325 1.697.659 1.793 1.431.019.181.067.363.057.534-.019.573-.687.878-1.717.802-3.033-.306-6.085-1.174-9.128-2.099a252.128 252.128 0 0 1-6.744-2.194l.019-.067-.009.02Zm-1.526 9.9a333.834 333.834 0 0 0-6.029-2.146c-.734-.257-1.488-.438-2.222-.696-2.595-.906-5.18-1.822-7.774-2.728a72.806 72.806 0 0 0-3.482-1.097l-2.241-.639c-.754-.2-1.45-.572-2.165-.897-.439-.219-.296-.467.19-.667.477-.182 1.355-.458 2.232-.286 3.072.782 6.143 1.554 9.119 2.747 1.784.696 3.72 1.154 5.59 1.745l6.142 2.003 3.768 1.269c1.908.629 3.806 1.326 5.704 1.927 1.479.477 2.986.782 4.455 1.259.324.105.648.181.973.295 1.192.439 1.507.754 1.516 1.45 0 .162.019.325 0 .477-.076.506-.706.706-1.612.534-1.345-.276-2.718-.562-4.063-.992-1.345-.419-2.7-.877-4.054-1.345l-6.067-2.117.02-.057v-.039Zm-66.321 54.627-4.779-1.822-4.808-1.793-.61-.238-.448-.172c-.172-.076-.372-.133-.525-.229l-.906-.563a1.405 1.405 0 0 1-.391-.305l-.162-.162c.019-.095-.038-.172-.038-.248-.058-.305-.182-.601-.096-.973.048-.362.153-.734.239-1.106l.372-1.393c.41-1.622.791-3.234 1.125-4.874.487-2.394.773-4.817 1.068-7.249.325-2.681.525-5.38.659-8.089a82.21 82.21 0 0 0 .095-4.063l-.019-2.032-.019-1.107-.057-1.659.391-1.412c.181-.2.438-.229.667-.257.239-.02.496-.029.792.028.572.096 1.202.324 1.803.544l.734.286.573.229 4.54 1.917a214.002 214.002 0 0 0 10.788 4.264c2.308.858 4.674 1.526 6.982 2.356 1.164.4 2.337.744 3.501 1.116 1.163.372 2.346.706 3.548.944 1.498.286 1.316.334-.019.506-.668.076-1.631.162-2.795.19-.582.01-1.221.029-1.888-.019a21.804 21.804 0 0 1-2.089-.276c-1.24-.248-2.499-.449-3.701-.821a92.007 92.007 0 0 1-3.587-1.163c-2.365-.821-4.721-1.679-7.03-2.623a372.601 372.601 0 0 1-6.867-2.929l-3.215-1.373a2.626 2.626 0 0 0-.334-.172c-.2-.105-.133.115-.171.21v.134l-.029.143v.581l-.019 1.164c-.01.773-.019 1.555-.038 2.337 0 1.564-.038 3.138-.086 4.722-.105 3.157-.315 6.333-.734 9.471-.458 3.444-1.088 6.887-2.061 10.226l-.219.763c-.019.085-.048.162-.067.248-.038.105.105.114.162.162.181.076.258.124.525.229l1.183.477c1.583.629 3.176 1.249 4.788 1.841 3.958 1.44 7.926 2.89 11.885 4.33 3.004 1.078 6.019 2.156 9.033 3.234 1.507.534 3.014 1.058 4.512 1.592l1.697.592c.105.019.22.114.315.067.076-.086.115-.191.162-.296.086-.21.153-.429.22-.639l.219-.773.229-.877c.143-.582.277-1.174.41-1.765.248-1.183.467-2.365.668-3.558.391-2.375.687-4.759.906-7.154.095-1.058.143-2.089.21-3.147.133-1.965.191-3.253.343-4.159.162-.906.401-1.431.773-1.87.171-.2.324-.467.496-.591.524-.429 1.23 1.221 1.297 4.245.076 4.473-.401 9.013-1.202 13.573-.2 1.135-.429 2.28-.687 3.424l-.41 1.717-.229.859-.276.934c-.344 1.059-.725 2.251-1.45 2.766-.162.124-.42.258-.582.306-.21.019-.467 0-.696 0-.239-.019-.458.019-.716-.038l-.81-.287-3.682-1.306c-6.458-2.309-12.915-4.693-19.363-7.078l.019-.067h-.019Z"/><path fill="#231123" d="M353.658 209.693a35.808 35.808 0 0 0-2.318-1.182c-.286-.134-.601-.201-.887-.334-1.021-.448-2.023-1.021-3.081-1.412-.468-.191-.954-.305-1.441-.42-.62-.124-1.24-.286-1.831-.591-.181-.095-.114-.334.105-.582.219-.238.591-.524.982-.543.687-.039 1.355.057 2.013.2.658.133 1.307.324 1.936.591.754.305 1.593.439 2.366.735.849.314 1.688.677 2.518 1.049l1.517.706c.763.353 1.516.753 2.279 1.097.592.257 1.24.391 1.86.601.134.047.286.066.41.133.487.22.554.448.334 1.078a7.327 7.327 0 0 1-.152.429c-.201.468-.592.735-.992.697-1.193-.124-2.261-.554-3.329-1.012l-2.318-1.173.019-.057.01-.01Zm-.888 7.631a41.062 41.062 0 0 0-2.394-1.058c-.295-.124-.61-.182-.906-.306-1.04-.448-2.089-.906-3.128-1.345-.468-.19-.945-.343-1.422-.486-.305-.095-.62-.191-.915-.286a5.51 5.51 0 0 1-.849-.506c-.172-.124-.105-.238.114-.381.22-.124.611-.334.992-.353 1.278.21 2.547.477 3.777.954.735.286 1.546.419 2.318.648.849.258 1.689.544 2.537.849l1.546.572c.782.306 1.545.659 2.327.935.601.229 1.259.315 1.879.544.134.048.277.076.41.143.487.238.563.458.401 1.002-.038.124-.067.248-.115.362-.162.391-.515.61-.906.582-.562-.067-1.144-.115-1.678-.286a25.79 25.79 0 0 1-1.603-.554 49.848 49.848 0 0 1-2.394-.963l.019-.057-.01-.01Zm125.317-11.036c-.096 4.97-.506 9.796-.954 14.651-.153 1.775-.267 3.539-.467 5.304-.754 6.209-1.67 12.409-2.938 18.543a196.528 196.528 0 0 1-.83 4.082c-.277 1.364-.525 2.728-.887 4.063l-.63 2.585c-.229.859-.496 1.708-.744 2.566-.515 1.698-1.297 3.329-2.022 4.941-.467 1.002-.582.792-.563-.181 0-.992.134-2.719.363-4.731.152-.878.362-1.736.543-2.604.182-.868.315-1.746.477-2.623l.973-5.237c.658-3.5 1.183-7.03 1.879-10.568.763-4.245 1.107-8.719 1.479-13.116.429-4.826.792-9.672.935-14.508.047-1.488.066-2.976.038-4.426l-.048-1.068c0-.21-.038-.258-.048-.391-.019-.105 0-.239-.047-.315-.038-.095-.086-.152-.153-.238-.067-.096-.191-.22-.286-.325a8.6 8.6 0 0 0-.754-.667c-1.659-1.336-3.605-2.528-5.532-3.673a96.17 96.17 0 0 0-5.933-3.205c-3.128-1.545-6.314-2.794-9.519-4.063-.706-.277-1.412-.515-2.118-.801-1.307-.534-2.155-.925-2.68-1.345-.525-.448-.754-.878-.868-1.412-.048-.248-.153-.496-.153-.715 0-.363.315-.563.906-.639.592-.067 1.46-.029 2.471.305 6.019 1.87 12.009 4.636 17.865 7.841 2.166 1.221 4.302 2.489 6.42 4.015.534.391 1.059.792 1.602 1.259.267.239.544.487.83.792.153.172.277.286.439.515.181.22.362.496.486.763.067.134.143.267.182.401l.085.4c.058.268.115.535.153.792.048.296.038.41.048.582l.019.496.038.992v.944h-.086l.029.019Zm-75.726 34.072c2.07 1.373 4.483 2.547 6.915 3.624a147.845 147.845 0 0 0 7.478 3.034c1.841.696 3.74 1.287 5.59 1.965l19.726 7.201c2.918 1.087 5.847 2.184 8.746 3.262 1.86.697 3.72 1.412 5.542 2.213.906.41 1.822.811 2.719 1.259l1.335.668c.439.238.839.553 1.259.83 1.03.725.849.696-.238.582-.544-.067-1.355-.058-2.242-.248a24.482 24.482 0 0 1-2.995-.773c-7.602-2.566-15.281-4.931-22.883-7.898-4.559-1.736-9.443-3.128-14.145-4.836-5.17-1.888-10.35-3.806-15.348-6.353-1.535-.81-3.052-1.669-4.483-2.804-.353-.295-.715-.572-1.039-.935-.172-.19-.334-.314-.506-.553l-.515-.772c-.343-.515-.248-1.24-.2-1.775.057-.457.124-.877.2-1.306.954-5.084 2.146-10.044 2.938-15.042.629-3.873.982-7.717 1.183-11.552.038-.848.047-1.669.066-2.518.096-3.128.172-4.073 1.002-4.817.172-.162.343-.391.505-.496.506-.372 1.345.926 1.469 3.377.401 7.211-.839 14.584-2.165 21.862l-1.517 8.079a55.752 55.752 0 0 0-.333 1.965c-.048.305-.096.668-.124.868 0 .01-.01.019 0 .038v.029l.019.009.124.124c.19.182.324.363.562.544.229.181.43.363.668.544l.754.524-.038.067-.029.01Z"/><path fill="#231123" d="M444.092 222.532a552.429 552.429 0 0 1-6.42-2.947c-.782-.363-1.593-.649-2.365-1.011-2.747-1.288-5.485-2.576-8.251-3.806-1.23-.534-2.47-1.068-3.701-1.574-.792-.334-1.602-.61-2.365-.992-.773-.391-1.508-.839-2.252-1.288-.457-.286-.372-.305.105-.295.468.038 1.412-.077 2.404.095.219.038.439.076.658.124l.63.2 1.249.401 2.49.839c1.64.611 3.243 1.317 4.845 2.061 1.908.896 3.997 1.574 6 2.365 2.203.878 4.397 1.774 6.572 2.7l4.035 1.697c2.041.84 4.073 1.727 6.133 2.48 1.593.592 3.243.983 4.846 1.488.353.115.705.201 1.058.325 1.288.515 1.584.954 1.612 1.698 0 .171.029.353.01.515-.067.534-.763.753-1.812.648-3.053-.458-5.981-1.688-8.947-2.861-2.194-.897-4.369-1.86-6.553-2.785l.019-.067v-.01Zm-5.399 9.281a331.16 331.16 0 0 1-4.96-2.203c-.601-.267-1.231-.477-1.831-.754-2.118-.973-4.216-1.965-6.344-2.899a51.905 51.905 0 0 0-2.852-1.183l-1.84-.706c-.601-.267-1.183-.601-1.756-.935-.352-.219-.219-.419.21-.572.43-.143 1.174-.296 1.927-.162 2.575.772 5.113 1.64 7.535 2.871 1.46.715 3.072 1.221 4.608 1.831 1.688.678 3.367 1.374 5.036 2.099l3.09 1.307c1.565.648 3.129 1.325 4.712 1.898 1.231.438 2.48.772 3.711 1.182.267.086.543.163.811.258.992.382 1.259.649 1.268 1.23 0 .134.019.277 0 .401-.057.42-.582.591-1.364.458a42.204 42.204 0 0 1-3.491-.801c-1.154-.344-2.299-.792-3.443-1.221-1.698-.649-3.377-1.364-5.065-2.051l.019-.057.019.009Zm-191.923-87.2c-1.775-.019-3.549-.334-5.208-.821a38.403 38.403 0 0 1-4.732-1.85c-1.497-.706-2.918-1.507-4.273-2.232-.687-.372-1.335-.687-1.946-1.002l-.438-.19c-.182-.086-.134-.058-.182-.077a.517.517 0 0 0-.2-.047c-.114-.029-.2.076-.248.171-.029.048-.048.105-.067.153l-.229.763c-.324 1.135-.648 2.375-1.144 3.625-.487 1.249-1.126 2.527-2.099 3.672-.954 1.144-2.298 2.089-3.739 2.556a9.666 9.666 0 0 1-1.822.42 9.095 9.095 0 0 1-1.841.067c-.629 0-1.259-.153-1.879-.277-.591-.2-1.221-.382-1.745-.687-2.223-1.135-3.692-2.861-5.065-4.283-1.192-1.287-2.366-2.403-3.472-2.737a5.356 5.356 0 0 1-.41-.095c-.153-.029-.353-.029-.525-.048-.372-.048-.715-.01-1.059 0-.686.076-1.335.248-1.926.591-1.212.62-2.185 1.86-2.995 3.253-.792 1.421-1.431 3.024-2.004 4.664l-1.669 5.084c-.601 1.717-1.202 3.482-2.308 5.218-.563.839-1.316 1.764-2.509 2.279-.305.096-.61.229-.915.267-.315.029-.639.086-.935.058-.296-.038-.601-.058-.887-.115-.286-.086-.573-.171-.849-.276-1.097-.477-1.87-1.25-2.509-1.975-.639-.734-1.173-1.478-1.698-2.175-.934-1.221-1.898-2.346-3.081-3.042-1.163-.697-2.575-.992-3.939-.897a6.337 6.337 0 0 0-3.672 1.631 7.441 7.441 0 0 0-2.08 3.501c-.238.849-.286 1.745-.219 2.623.029.219.048.439.076.658l.162.668.163.667.248.639c.648 1.698 1.793 3.177 3.147 4.417a13.733 13.733 0 0 0 4.779 2.775c.887.267 1.774.525 2.699.716.916.124 1.88.2 2.805.038.601-.048 1.001-.191 1.278-.239.277-.057.42-.066.429-.019 0 .048-.114.163-.343.344-.239.181-.582.467-1.088.715-.982.563-2.585 1.164-4.673 1.278-2.07.048-4.493-.667-6.716-2.136l-.734-.496c-.229-.182-.458-.382-.687-.573-.458-.372-.906-.772-1.287-1.24-.42-.429-.773-.925-1.107-1.421-.372-.477-.649-1.02-.925-1.564-.305-.525-.506-1.107-.716-1.679-.238-.563-.352-1.164-.486-1.755a10 10 0 0 1-.153-3.768 10.468 10.468 0 0 1 3.606-6.591c1.984-1.669 4.75-2.508 7.297-2.146 1.268.162 2.575.544 3.682 1.231 1.116.667 2.05 1.516 2.823 2.384.782.868 1.421 1.755 2.022 2.518.601.773 1.193 1.431 1.708 1.784.133.086.248.124.372.21.124.028.238.076.362.114.115 0 .248.038.353.029.086-.038.2.019.277-.048.314-.076.801-.467 1.249-1.173.887-1.421 1.545-3.386 2.184-5.322.773-2.337 1.546-4.798 2.604-7.259.544-1.231 1.174-2.461 2.013-3.634.83-1.164 1.917-2.29 3.31-3.053 1.383-.782 3.014-1.097 4.521-1.03.391.038.725 0 1.164.115.42.095.858.162 1.23.343.391.153.773.315 1.097.534l.506.305.448.334c1.173.916 2.07 1.917 2.947 2.833.868.916 1.698 1.774 2.585 2.432a6.96 6.96 0 0 0 1.975 1.05c.696.2 1.383.276 2.156.21 1.545-.115 2.842-.725 3.805-1.841.964-1.126 1.584-2.681 2.061-4.369l.734-2.69c.22-.706.477-1.402.897-1.946a2.47 2.47 0 0 1 .753-.686c.296-.182.639-.239.973-.296.372-.019.744.019 1.116.057.372.029.735.191 1.107.277.391.095.553.21.839.314.267.105.477.22.725.334.935.458 1.774.992 2.604 1.479 1.66 1.001 3.281 1.936 4.979 2.69 3.024 1.306 6.276 1.812 9.443 1.211 1.574-.296 3.11-.83 4.531-1.574a15.993 15.993 0 0 0 3.815-2.909c1.67-1.765 2.967-3.901 3.587-6.267.601-2.356.811-4.903.486-7.344-.648-4.932-3.291-9.482-6.944-12.82-2.833-2.633-6.324-4.455-9.967-5.447-3.635-.944-7.536-.877-11.237-.209a28.636 28.636 0 0 0-4.731 1.402c-.715.276-1.345.591-1.927.839-.553.305-1.077.563-1.535.83-.439.286-.859.515-1.24.725-.363.238-.687.448-.983.639-.629.343-1.049.706-1.507.916-.467.209-.83.391-1.202.524-.343.124-.744.353-.992.401-.429.086-.324-.448.21-1.65.572-1.154 1.86-2.814 4.006-4.312a25.312 25.312 0 0 1 5.161-2.623c1.821-.648 3.71-1.154 5.646-1.431 3.863-.562 7.908-.467 11.876.678 3.882 1.173 7.564 3.147 10.616 5.914 1.564 1.335 2.909 2.928 4.14 4.616.563.878 1.154 1.746 1.602 2.69.515.916.887 1.898 1.278 2.881a22.6 22.6 0 0 1 1.317 9.252c-.124 1.564-.353 3.09-.801 4.664-.496 1.536-1.117 3.043-2.004 4.388-1.688 2.747-4.13 4.969-6.905 6.505a19.034 19.034 0 0 1-9.148 2.308l-.019-.085h-.009Zm-98.952 20.45c.286 2.451 1.182 4.855 2.737 6.763a14.73 14.73 0 0 0 2.003 1.841c1.259 1.011 2.68 1.898 4.254 2.499 1.555.61 3.215 1.078 4.913 1.24.753.133 1.516.105 2.27.133.753-.066 1.516-.066 2.251-.219.954-.143 1.879-.429 2.823-.639.906-.315 1.851-.525 2.871-.725.649-.095.649.029.353.601-.295.544-.83 1.879-2.031 2.404-2.042 1.068-4.35 1.449-6.611 1.554-2.279.143-4.559-.4-6.667-1.211-2.509-.982-5.141-2.108-7.23-4.016-2.299-2.089-3.854-4.95-4.54-7.878a18.28 18.28 0 0 1-.372-5.533 15.83 15.83 0 0 1 2.956-7.764c1.288-1.746 2.948-3.281 5.008-4.187.229-.105.439-.22.668-.315.229-.077.467-.143.706-.21.448-.115.82-.2 1.144-.239.325 0 .582.058.802.124.429.144.677.372.868.706.085.153.2.296.238.439.076.248-.048.487-.324.735a3.136 3.136 0 0 1-1.193.658c-1.516.524-2.88 1.259-4.034 2.279a10.748 10.748 0 0 0-2.757 3.768 13.975 13.975 0 0 0-1.03 7.173h-.076v.019Zm98.465 8.499c-.41.925-.82 1.822-1.335 2.785-.153.267-.239.458-.554.868-.057.067-.047.067-.152.181a2.262 2.262 0 0 1-.448.344c-.277.143-.458.171-.725.2a1.946 1.946 0 0 1-1.164-.315c-.467-.315-.62-.553-.754-.677l-.057-.057a1.556 1.556 0 0 1-.353-.515 1.766 1.766 0 0 1-.086-.296c-.019-.124 0-.067-.019-.114-.009-.163 0-.382 0-.439.019-.201.058-.344.086-.487.181-.801.334-1.507.572-2.213.849-2.451 1.822-4.807 2.872-7.153.457-1.04.925-2.089 1.383-3.12.61-1.306 1.144-2.756 2.48-3.672.496-.21.438-.143.486.363.029.324.057.658.086.973.009.372-.048.744-.172 1.116-.543 1.306-1.078 2.604-1.621 3.91a62.994 62.994 0 0 1-1.736 3.968c-.744 1.584-1.183 3.358-1.66 5.037-.124.457-.258.934-.324 1.325l-.019.115v.048s.019-.019-.029-.019c-.124 0-.258 0-.382.009-.124 0-.276.048-.362.048a.227.227 0 0 0-.191.019c-.028.019-.057.038-.076.067 1.373-1.584.381-.43.687-.783h.009l.048.058.153.152.209.201s.039.028.039.038a2.017 2.017 0 0 0-.21.4c-.029.105-.029.143-.029.153v-.057l-.019-.019v-.01c.362.82.095.22.181.401v-.019a.717.717 0 0 0-.286-.363c-.029-.019-.067-.038-.105-.057l-.152-.134c-.153-.133-.105-.095-.105-.104.009-.02.009 0 .038-.058.095-.143.2-.343.305-.553.21-.41.41-.858.601-1.297a74.606 74.606 0 0 0 1.373-3.358c.649-1.717 1.317-3.443 1.832-5.198.4-1.364.639-2.747.887-4.111.057-.296.076-.601.133-.887.058-.267.105-.477.153-.63l.029-.076.019-.029v-.019s.171.038.248.057c.171.029.353.029.515.01.086 0 .172-.029.248-.048l.057-.019c.219-.048-1.917.372-1.011.2l.048-.019s.267-.114.391-.209c.133-.096.171-.163.21-.22.085-.143.076-.324.028-.496-.028-.143-.038-.276.077-.391.104-.114.381-.181.686-.076.306.105.563.334.763.601a1.6 1.6 0 0 1 .134.219c.019.038.038.076.057.124.019.076.038.162.048.258.009.076.009.209.019.238v.343c-.057 1.479-.315 2.7-.639 4.026-.324 1.297-.735 2.575-1.173 3.844-.659 1.888-1.412 3.748-2.185 5.627l-.057-.019v.01Z"/><path fill="#231123" d="M208.139 201.538c4.33 1.068 8.88 1.345 13.296.668a29.273 29.273 0 0 0 4.703-1.212c2.718-.858 5.236-2.241 7.554-3.968a27.572 27.572 0 0 0 6.038-6.2c1.498-2.117 2.719-4.454 3.672-6.858.649-1.535 1.078-3.157 1.651-4.74.515-1.603.982-3.215 1.736-4.779.324-.467.486-.668.562-.639.077.028.096.296.258.801.162.496.305 1.192.439 2.032.095.83.047 1.774-.162 2.766a31.033 31.033 0 0 1-.64 2.623c-.295.858-.553 1.717-.896 2.566-.62 1.707-1.421 3.357-2.289 4.969-1.832 3.186-4.188 6.134-7.087 8.451a38.907 38.907 0 0 1-5.523 3.825 27.259 27.259 0 0 1-6.286 2.576c-4.788 1.278-9.777 1.402-14.584.677a41.603 41.603 0 0 1-8.652-2.327 39.55 39.55 0 0 1-11.503-7.04c-2.633-2.289-4.96-4.864-6.858-7.793-.439-.629-.802-1.287-1.183-1.965-.353-.629-.563-1.192-.754-1.65-.171-.467-.324-.839-.324-1.202.01-.715.134-1.163.296-1.545.076-.172.124-.381.2-.486.124-.182.353-.029.773.334.21.181.458.429.744.715.152.133.267.315.372.496.124.181.248.381.372.591 1.45 2.509 3.147 4.903 5.131 7.078.487.553 1.031 1.059 1.536 1.593.553.496 1.078 1.011 1.65 1.488.573.477 1.116.982 1.727 1.421.582.467 1.192.897 1.812 1.316a36.517 36.517 0 0 0 12.219 5.351v.077-.01Zm42.417 72.111c.592-.305 1.107-.668 1.507-1.087.391-.401.725-.916 1.04-1.574.315-.649.591-1.393.916-2.175.334-.773.667-1.631 1.249-2.423.42-.582.906-1.173 1.526-1.65.144-.134.325-.219.487-.324.181-.086.286-.239.572-.277.477-.162.945-.439 1.412-.458.41-.038.839-.191 1.211-.067.382.086.754.287 1.03.573.535.582.764 1.411.764 2.299a5.76 5.76 0 0 1-.096 1.182l-.048.239c-.009.057-.009.038-.009.038v.029s-.038.085-.067.124c-.105.143-.21.333-.21.534 0 .105.048.2.124.257.077.048.172.067.267.105.191.029.411.029.601-.067.191-.095.363-.229.525-.419.267-.306.505-.716.706-1.135.362-.744.62-1.593.782-2.442.153-.83.238-1.774.162-2.49-.114-.915-.62-1.64-1.478-2.318-.849-.667-1.86-1.364-2.719-2.26-.467-.649-.324-.63.391-.573.363.02.83.096 1.402.172a4.768 4.768 0 0 1 1.851.62c.572.334 1.183.735 1.755 1.316.563.582 1.059 1.384 1.249 2.232.105.43.124.83.144 1.24 0 .353 0 .706-.039 1.04a13.938 13.938 0 0 1-.305 2.013c-.324 1.316-.753 2.623-1.64 3.891l-.439.573-.611.563c-.19.209-.429.314-.658.448-.229.133-.448.276-.687.334-.238.066-.467.152-.705.171l-.697.039c-.448-.067-.906-.105-1.297-.296a1.88 1.88 0 0 1-1.183-.935c-.229-.458-.286-.935-.229-1.44.029-.248.086-.506.182-.773a5.75 5.75 0 0 1 .381-.887c.086-.219.057-.229.086-.305l.038-.21c.01-.095.019-.134.019-.2 0-.22-.028-.544-.296-.582-.124 0-.228.048-.352.067-.124.057-.172.047-.43.248-.954.677-1.526 1.974-2.146 3.462-.305.744-.61 1.536-1.011 2.337-.391.792-.925 1.641-1.631 2.308-1.746 1.612-3.863 2.328-5.914 2.795-1.574.343-3.167.477-4.75.477-1.44-.029-2.814.267-4.178.773-2.108.801-3.987 2.069-5.847 3.386-.41.286-.792.61-1.211.896-1.565 1.069-2.223 1.231-2.995.792-.172-.105-.372-.181-.515-.305-.458-.42-.096-1.24.953-2.175a31.507 31.507 0 0 1 5.38-3.796c2.013-1.097 4.245-2.051 6.839-2.356.468-.048 1.011-.057 1.44-.077.372 0 .744 0 1.116-.028a21.296 21.296 0 0 0 2.213-.239c1.45-.248 2.881-.648 4.045-1.297l.038.057-.01.01Z"/><path fill="#231123" d="M196.559 267.974c2.471.877 5.551.982 8.537.915 3.014-.086 6.076-.41 9.138-.801 2.232-.286 4.464-.715 6.724-1.03 2.013-.258 3.968-.563 6.181-.62.229.009.754-.019 1.135.076.201.038.411.048.611.115l.553.229c.162.114.363.181.496.333.124.163.277.296.372.477.096.172.22.334.296.525l.191.591c.238.926.209 1.383.248 1.946.009.544 0 1.068-.01 1.593-.21 4.13-.763 8.051-.935 12.019-.086 1.755-.086 3.51.067 5.217.153 1.707.448 3.405 1.116 4.827.429.887 1.011 1.688 1.755 2.079.324.143.592.229.906.133a2.464 2.464 0 0 0 1.021-.648c.172-.162.343-.334.496-.534.162-.191.315-.391.458-.611.315-.41.601-.868.868-1.335.257-.477.534-.944.791-1.44.268-.487.468-1.002.697-1.508.543-1.278.334-1.192.486.077 0 1.221.363 3.767-1.383 6.362a6.621 6.621 0 0 1-1.583 1.612c-.172.124-.391.229-.592.334-.2.105-.41.2-.667.257a6.27 6.27 0 0 1-.754.143 7.69 7.69 0 0 1-.792-.047c-.276-.01-.496-.105-.724-.191a6.097 6.097 0 0 1-.668-.286c-.334-.22-.696-.429-.992-.697-.601-.524-1.116-1.116-1.469-1.755-.735-1.259-1.116-2.546-1.383-3.805-.267-1.26-.391-2.49-.468-3.701-.257-4.855.315-9.539.735-14.127.114-1.364.21-2.756.133-4.025-.066-.792-.066-.801-.171-1.049-.057-.105-.172-.143-.286-.162l-.172-.02h-.305c-1.288.048-2.7.248-4.102.449-1.412.21-2.823.429-4.235.639-3.109.458-6.248.896-9.424 1.183-3.176.267-6.381.448-9.653.114-2.003-.21-4.063-.62-6.009-1.688l-.706-.458c-.219-.153-.553-.448-.725-.687-.429-.505-.639-.992-.887-1.469-.429-.944-.753-1.841-1.154-2.623-.296-.591-.639-1.106-1.03-1.44-.391-.334-.811-.487-1.364-.506l-4.426-.181-1.107-.048c-.19-.009-.343 0-.572-.028-.229-.038-.467-.057-.696-.115-.906-.219-1.66-.706-2.28-1.24-1.24-1.078-2.117-2.365-2.89-3.653-2.337-4.054-3.949-8.251-5.418-12.505-.315-.944-.648-1.85-.916-2.814-1.011-3.558-1.001-4.769-.524-5.713.105-.22.2-.487.324-.62.21-.239.506-.019.897.563.391.581.887 1.535 1.335 2.794 1.431 3.72 2.68 7.583 4.245 11.303.782 1.86 1.612 3.692 2.604 5.351.496.821 1.02 1.603 1.583 2.242.553.63 1.173 1.126 1.612 1.259.076 0 .162.076.22.057.095 0 .066.029.314.029l1.154.038 2.309.076 2.365.086c.325.019.639.048.964.096.324.085.658.181.973.295.305.153.61.306.887.487.248.191.515.391.734.61.868.868 1.336 1.774 1.727 2.576.381.801.658 1.554.944 2.165.143.305.277.563.401.753.057.058.104.153.143.182.038.009-.019.019.152.114.229.153.449.305.735.429.257.143.553.248.858.363l-.019.076v-.009Zm93.916-4.541-8.032 7.965c-.973.973-1.888 2.003-2.871 2.966-3.462 3.396-7.001 6.715-10.521 10.054a189.26 189.26 0 0 0-4.578 4.559c-1.946 1.937-3.854 3.959-6.381 5.332-.468.115-.697.115-.754.019-.067-.105.029-.334.105-.81.076-.477.296-1.002.563-1.593.133-.306.296-.63.477-.945.095-.162.2-.314.295-.477.124-.143.239-.295.372-.429 1.841-2.051 3.825-3.996 5.828-5.933a221.05 221.05 0 0 1 6.124-5.761c2.499-2.261 4.836-4.874 7.249-7.335l7.994-8.098 4.893-5.008c2.451-2.547 4.941-5.074 7.287-7.678 1.832-2.023 3.472-4.14 5.199-6.219.381-.458.725-.926 1.125-1.374.735-.83 1.259-1.345 1.736-1.602.487-.248.906-.268 1.383-.144.22.058.458.086.649.172.315.143.42.477.343.954-.076.477-.324 1.106-.81 1.765-2.824 3.949-6.191 7.773-9.692 11.484-2.594 2.766-5.274 5.485-7.916 8.213l-.067-.058v-.019Z"/><path fill="#231123" d="M277.665 276.682s-.048.019-.067.038l-.029.029-.076.124c-.048.086-.115.162-.162.248-.201.353-.382.725-.553 1.125a12.77 12.77 0 0 0-.744 2.499c-.105.64-.134 1.279-.201 1.918-.019.41-.076.83-.067 1.24.067.744.039 1.535-.429 2.127-.439.439-1.049.753-1.593.963a17.03 17.03 0 0 0-1.03.477c-.668.334-1.307.735-1.927 1.183-.868.61-1.554 1.431-2.232 2.232-.438.515-.801 1.087-1.182 1.66-.191.286-.344.581-.592.848l-.343.401c-.134.134-.324.229-.506.343-.534.248-.257.306-.362-.152-.134-.458-.601-1.498-.162-2.28.648-1.411 1.43-2.861 2.613-3.958a13.457 13.457 0 0 1 3.93-2.728c.258-.115.668-.315.715-.315.124-.048.201-.057.287-.115a.255.255 0 0 0 .066-.257v-.153l-.047-.467c-.038-.649-.067-1.297-.019-1.946a15.205 15.205 0 0 1 1.831-6.143l.286-.467c.105-.2.258-.382.401-.553l.419-.534c.144-.163.315-.296.468-.449.305-.324.658-.486.992-.715.353-.143.706-.305 1.078-.343.105-.02.21-.048.324-.058.267.019.534 0 .792.134.248.124.41.334.543.543.248.42.391.945.468 1.536.067.592.057 1.24.038 1.86l-.038 1.412c-.019 1.421.124 2.804.334 4.101.047.287.124.554.171.83.191 1.002.134 1.221-.467 1.727-.134.114-.248.248-.382.353-.219.171-.477.2-.791.047-.306-.143-.582-.496-.773-.963-.553-1.383-.706-2.776-.792-4.13a35.645 35.645 0 0 1-.047-2.003c0-.325-.01-.658-.019-.973v-.124c0 .009.038-.029.019-.076-.01-.039-.048-.048-.086-.02l-.048-.066-.009-.01Zm-124.287 12.639c2.042 2.613 4.283 5.179 6.811 6.905.687.42 1.402.811 2.108 1.221.687.43 1.45.763 2.203 1.097.763.334 1.498.697 2.28 1.002l2.366.849c1.135.448 2.346.725 3.529 1.049l1.783.486 1.803.411c8.47 2.031 17.255 3.023 26.04 3.3 1.946.086 3.901 0 5.857-.019.973-.029 1.946-.105 2.919-.162.973-.067 1.945-.067 2.899-.172 4.96-.362 9.863-1.192 14.718-2.184 1.603-.038 1.402-.048.267.772-.563.43-1.421.878-2.489 1.402-1.078.43-2.356.926-3.797 1.269-10.196 2.261-20.689 2.337-31.047 1.192-6.191-.734-12.648-1.516-18.858-3.147-1.698-.477-3.405-.906-5.074-1.546-.84-.305-1.679-.562-2.509-.896l-2.451-1.078c-.83-.324-1.612-.792-2.394-1.23-.773-.468-1.603-.811-2.318-1.422-1.536-1.068-2.824-2.337-4.064-3.615-2.995-3.205-5.532-6.724-7.898-10.33-3.596-5.446-6.724-11.189-9.652-16.94-2.29-4.464-4.484-8.871-6.439-13.459-.42-1.011-.887-1.984-1.259-3.033-1.459-3.844-1.526-5.218-.973-6.286.124-.248.219-.544.343-.706.401-.515 1.555.859 2.624 3.587 3.376 8.031 7.277 16.358 11.694 24.447.82 1.507 1.65 2.995 2.527 4.464.84 1.488 1.755 2.937 2.662 4.387.896 1.46 1.869 2.852 2.813 4.274 1.012 1.364 1.965 2.785 3.043 4.063l-.057.057-.01-.009ZM141.217 106.43c.219-.238.563-.105.944.248.124.115.286.544.248.639a3.278 3.278 0 0 1-.248.525c-.076.076-1.125 1.049-1.345 1.488-.267.372-.534.725-.82 1.059-.591.658-1.116 1.373-1.517 2.155-.095.172-.229.315-.353.468-.476.505-.763 1.144-.896 1.812-.019.114-.076.219 0 .353.038.105 0 .61-.096 1.087-.076.487-.143.983-.2 1.088-.114.276-.219.553-.315.849l-.229.887c-.028.086.029.171-.095.257-.286.21-.21.401-.21.592-.019.267.019.534-.028.82-.019.143-.153.315-.258.486-.095.153-.534.21-.591.182-.162-.096-.344.066-.515.133-.058.019-.134.048-.191.057-.057 0-.382-.372-.706-.82-.315-.439-.563-.954-.591-1.059-.019-.028-.143-.734-.248-1.497a26.833 26.833 0 0 1-.039-1.727c0-.171.096-.334.163-.486 0-.038.047-.63.152-1.212.077-.591.267-1.154.267-1.201.182-.439.286-.907.725-1.231.086-.057.115-.152.143-.238.334-.735.83-1.374 1.345-1.975.258-.324.496-.639.744-.954.048-.057.124-.085.181-.133.077-.057.163-.096.229-.172.62-.725 1.431-1.259 2.175-1.831.162-.162 1.212-.458 1.412-.582.114-.086.677.019.763-.067Zm-7.907-4.483c.162-.219.476-.153.829.076.115.077.287.391.258.477-.057.162-.115.334-.181.477-.058.077-.945 1.078-1.154 1.488-.239.372-.487.706-.744 1.03-.506.678-1.021 1.326-1.431 2.051a2.5 2.5 0 0 1-.353.429c-.477.439-.773 1.011-1.002 1.603-.038.095-.095.191-.047.324.038.21-.525 1.784-.649 1.975-.172.248-.334.477-.496.705-.143.248-.286.496-.439.754-.047.067-.038.162-.171.21-.315.114-.315.296-.382.467-.095.239-.181.477-.305.706-.067.115-.22.229-.344.343-.114.105-.448.02-.486-.028-.095-.124-.277-.048-.42-.048h-.152c-.077 0-.678-1.698-.668-1.898 0-.01-.019-.181 0-.42.019-.238.057-.553.086-.877.076-.649.238-1.317.267-1.45.028-.143.143-.258.229-.382 0-.066.62-1.936.687-1.993.209-.344.324-.754.763-.964.085-.038.114-.114.152-.19.363-.592.859-1.088 1.345-1.574.239-.267.468-.515.706-.773.048-.047.114-.067.162-.105.067-.047.153-.076.2-.133.563-.601 1.288-1.021 1.899-1.555.143-.134 1.02-.448 1.182-.572.096-.077.582-.048.649-.134l.01-.019Zm105.237 48.322c-.248.105.248-.095.296-.115a4.98 4.98 0 0 1 .391-.133c.305-.095.611-.181.916-.258.305-.076.62-.133.935-.181-.306.048.238-.028.295-.028l.41-.029c.315-.019.64-.019.954-.01.182 0 .363.019.544.029.095 0 .181.019.267.029l-.2-.029c.009.067.582.076.648.181-.19-.086-.219-.095-.076-.028.057.028.105.057.162.095.124.086.096.067-.076-.057.086.086.086.076 0-.019-.115-.334.114.496-.067-.134-.019-.248-.028-.286-.019-.133.038-.22.048-.277.019-.172-.028.105 0 .057.076-.162-.076.124-.047.086.096-.115-.162.191.305-.19.019-.028-.095.047-.048.028.162-.067-.048.019-.105.029-.153.038.248-.029.287-.029.134-.019h-.258c-.152-.01-.114 0 .124.019-.028-.029-.248-.076-.295-.076-.105-.038-.057-.019.143.067a1.218 1.218 0 0 1-.153-.077 4.27 4.27 0 0 1-.334-.219c-.057-.038-.391-.296-.124-.096-.171-.133-.343-.267-.524-.4-.496-.372-1.069-.706-1.698-.801-.735-.115-1.574.19-1.765 1.001-.152.687.21 1.641 1.002 1.765.133.019.257.057.381.086.153.038-.066-.029-.085-.039.066.039.133.067.2.105.095.058.191.124.286.182.086.057.41.295.172.124.543.41 1.039.82 1.688 1.049 1.106.381 2.518.172 3.262-.792.944-1.221.391-2.852-.887-3.577-1.097-.62-2.47-.658-3.701-.582-1.612.096-3.128.487-4.616 1.126-.687.296-.897 1.364-.516 1.955.458.716 1.221.83 1.956.515l.009.01Z"/><path fill="#75C" d="M387.891 287.651c-.162 6.363-7.717 10.149-12.915 6.429-3.09-2.213-4.245-6.734-2.614-10.158 3.701-7.736 15.739-4.808 15.52 3.729h.009Z" opacity=".2"/><path fill="#231123" d="M376.006 294.5c1.107-3.272 2.051-6.601 3.157-9.872.229-.668-.257-1.431-.915-1.612-.716-.201-1.383.238-1.612.915-1.107 3.272-2.051 6.601-3.158 9.873-.228.667.258 1.43.916 1.612.716.2 1.383-.239 1.612-.916Z"/><path fill="#231123" d="M372.992 284.084c0-.21-.019-.076-.019-.019 0-.095.048-.219.076-.305.057-.201.124-.401.201-.601 0-.01.085-.181.085-.201l.039-.085-.678.429c-.314.105-.419.038-.229.038.191 0-.353-.086-.19-.029.057.019.124.019.181.029.162.038.315.067.477.105.973.238 1.927.534 2.88.83 2.185.677 4.359 1.392 6.477 2.251-.238-.096-.143-.067.01 0 .085.038.162.076.248.114.095.048.219.153.324.182-.143-.039-.22-.229-.324-.401.085.143-.21-.382-.172-.343-.067-.058 0-.134 0 .085.009.411.038.63-.153.973-.82 1.479 1.441 2.805 2.261 1.326.696-1.24.925-3.281-.534-4.035-.992-.515-2.089-.877-3.138-1.249-2.433-.868-4.922-1.755-7.45-2.318-.439-.095-.925-.219-1.374-.095-.686.19-.925.829-1.173 1.421-.248.591-.486 1.23-.458 1.879.067 1.679 2.69 1.688 2.623 0l.01.019Z"/><path fill="#75C" d="M339.359 77.405c3.978 4.97.649 12.733-5.723 13.239-3.786.296-7.592-2.404-8.546-6.086-2.156-8.298 8.928-13.83 14.269-7.153Z" opacity=".2"/><path fill="#231123" d="M334.771 90.51c-1.278-3.243-2.68-6.352-3.949-9.576-.257-.658-.877-1.116-1.612-.916-.629.172-1.173.954-.915 1.612 1.278 3.243 2.68 6.353 3.949 9.577.257.658.877 1.116 1.612.916.629-.172 1.173-.954.915-1.613Z"/><path fill="#231123" d="M325.605 84.206c.162.18-.086-.163-.124-.239a3.311 3.311 0 0 1-.162-.439c-.038-.124-.067-.448-.153-.534 0 0-.305 1.364-.563 1.212.029.019.525-.306.573-.325a34.582 34.582 0 0 1 2.346-1.068c.124-.057.248-.105.372-.162.267-.115-.028.01.172-.076.257-.105.524-.22.782-.325a79.63 79.63 0 0 1 1.612-.648 77.27 77.27 0 0 1 2.938-1.097c.4-.143.801-.277 1.211-.391.124-.039.258-.058.382-.096.248-.067-.172.02-.172.02.21 0-.286-.058-.229-.039l-.582-.334c.41.344.63.61.735 1.145.133.696.973 1.097 1.612.916.725-.2 1.049-.916.915-1.612-.171-.878-.724-1.708-1.392-2.29-.525-.448-1.059-.438-1.688-.305-1.012.22-2.004.63-2.967 1.002-2.499.944-5.046 1.898-7.411 3.128-.401.21-.83.439-1.069.84-.343.581-.114 1.24.086 1.831.22.63.468 1.25.925 1.746 1.145 1.25 2.996-.61 1.851-1.85v-.01Z"/><path fill="#75C" d="M477.238 173.447c-.172 6.754-8.194 10.779-13.716 6.83-3.282-2.347-4.512-7.154-2.776-10.788 3.93-8.213 16.721-5.113 16.492 3.968v-.01Z" opacity=".2"/><path fill="#231123" d="M463.34 170.252a31.24 31.24 0 0 0 2.738 6.934c.448.84 1.593.888 2.251.287 3.405-3.139 7.325-5.685 10.95-8.556.611-.477.506-1.527 0-2.023-.601-.6-1.412-.476-2.022 0-3.625 2.872-7.545 5.418-10.95 8.556l2.251.287a28.322 28.322 0 0 1-2.442-6.248c-.467-1.784-3.224-1.021-2.757.763h-.019Z"/></svg>